<?xml version="1.0" standalone="no"?>
<!DOCTYPE svg PUBLIC "-//W3C//DTD SVG 1.1//EN" "http://www.w3.org/Graphics/SVG/1.1/DTD/svg11.dtd" >
<svg xmlns="http://www.w3.org/2000/svg" xmlns:xlink="http://www.w3.org/1999/xlink" version="1.1">
<metadata></metadata>
<defs>
<font id="webfontregular" horiz-adv-x="1228" vert-adv-y="2048" >
<font-face units-per-em="2048" ascent="1679" descent="-369" />
<missing-glyph horiz-adv-x="475" />
<glyph horiz-adv-x="0" vert-adv-y="0" />
<glyph horiz-adv-x="682" />
<glyph unicode=" " horiz-adv-x="475" vert-adv-y="2064" />
<glyph unicode="!" horiz-adv-x="550" vert-adv-y="2064" d="M192 0v246h167v-246h-167zM202 1158v480h146v-480l-34 -746h-80z" />
<glyph unicode="&#x22;" horiz-adv-x="642" vert-adv-y="2064" d="M98 1638h138l-19 -623h-99zM406 1638h138l-20 -623h-99z" />
<glyph unicode="#" horiz-adv-x="1474" vert-adv-y="2064" d="M162 557v110h256l45 331h-239v111h255l63 447h128l-63 -447h330l64 447h127l-62 -447h242v-111h-258l-47 -331h243v-110h-258l-66 -475h-129l67 475h-331l-66 -475h-128l67 475h-240zM545 667h331l47 331h-331z" />
<glyph unicode="$" horiz-adv-x="1258" vert-adv-y="2064" d="M115 460h141q18 -143 118 -232q78 -66 184 -83v649q-148 45 -216 83q-209 119 -209 357q0 122 66 216q112 159 359 176v110h120v-116q156 -23 260 -116q112 -104 131 -266h-152q-31 214 -239 255v-593q19 -6 44 -13q168 -47 252 -111q172 -129 172 -334q0 -148 -91 -258 q-124 -152 -377 -172v-110h-120v112q-150 17 -250 88q-171 121 -193 358zM277 1230q0 -163 161 -245q38 -19 120 -47v562q-98 -10 -158 -47q-123 -77 -123 -223zM678 143q97 9 163 44q69 36 108 100q45 69 45 152q0 227 -316 318v-614z" />
<glyph unicode="%" horiz-adv-x="2034" vert-adv-y="2064" d="M54 1145q0 234 109 372q115 144 297 144q171 0 283 -144q110 -144 110 -372q0 -202 -89 -341q-110 -173 -312 -173q-198 0 -309 173q-89 139 -89 341zM172 1150q0 -170 67 -282q77 -128 215 -128q127 0 201 107q81 117 81 297q0 182 -78 295t-208 113q-120 0 -199 -111 q-79 -110 -79 -291zM607 0l706 1638h114l-701 -1638h-119zM1181 491q0 233 109 371q115 144 296 144q173 0 285 -144q110 -144 110 -372q0 -202 -89 -340q-111 -173 -312 -173q-199 0 -310 173q-89 138 -89 341zM1298 496q0 -171 68 -284q76 -126 216 -126q126 0 201 107 q81 115 81 295q0 183 -78 296q-78 112 -209 112q-120 0 -199 -110q-80 -109 -80 -290z" />
<glyph unicode="&#x26;" horiz-adv-x="1236" vert-adv-y="2064" d="M100 383q0 192 135 351q54 64 174 164q-14 21 -45 68q-137 200 -137 366t123 268q93 75 212 75q146 0 238 -99q88 -94 88 -234q0 -135 -94 -256q-66 -86 -218 -206l340 -510q54 132 60 310h134q-23 -250 -124 -417l174 -263h-158l-98 148q-56 -64 -106 -99 q-120 -84 -287 -84q-185 0 -291 111q-120 122 -120 307zM241 380q0 -136 87 -222q78 -78 196 -78q190 0 318 162l-368 556q-233 -194 -233 -418zM364 1325q0 -109 75 -237q15 -25 70 -108q103 87 145 137q92 112 92 226q0 84 -49 145q-53 66 -139 66q-74 0 -127 -53 q-67 -69 -67 -176z" />
<glyph unicode="'" horiz-adv-x="334" vert-adv-y="2064" d="M98 1638h138l-19 -623h-99z" />
<glyph unicode="(" horiz-adv-x="606" vert-adv-y="2064" d="M102 605q0 373 132 725q67 181 140 308h102q-243 -478 -243 -1037q0 -542 245 -1027h-104q-108 216 -169 395q-103 302 -103 636z" />
<glyph unicode=")" horiz-adv-x="606" vert-adv-y="2064" d="M130 -426q244 474 244 1037q0 541 -244 1027h103q108 -217 169 -395q103 -301 103 -636q0 -373 -132 -725q-67 -180 -140 -308h-103z" />
<glyph unicode="*" horiz-adv-x="982" vert-adv-y="2064" d="M148 1360l26 80l272 -94v292h88v-292l274 94l27 -80l-277 -90l174 -231l-67 -51l-174 232l-180 -232l-69 51l182 231z" />
<glyph unicode="+" vert-adv-y="2064" d="M82 764v126h464v434h136v-434h464v-126h-464v-433h-136v433h-464z" />
<glyph unicode="," horiz-adv-x="492" vert-adv-y="2064" d="M148 -221q82 47 85 193v28h-71v246h167v-178q0 -184 -43 -267q-47 -85 -138 -120v98z" />
<glyph unicode="-" horiz-adv-x="483" vert-adv-y="2064" d="M10 545v127h464v-127h-464z" />
<glyph unicode="." horiz-adv-x="492" vert-adv-y="2064" d="M162 0v246h167v-246h-167z" />
<glyph unicode="/" horiz-adv-x="842" vert-adv-y="2064" d="M-65 -426l706 2064h113l-702 -2064h-117z" />
<glyph unicode="0" horiz-adv-x="1165" vert-adv-y="2064" d="M106 796q0 430 116 643q127 231 367 231q234 0 361 -240q108 -204 108 -603q0 -447 -128 -655q-127 -207 -344 -207q-268 0 -392 273q-88 194 -88 558zM247 799q0 -711 336 -711q334 0 334 733q0 727 -336 727q-196 0 -274 -251q-60 -194 -60 -498z" />
<glyph unicode="1" horiz-adv-x="1166" vert-adv-y="2064" d="M274 1230v112q145 2 216 90q45 60 70 206h110v-1638h-143v1320q-54 -59 -129 -79q-33 -9 -124 -11z" />
<glyph unicode="2" horiz-adv-x="1165" vert-adv-y="2064" d="M127 1219q16 195 112 310q122 146 336 146q217 0 339 -147q107 -129 107 -312q0 -221 -158 -388q-71 -74 -155 -136l-155 -111q-186 -141 -235 -282q-28 -79 -29 -172h719v-127h-878q-2 234 97 415q68 121 211 237q40 30 202 146q106 76 175 194q61 104 61 233 q0 136 -70 222q-85 105 -234 105q-163 0 -249 -131q-49 -77 -54 -202h-142z" />
<glyph unicode="3" horiz-adv-x="1166" vert-adv-y="2064" d="M100 467h130q2 -135 47 -222q81 -157 279 -157q148 0 238 97q98 103 98 272q0 192 -126 288q-93 70 -225 70q-20 0 -62 -4v123q31 -2 51 -2q119 0 198 62q116 88 116 255q0 142 -86 225q-76 74 -201 74q-190 0 -262 -150q-31 -66 -35 -169h-129q5 173 83 282 q115 159 349 159q193 0 309 -116q113 -113 113 -296q0 -264 -233 -374q281 -98 281 -421q0 -227 -137 -368q-126 -130 -339 -130q-209 0 -331 125q-126 127 -126 377z" />
<glyph unicode="4" horiz-adv-x="1166" vert-adv-y="2064" d="M101 443v135l629 1060h114v-1074h202v-121h-202v-443h-125v443h-618zM211 564h508v844z" />
<glyph unicode="5" horiz-adv-x="1165" vert-adv-y="2064" d="M119 398h132q9 -121 67 -196q86 -114 244 -114q146 0 237 121q99 132 99 330q0 191 -89 312q-88 120 -249 120q-181 0 -286 -191l-114 18l129 840h682v-127h-580l-93 -563q106 145 292 145q195 0 316 -139q133 -155 133 -406q0 -270 -152 -441q-63 -71 -137 -105 q-80 -37 -199 -37q-219 0 -337 150q-88 111 -95 283z" />
<glyph unicode="6" horiz-adv-x="1165" vert-adv-y="2064" d="M120 757q0 472 139 700q130 213 363 213q189 0 300 -135q68 -84 90 -238h-135q-41 251 -263 251q-218 0 -303 -287q-51 -170 -60 -456q38 88 91 144q114 120 272 120q178 0 299 -128q147 -156 147 -409q0 -240 -124 -405q-122 -162 -334 -162q-230 0 -349 185 q-79 122 -105 270q-28 158 -28 337zM275 524q0 -174 83 -301q88 -135 240 -135q156 0 242 139q78 125 78 294q0 171 -78 289q-91 138 -251 138q-151 0 -240 -143q-74 -119 -74 -281z" />
<glyph unicode="7" horiz-adv-x="1165" vert-adv-y="2064" d="M172 1505v133h872v-130q-280 -338 -396 -676q-94 -260 -131 -581q-13 -123 -14 -251h-144q6 859 547 1505h-734z" />
<glyph unicode="8" horiz-adv-x="1166" vert-adv-y="2064" d="M115 452q0 320 277 456q-224 113 -224 358q0 193 132 308q108 96 282 96q175 0 287 -97q126 -110 126 -291q0 -138 -72 -246q-49 -75 -150 -128q277 -139 277 -450q0 -219 -136 -363q-121 -130 -330 -130q-212 0 -333 126q-136 139 -136 361zM257 462q0 -186 99 -292 q86 -90 231 -90q155 0 242 116q79 103 79 265q0 171 -84 270q-92 108 -246 108q-142 0 -231 -101q-90 -101 -90 -276zM304 1256q0 -134 74 -213q76 -82 206 -82t203 83q73 82 73 214q0 129 -66 205q-75 85 -213 85q-123 0 -198 -74q-79 -77 -79 -218z" />
<glyph unicode="9" horiz-adv-x="1165" vert-adv-y="2064" d="M106 1105q0 240 121 403q121 162 330 162q231 0 353 -184q80 -123 106 -270q29 -159 29 -339q0 -468 -139 -698q-128 -214 -362 -214q-194 0 -305 136q-71 85 -94 239h136q42 -252 269 -252q220 0 304 288q51 166 62 454q-117 -262 -365 -262q-178 0 -299 128 q-146 155 -146 409zM247 1114q0 -168 78 -287q90 -138 246 -138t245 143q74 120 74 278q0 179 -85 302q-92 136 -247 136q-150 0 -235 -139q-76 -125 -76 -295z" />
<glyph unicode=":" horiz-adv-x="492" vert-adv-y="2064" d="M162 0v246h167v-246h-167zM162 884v246h167v-246h-167z" />
<glyph unicode=";" horiz-adv-x="492" vert-adv-y="2064" d="M148 -221q82 47 85 193v28h-71v246h167v-178q0 -184 -43 -267q-47 -85 -138 -120v98zM162 884v246h167v-246h-167z" />
<glyph unicode="&#x3c;" vert-adv-y="2064" d="M82 756v127l1064 489v-146l-908 -406l908 -407v-147z" />
<glyph unicode="=" vert-adv-y="2064" d="M82 441v126h1064v-126h-1064zM82 929v126h1064v-126h-1064z" />
<glyph unicode="&#x3e;" vert-adv-y="2064" d="M83 266v147l907 407l-907 406v146l1064 -489v-128z" />
<glyph unicode="?" horiz-adv-x="1047" vert-adv-y="2064" d="M84 1220q6 176 78 281q116 172 353 172q217 0 336 -138q102 -118 102 -288q0 -139 -71 -259q-49 -83 -128 -171q-86 -95 -106 -131q-44 -82 -46 -278h-134q0 119 11 188q19 114 86 202q13 19 90 108q79 91 115 161q40 78 40 171q0 123 -67 209q-78 99 -221 99 q-136 0 -220 -84q-78 -80 -85 -242h-133zM450 0v246h167v-246h-167z" />
<glyph unicode="@" horiz-adv-x="1820" vert-adv-y="2064" d="M103 707q0 275 139 519q130 228 359 347q196 102 409 102q192 0 360 -83q178 -87 270 -253q77 -138 77 -307q0 -203 -107 -376q-82 -134 -201 -195q-77 -40 -155 -40q-85 0 -128 61q-23 32 -26 82q-98 -156 -256 -156q-124 0 -198 98q-69 92 -69 232q0 186 107 323 q98 126 250 126q164 0 218 -179l29 152h120l-89 -462q-12 -94 -12 -104q0 -29 18 -52q17 -20 50 -20q102 0 194 98q151 166 151 411q0 249 -179 399q-169 143 -424 143q-322 0 -550 -237q-239 -249 -239 -626q0 -286 161 -460q174 -188 495 -188q276 0 537 130l31 -101 q-265 -131 -577 -131q-369 0 -564 204q-201 209 -201 543zM691 750q0 -95 40 -162q44 -76 134 -76q121 0 195 128q54 96 54 231q0 91 -44 148q-45 60 -129 60q-63 0 -123 -43q-66 -47 -100 -138q-27 -72 -27 -148z" />
<glyph unicode="A" horiz-adv-x="1304" vert-adv-y="2064" d="M24 0l551 1638h159l545 -1638h-159l-164 516h-613l-165 -516h-154zM384 642h533l-264 834z" />
<glyph unicode="B" horiz-adv-x="1341" vert-adv-y="2064" d="M176 0v1638h472q251 0 373 -84q163 -113 163 -319q0 -166 -114 -276q-67 -66 -175 -100q342 -78 342 -398q0 -243 -195 -372q-134 -89 -369 -89h-497zM323 127h309q224 0 323 66q132 85 132 270q0 195 -156 276q-96 51 -300 51h-308v-663zM323 912h235q193 0 294 37 q96 36 148 125q37 64 37 148q0 180 -144 250q-78 39 -246 39h-324v-599z" />
<glyph unicode="C" horiz-adv-x="1418" vert-adv-y="2064" d="M103 812q0 389 181 628q180 236 474 236q171 0 309 -87q207 -133 247 -393h-149q-41 143 -105 216q-122 136 -306 136q-216 0 -350 -184q-152 -212 -152 -546q0 -328 142 -535q62 -91 156 -143t207 -52q201 0 325 174q80 111 100 279h149q-23 -198 -119 -341 q-162 -240 -457 -240q-313 0 -499 276q-153 227 -153 576z" />
<glyph unicode="D" horiz-adv-x="1405" vert-adv-y="2064" d="M178 0v1638h411q199 0 325 -56q185 -82 288 -275q99 -186 99 -472q0 -438 -219 -657q-176 -178 -483 -178h-421zM324 127h276q295 0 422 181q130 185 130 525q0 392 -188 560q-131 118 -352 118h-288v-1384z" />
<glyph unicode="E" horiz-adv-x="1220" vert-adv-y="2064" d="M176 0v1638h945v-127h-798v-599h746v-127h-746v-658h806v-127h-953z" />
<glyph unicode="F" horiz-adv-x="1102" vert-adv-y="2064" d="M176 0v1638h878v-127h-731v-598h649v-127h-649v-786h-147z" />
<glyph unicode="G" horiz-adv-x="1502" vert-adv-y="2064" d="M103 814q0 387 181 626q180 236 477 236q174 0 314 -87q207 -127 253 -384h-150q-40 137 -109 211q-122 133 -314 133q-217 0 -351 -183q-152 -213 -152 -548q0 -328 142 -535q134 -195 368 -195q166 0 283 122q150 155 171 409q2 29 4 87h-459v127h594v-833h-123v287 q-66 -119 -130 -184q-141 -143 -347 -143q-313 0 -499 276q-153 228 -153 578z" />
<glyph unicode="H" horiz-adv-x="1448" vert-adv-y="2064" d="M176 0v1638h147v-715h801v715h147v-1638h-147v796h-801v-796h-147z" />
<glyph unicode="I" horiz-adv-x="500" vert-adv-y="2064" d="M176 0v1638h147v-1638h-147z" />
<glyph unicode="J" horiz-adv-x="703" vert-adv-y="2064" d="M12 -24v131q64 -19 125 -19q179 0 233 163q30 91 30 343v1044h146v-1078q0 -199 -18 -283q-67 -317 -390 -317q-58 0 -126 16z" />
<glyph unicode="K" horiz-adv-x="1305" vert-adv-y="2064" d="M176 0v1638h147v-829l774 829h169l-650 -696l676 -942h-165l-606 841l-198 -212v-629h-147z" />
<glyph unicode="L" horiz-adv-x="1126" vert-adv-y="2064" d="M176 0v1638h147v-1511h757v-127h-904z" />
<glyph unicode="M" horiz-adv-x="1698" vert-adv-y="2064" d="M176 0v1638h191l486 -1429l477 1429h192v-1638h-140v1404l-464 -1404h-130l-472 1394v-1394h-140z" />
<glyph unicode="N" horiz-adv-x="1446" vert-adv-y="2064" d="M176 0v1638h158l795 -1403v1403h139v-1638h-158l-794 1396v-1396h-140z" />
<glyph unicode="O" horiz-adv-x="1512" vert-adv-y="2064" d="M103 816q0 390 180 620q186 239 481 239q190 0 344 -119q162 -123 240 -346q61 -174 61 -395q0 -337 -147 -569q-88 -142 -225 -216q-127 -70 -283 -70q-324 0 -504 286q-147 232 -147 570zM252 824q0 -303 120 -506q70 -116 185 -180q91 -50 199 -50q150 0 270 96 q127 103 190 306q44 145 44 322q0 326 -138 530q-139 206 -373 206q-216 0 -357 -200q-140 -200 -140 -524z" />
<glyph unicode="P" horiz-adv-x="1258" vert-adv-y="2064" d="M176 0v1638h418q176 0 272 -31q137 -45 218 -160q75 -110 75 -273q0 -260 -193 -387q-136 -89 -389 -89h-254v-698h-147zM323 826h266q215 0 309 76q111 90 111 267q0 198 -138 287q-61 38 -149 50q-42 5 -140 5h-259v-685z" />
<glyph unicode="Q" horiz-adv-x="1512" vert-adv-y="2064" d="M103 820q0 381 180 616q183 239 473 239q292 0 472 -239q181 -242 181 -621q0 -414 -216 -660l182 -192l-83 -83l-184 196q-158 -116 -356 -116q-321 0 -502 286q-147 232 -147 574zM252 824q0 -303 120 -506q68 -116 185 -180q91 -50 199 -50q136 0 257 87l-186 198 l83 82l187 -198q163 213 163 559q0 318 -138 526q-136 206 -366 206q-223 0 -364 -200q-140 -201 -140 -524z" />
<glyph unicode="R" horiz-adv-x="1374" vert-adv-y="2064" d="M176 0v1638h532q146 0 233 -30q139 -48 212 -166q60 -96 60 -237q0 -205 -129 -328q-65 -60 -160 -86q115 -23 178 -97q44 -53 64 -167q12 -63 21 -184q11 -171 23 -237q13 -66 40 -106h-165q-24 43 -34 90q-11 41 -21 242q-11 180 -42 244q-48 102 -188 138 q-69 19 -211 19h-266v-733h-147zM323 857h336q205 0 290 66q114 91 114 276q0 171 -111 254q-78 58 -249 58h-380v-654z" />
<glyph unicode="S" horiz-adv-x="1242" vert-adv-y="2064" d="M82 460h140q20 -146 98 -237q114 -133 314 -133q168 0 265 89q105 96 105 252q0 164 -134 253q-67 44 -323 116q-186 52 -272 112q-171 119 -171 335q0 173 118 293q136 136 367 136q298 0 441 -210q61 -90 79 -228h-153q-22 130 -81 197q-99 113 -285 113 q-158 0 -249 -88q-90 -86 -90 -217q0 -140 103 -216q80 -60 264 -110q185 -52 236 -72q306 -125 306 -413q0 -199 -135 -331q-147 -141 -387 -141q-290 0 -438 185q-97 123 -118 315z" />
<glyph unicode="T" horiz-adv-x="1182" vert-adv-y="2064" d="M42 1511v127h1099v-127h-476v-1511h-147v1511h-476z" />
<glyph unicode="U" horiz-adv-x="1394" vert-adv-y="2064" d="M157 666v972h147v-977q0 -177 21 -267q37 -158 137 -231q102 -75 242 -75q132 0 228 69q101 72 136 229q23 99 23 276v976h146v-977q0 -235 -39 -349q-62 -178 -189 -263q-131 -89 -307 -89q-179 0 -313 89q-144 96 -199 293q-33 114 -33 324z" />
<glyph unicode="V" horiz-adv-x="1233" vert-adv-y="2064" d="M24 1638h160l436 -1451l436 1451h152l-507 -1638h-166z" />
<glyph unicode="W" horiz-adv-x="1804" vert-adv-y="2064" d="M30 1638h150l311 -1406l331 1406h163l334 -1406l312 1406h144l-378 -1638h-155l-341 1420l-338 -1420h-156z" />
<glyph unicode="X" horiz-adv-x="1206" vert-adv-y="2064" d="M24 0l498 842l-468 796h167l383 -677l392 677h158l-469 -796l496 -842h-169l-410 718l-416 -718h-162z" />
<glyph unicode="Y" horiz-adv-x="1220" vert-adv-y="2064" d="M-2 1638h169l447 -818l447 818h162l-539 -960v-678h-146v678z" />
<glyph unicode="Z" horiz-adv-x="1201" vert-adv-y="2064" d="M68 0v138l894 1373h-829v127h990v-134l-894 -1377h911v-127h-1072z" />
<glyph unicode="[" horiz-adv-x="607" vert-adv-y="2064" d="M167 -426v2064h319v-113h-196v-1838h196v-113h-319z" />
<glyph unicode="\" horiz-adv-x="842" vert-adv-y="2064" d="M88 1638h112l706 -2064h-116z" />
<glyph unicode="]" horiz-adv-x="607" vert-adv-y="2064" d="M121 -313h197v1838h-197v113h319v-2064h-319v113z" />
<glyph unicode="^" vert-adv-y="2064" d="M88 935l442 707h168l443 -707h-144l-385 605l-382 -605h-142z" />
<glyph unicode="_" vert-adv-y="2064" d="M82 -131h1064v-126h-1064v126z" />
<glyph unicode="`" vert-adv-y="2064" d="M354 1638h142l195 -328h-123z" />
<glyph unicode="a" horiz-adv-x="1076" vert-adv-y="2064" d="M100 290q0 178 135 275q102 75 289 94q80 7 254 12v107q0 274 -248 274q-238 0 -261 -270h-125q7 178 104 276q106 107 296 107q207 0 306 -133q48 -65 58 -174q5 -42 5 -168v-427q0 -102 9 -127q9 -33 51 -33q21 0 52 12v-107q-48 -20 -95 -20q-86 0 -116 73 q-17 41 -17 120v41q-144 -257 -377 -257q-126 0 -214 77q-106 92 -106 248zM235 294q0 -90 63 -155q60 -61 151 -61q107 0 189 76q82 74 116 193q24 86 24 157v68q-202 -9 -303 -31q-114 -25 -170 -81q-70 -70 -70 -166z" />
<glyph unicode="b" horiz-adv-x="1186" vert-adv-y="2064" d="M164 0v1638h135v-695q26 63 78 113q109 109 261 109q203 0 329 -164q123 -160 123 -436q0 -282 -131 -445q-125 -155 -319 -155q-167 0 -279 125q-43 48 -72 118v-208h-125zM294 564q0 -223 95 -360q87 -126 239 -126q148 0 235 127q92 136 92 354q0 219 -81 349 q-88 144 -252 144q-93 0 -172 -60q-156 -117 -156 -428z" />
<glyph unicode="c" horiz-adv-x="1054" vert-adv-y="2064" d="M96 566q0 249 109 414q123 185 353 185q190 0 305 -137q71 -84 96 -213h-138q-21 90 -60 140q-77 97 -204 97q-149 0 -235 -129q-92 -137 -92 -357q0 -222 89 -357q85 -131 238 -131q144 0 224 131q39 61 52 153h137q-12 -124 -78 -224q-116 -173 -335 -173 q-225 0 -346 175q-115 167 -115 426z" />
<glyph unicode="d" horiz-adv-x="1186" vert-adv-y="2064" d="M96 565q0 276 122 436q126 164 329 164q161 0 274 -121q43 -46 66 -101v695h135v-1638h-124v208q-108 -243 -352 -243q-193 0 -319 155q-131 163 -131 445zM230 562q0 -222 93 -357q87 -127 235 -127q152 0 240 126q95 138 95 358q0 232 -95 367q-88 123 -244 123 q-154 0 -242 -144q-82 -132 -82 -346z" />
<glyph unicode="e" horiz-adv-x="1089" vert-adv-y="2064" d="M96 566q0 268 131 435q129 164 325 164q158 0 274 -110q168 -159 169 -521h-765q4 -164 54 -271q88 -185 279 -185q206 0 285 253h130q-25 -117 -88 -204q-118 -162 -328 -162q-228 0 -353 181q-113 165 -113 420zM230 642h628q-6 144 -55 241q-45 89 -121 137 q-58 36 -130 36q-112 0 -197 -86q-103 -106 -125 -328z" />
<glyph unicode="f" horiz-adv-x="568" vert-adv-y="2064" d="M35 1018v112h164v180q0 183 35 248q65 117 203 117q47 0 119 -24v-123q-47 26 -106 26q-52 0 -85 -42q-30 -40 -30 -185v-197h197v-112h-197v-1018h-136v1018h-164z" />
<glyph unicode="g" horiz-adv-x="1164" vert-adv-y="2064" d="M96 602q0 269 130 418q124 145 312 145q234 0 332 -224v189h130v-970q0 -156 -17 -237q-34 -153 -149 -249q-120 -100 -288 -100q-181 0 -296 108q-87 82 -112 218h140q17 -82 65 -132q78 -81 208 -81q163 0 248 135q65 104 65 288v131q-26 -65 -73 -115 q-106 -112 -251 -112q-198 0 -323 162q-121 156 -121 426zM230 608q0 -204 77 -338q82 -143 237 -143q92 0 170 60q78 59 118 181q34 107 34 236q0 212 -91 333q-85 115 -233 115q-138 0 -223 -115q-89 -121 -89 -329z" />
<glyph unicode="h" horiz-adv-x="1141" vert-adv-y="2064" d="M164 0v1638h135v-685q115 212 337 212q133 0 226 -78q86 -73 110 -207q12 -64 12 -168v-712h-134v666q0 173 -32 256q-21 56 -75 92q-57 38 -132 38q-133 0 -221 -104q-62 -74 -80 -194q-11 -66 -11 -188v-566h-135z" />
<glyph unicode="i" horiz-adv-x="474" vert-adv-y="2064" d="M169 0v1130h135v-1130h-135zM169 1409v229h135v-229h-135z" />
<glyph unicode="j" horiz-adv-x="470" vert-adv-y="2064" d="M-10 -300q29 -7 53 -7q102 0 117 99q6 46 6 150v1188h134v-1183q0 -195 -36 -266q-54 -107 -200 -107q-38 0 -74 10v116zM166 1409v229h134v-229h-134z" />
<glyph unicode="k" horiz-adv-x="1068" vert-adv-y="2064" d="M164 0v1638h135v-1015l539 507h168l-452 -424l476 -706h-154l-416 617l-161 -153v-464h-135z" />
<glyph unicode="l" horiz-adv-x="474" vert-adv-y="2064" d="M169 0v1638h135v-1638h-135z" />
<glyph unicode="m" horiz-adv-x="1701" vert-adv-y="2064" d="M164 0v1130h128v-190q102 225 307 225q212 0 294 -237q111 237 324 237q125 0 212 -78q81 -73 105 -207q10 -65 10 -168v-712h-134v666q0 172 -29 256q-19 55 -69 92q-52 38 -119 38q-117 0 -192 -105q-53 -73 -70 -193q-8 -68 -8 -188v-566h-136v666q0 173 -29 256 q-19 55 -69 92q-52 38 -119 38q-118 0 -193 -105q-53 -75 -70 -193q-8 -66 -8 -188v-566h-135z" />
<glyph unicode="n" horiz-adv-x="1141" vert-adv-y="2064" d="M164 0v1130h128v-190q118 225 344 225q133 0 226 -78q86 -73 110 -207q12 -64 12 -168v-712h-134v666q0 173 -32 256q-21 56 -75 92q-57 38 -132 38q-133 0 -221 -104q-62 -74 -80 -194q-11 -66 -11 -188v-566h-135z" />
<glyph unicode="o" horiz-adv-x="1140" vert-adv-y="2064" d="M96 564q0 254 113 415q129 186 368 186q149 0 265 -91q111 -86 162 -245q40 -117 40 -264q0 -258 -119 -425q-126 -175 -355 -175t-355 175q-119 167 -119 424zM230 566q0 -222 94 -357q89 -131 246 -131t246 131q94 135 94 355q0 224 -96 359q-93 129 -249 129 q-147 0 -239 -129q-96 -137 -96 -357z" />
<glyph unicode="p" horiz-adv-x="1185" vert-adv-y="2064" d="M164 -426v1556h125v-199q28 75 83 131q101 103 266 103q202 0 323 -155q129 -165 129 -447q0 -274 -120 -435q-123 -163 -327 -163q-171 0 -278 119q-43 48 -66 103v-613h-135zM294 562q0 -226 95 -360q87 -124 236 -124q161 0 249 144q80 133 80 340q0 225 -92 362 q-89 128 -239 128q-93 0 -172 -60q-157 -121 -157 -430z" />
<glyph unicode="q" horiz-adv-x="1185" vert-adv-y="2064" d="M95 563q0 283 128 447q123 155 324 155q249 0 349 -234v199h125v-1556h-135v613q-26 -62 -77 -115q-105 -107 -267 -107q-205 0 -327 163q-120 161 -120 435zM229 564q0 -209 82 -342q86 -144 248 -144q149 0 237 124q96 135 96 357q0 233 -95 367q-90 126 -244 126 q-144 0 -230 -128q-94 -138 -94 -360z" />
<glyph unicode="r" horiz-adv-x="668" vert-adv-y="2064" d="M164 0v1130h128v-244q99 279 358 279h16v-141q-26 1 -41 1q-150 0 -242 -131q-60 -86 -77 -226q-7 -68 -7 -205v-463h-135z" />
<glyph unicode="s" horiz-adv-x="942" vert-adv-y="2064" d="M82 318h134q13 -94 62 -154q75 -86 204 -86q110 0 173 58q70 62 70 162q0 108 -94 166q-44 29 -223 77q-120 33 -188 81q-118 84 -118 231q0 125 88 213q97 99 262 99q210 0 315 -149q43 -62 56 -160h-134q-36 199 -232 199q-104 0 -165 -58q-59 -56 -59 -140 q0 -90 71 -141q50 -34 184 -72q196 -55 255 -100q117 -93 117 -245q0 -142 -98 -234q-104 -100 -281 -100q-206 0 -313 131q-70 84 -86 222z" />
<glyph unicode="t" horiz-adv-x="570" vert-adv-y="2064" d="M7 1018v112h169v213l111 147h24v-360h203v-112h-203v-725q0 -112 12 -145q21 -60 101 -60q37 0 90 14v-112q-63 -20 -117 -20q-145 0 -193 95q-28 53 -28 241v712h-169z" />
<glyph unicode="u" horiz-adv-x="1141" vert-adv-y="2064" d="M157 419v711h135v-666q0 -172 31 -255q21 -57 75 -93q57 -38 132 -38q135 0 221 104q63 75 81 195q10 66 10 187v566h135v-1130h-127v191q-118 -226 -345 -226q-133 0 -225 78q-86 73 -111 208q-12 65 -12 168z" />
<glyph unicode="v" horiz-adv-x="916" vert-adv-y="2064" d="M14 1130h144l312 -949l296 949h136l-363 -1130h-143z" />
<glyph unicode="w" horiz-adv-x="1454" vert-adv-y="2064" d="M24 1130h145l252 -938l234 938h148l237 -936l251 936h138l-319 -1130h-145l-238 924l-234 -924h-147z" />
<glyph unicode="x" horiz-adv-x="948" vert-adv-y="2064" d="M10 0l381 594l-353 536h164l267 -420l276 420h154l-351 -526l389 -604h-162l-307 485l-305 -485h-153z" />
<glyph unicode="y" horiz-adv-x="927" vert-adv-y="2064" d="M14 1130h146l319 -938l296 938h137l-432 -1304q-42 -126 -96 -184q-65 -68 -173 -68q-47 0 -97 18v115l17 -5q38 -10 68 -10q63 0 95 32q38 38 68 133l50 151z" />
<glyph unicode="z" horiz-adv-x="928" vert-adv-y="2064" d="M59 0v110l647 908h-602v112h767v-96l-654 -921h679v-113h-837z" />
<glyph unicode="{" horiz-adv-x="607" vert-adv-y="2064" d="M25 557v102q64 15 103 62q36 43 39 157v437q-1 171 66 244q68 81 219 79h34v-113h-25q-49 0 -96 -23q-43 -20 -64 -82q-9 -33 -11 -113v-435q0 -120 -34 -180q-30 -52 -102 -88q78 -39 112 -116q24 -56 24 -159v-448q4 -97 16 -115q34 -74 158 -79h22v-113h-35 q-162 0 -222 77q-61 73 -62 245v433q0 120 -42 170q-37 42 -100 58z" />
<glyph unicode="|" vert-adv-y="2064" d="M542 -409v2047h146v-2047h-146z" />
<glyph unicode="}" horiz-adv-x="607" vert-adv-y="2064" d="M121 -313h22q49 0 97 18q44 15 66 71q11 13 12 105v448q0 114 29 170q35 67 108 105q-78 39 -108 100q-29 63 -29 168v435q-1 92 -14 123q-34 89 -158 95h-25v113h34q152 1 221 -79q67 -72 66 -244v-437q1 -112 38 -157q40 -48 102 -62v-102q-61 -16 -98 -58 q-42 -51 -42 -170v-433q-2 -174 -63 -245q-60 -77 -223 -77h-35v113z" />
<glyph unicode="~" horiz-adv-x="1638" vert-adv-y="2064" d="M233 1507q47 91 96 148q95 111 225 111q98 0 287 -98q111 -58 150 -71q52 -18 96 -18q84 0 149 69q43 45 88 124l82 -63q-49 -96 -97 -153q-96 -109 -225 -109q-65 0 -155 39q-47 20 -136 66q-97 50 -135 63q-59 21 -108 21q-88 0 -154 -75q-38 -43 -80 -117z" />
<glyph unicode="&#xa0;" horiz-adv-x="475" vert-adv-y="2064" />
<glyph unicode="&#xa1;" horiz-adv-x="550" vert-adv-y="2064" d="M192 884v246h167v-246h-167zM202 95l33 624h81l32 -624v-521h-146v521z" />
<glyph unicode="&#xa2;" horiz-adv-x="1046" vert-adv-y="2064" d="M96 829q0 196 68 340q104 216 329 253v167h120v-165q120 -13 209 -86q118 -101 145 -262h-138q-38 200 -216 233v-963q73 14 131 69q80 82 97 210h137q-6 -62 -28 -123q-68 -182 -232 -248q-48 -18 -105 -24v-181h-120v184q-132 19 -223 104q-174 161 -174 492zM230 829 q0 -306 155 -428q47 -37 108 -53v958q-78 -21 -133 -76q-130 -131 -130 -401z" />
<glyph unicode="&#xa3;" horiz-adv-x="999" vert-adv-y="2064" d="M49 76q243 220 243 492q0 45 -10 98h-216v120h178q-20 36 -86 150q-91 158 -91 311q0 195 136 317q117 106 300 106q282 0 389 -218q49 -102 51 -236h-139q-4 116 -47 199q-73 139 -257 139q-134 0 -208 -82q-80 -88 -80 -216q0 -80 33 -154q24 -56 61 -123 q79 -141 98 -193h356v-120h-326q5 -41 5 -70q0 -228 -192 -426q88 63 155 63q46 0 90 -24q22 -12 89 -60q66 -48 120 -48q113 0 127 181h128q-8 -140 -64 -220q-70 -97 -196 -97q-62 0 -107 22q-31 14 -84 51q-85 58 -147 58q-77 0 -180 -67q-26 -16 -66 -46z" />
<glyph unicode="&#xa4;" horiz-adv-x="1638" vert-adv-y="2064" d="M156 1447l79 79l226 -225q169 132 359 132t355 -132l228 225l78 -79l-227 -224q128 -168 128 -354q0 -185 -127 -351l228 -226l-78 -80l-228 227q-164 -128 -354 -128q-182 0 -356 128l-227 -227l-77 80l222 226q-128 161 -128 353q0 181 128 349zM384 871 q0 -181 127 -309q129 -129 309 -129t308 129q127 128 127 307q0 187 -126 312q-131 129 -314 129q-175 0 -305 -129q-126 -129 -126 -310z" />
<glyph unicode="&#xa5;" horiz-adv-x="1220" vert-adv-y="2064" d="M56 1638h165l395 -720l392 720h157l-479 -853h320v-125h-323v-170h323v-125h-323v-365h-143v365h-324v125h324v170h-324v125h320z" />
<glyph unicode="&#xa6;" vert-adv-y="2064" d="M82 1770v126h1064v-126h-1064z" />
<glyph unicode="&#xa7;" horiz-adv-x="1158" vert-adv-y="2064" d="M115 749q0 175 113 283q48 47 103 67q-99 111 -99 241q0 166 120 263q90 72 222 72q214 0 307 -159q50 -88 51 -221h-128q-2 53 -14 97q-22 80 -83 125q-57 39 -136 39q-83 0 -139 -46q-70 -58 -70 -164q0 -85 47 -146q37 -48 165 -137q262 -182 339 -254 q130 -124 130 -288q0 -169 -113 -282q-43 -42 -106 -72q46 -46 69 -82q50 -78 50 -182q0 -153 -108 -256q-93 -90 -251 -90q-162 0 -261 99q-103 103 -114 309h131q14 -287 248 -287q108 0 168 71q54 63 54 148q0 75 -46 143q-38 58 -193 170q-37 28 -201 142 q-129 91 -192 180q-63 88 -63 217zM244 760q0 -101 73 -183q45 -53 252 -200q128 -94 179 -138q55 26 96 72q68 77 68 187q0 122 -108 224q-79 75 -316 239q-60 42 -85 66q-159 -97 -159 -267z" />
<glyph unicode="&#xa8;" vert-adv-y="2064" d="M368 1327v229h138v-229h-138zM721 1327v229h138v-229h-138z" />
<glyph unicode="&#xa9;" horiz-adv-x="1720" vert-adv-y="2064" d="M82 815q0 249 121 462q111 199 303 306q170 93 366 93q221 0 412 -138q176 -126 271 -333q83 -184 83 -389q0 -348 -223 -599q-228 -257 -557 -257q-323 0 -548 251q-104 114 -164 265q-64 166 -64 339zM187 818q0 -213 102 -400q102 -185 274 -280q138 -76 295 -76 q284 0 481 226q193 222 193 527q0 318 -196 540q-196 221 -480 221q-183 0 -346 -112q-158 -107 -244 -290q-79 -170 -79 -356zM456 815q0 237 114 384q113 146 298 146q188 0 291 -146q48 -70 63 -162h-117q-55 206 -240 206q-125 0 -203 -105q-90 -124 -90 -321 q0 -192 84 -312q78 -111 212 -111q117 0 188 98q47 66 59 168h116q-15 -131 -75 -220q-104 -148 -290 -148q-198 0 -314 170q-96 140 -96 353z" />
<glyph unicode="&#xaa;" horiz-adv-x="645" vert-adv-y="2064" d="M48 835q0 111 85 172q64 45 178 57q47 4 144 8v50q0 150 -136 150q-91 0 -127 -70q-12 -26 -19 -90h-99q5 113 59 176q67 75 193 75q154 0 210 -109q24 -48 24 -184v-252q0 -54 3 -64q3 -17 19 -17q13 0 46 11v-89q-35 -15 -69 -15q-85 0 -89 117q-84 -130 -217 -130 q-81 0 -137 48q-68 58 -68 156zM154 838q0 -50 33 -83t83 -33q96 0 149 96q36 64 36 143v28q-114 -6 -167 -18q-134 -29 -134 -133z" />
<glyph unicode="&#xab;" horiz-adv-x="840" vert-adv-y="2064" d="M108 539v138l266 299v-160l-182 -209l182 -204v-165zM418 536v138l265 300v-158l-181 -210l181 -206v-161z" />
<glyph unicode="&#xac;" vert-adv-y="2064" d="M82 545v128h1064v-673h-142v545h-922z" />
<glyph unicode="&#xad;" horiz-adv-x="483" vert-adv-y="2064" d="M10 545v127h464v-127h-464z" />
<glyph unicode="&#xae;" horiz-adv-x="1720" vert-adv-y="2064" d="M82 815q0 249 121 462q111 199 303 306q170 93 366 93q221 0 412 -138q176 -126 271 -333q83 -184 83 -389q0 -348 -223 -599q-228 -257 -557 -257q-323 0 -548 251q-104 114 -164 265q-64 166 -64 339zM187 817q0 -213 102 -399q102 -185 274 -280q138 -76 295 -76 q284 0 481 226q193 221 193 527q0 317 -196 539q-196 220 -480 220q-183 0 -346 -111q-158 -107 -244 -291q-79 -169 -79 -355zM536 319v1003h338q154 0 234 -67q87 -74 87 -205q0 -172 -153 -247q50 -15 87 -60q39 -54 49 -209q8 -104 15 -142q8 -39 31 -73h-128 q-16 27 -23 51q-10 38 -15 138q-6 121 -25 158q-31 64 -122 80q-43 9 -113 9h-146v-436h-116zM652 853h192q121 0 169 37q66 51 66 156q0 98 -64 142q-45 32 -144 32h-219v-367z" />
<glyph unicode="&#xaf;" vert-adv-y="2064" d="M82 1770v126h1064v-126h-1064z" />
<glyph unicode="&#xb0;" vert-adv-y="2064" d="M276 1313q0 134 98 228q102 97 240 97q140 0 239 -96q100 -97 100 -233q0 -137 -99 -234t-238 -97q-142 0 -242 97q-98 97 -98 238zM380 1312q0 -101 69 -170q68 -69 165 -69q98 0 166 69t68 166q0 98 -68 166q-71 69 -166 69q-96 0 -165 -69t-69 -162z" />
<glyph unicode="&#xb1;" vert-adv-y="2064" d="M82 168v126h1064v-126h-1064zM82 838v126h464v434h136v-434h464v-126h-464v-434h-136v434h-464z" />
<glyph unicode="&#xb2;" horiz-adv-x="685" vert-adv-y="2064" d="M56 1375q8 87 34 139q72 147 248 147q135 0 213 -90q67 -78 67 -189q0 -133 -97 -231q-43 -45 -187 -147q-110 -79 -138 -160q-15 -44 -16 -89h431v-100h-552q0 79 18 150q25 99 84 169q42 51 122 108q118 82 155 125q68 81 68 180q0 75 -39 121q-47 56 -130 56 q-91 0 -139 -71q-29 -42 -31 -118h-111z" />
<glyph unicode="&#xb3;" horiz-adv-x="694" vert-adv-y="2064" d="M49 924v23h103q2 -215 179 -215q82 0 132 53q53 56 53 149q0 106 -70 159q-50 40 -123 40q-13 0 -54 -4v97h43q70 0 113 34q63 49 63 139q0 77 -46 121q-41 40 -110 40q-162 0 -162 -180h-102q5 119 52 180q72 97 216 97q119 0 192 -71q70 -69 70 -181q0 -151 -128 -218 q155 -64 155 -250q0 -138 -85 -224q-77 -78 -208 -78q-174 0 -246 131q-37 66 -37 158z" />
<glyph unicode="&#xb4;" vert-adv-y="2064" d="M538 1310l195 328h142l-214 -328h-123z" />
<glyph unicode="&#xb5;" horiz-adv-x="1141" vert-adv-y="2064" d="M157 -426v1556h135v-666q0 -172 31 -255q21 -57 75 -93q57 -38 132 -38q135 0 221 104q63 75 81 195q10 66 10 187v566h135v-1130h-127v191q-118 -226 -340 -226q-124 0 -218 76v-467h-135z" />
<glyph unicode="&#xb6;" horiz-adv-x="1197" vert-adv-y="2064" d="M47 1196q0 150 69 264q110 178 382 178h528v-108h-138v-1777h-120v1777h-191v-1777h-120v1015h-32q-125 0 -215 65q-77 54 -119 149q-44 98 -44 214z" />
<glyph unicode="&#xb7;" horiz-adv-x="476" vert-adv-y="2064" d="M157 484v246h162v-246h-162z" />
<glyph unicode="&#xb8;" vert-adv-y="2064" d="M458 -343h104q10 -49 68 -49q40 0 64 26q22 26 22 72t-24 72t-62 26q-50 0 -64 -37h-104l90 233h90l-48 -130q25 8 50 8q60 0 110 -33q66 -44 66 -132q0 -77 -48 -126q-51 -53 -141 -53q-99 0 -147 63q-21 27 -26 60z" />
<glyph unicode="&#xb9;" horiz-adv-x="475" vert-adv-y="2064" d="M41 1373v90q158 -5 173 175h88v-983h-110v760q-29 -25 -66 -35q-20 -6 -85 -7z" />
<glyph unicode="&#xba;" horiz-adv-x="684" vert-adv-y="2064" d="M46 996q0 155 69 253q82 114 232 114q140 0 222 -114q71 -98 71 -251q0 -158 -75 -259q-78 -108 -222 -108q-145 0 -223 108q-74 101 -74 257zM151 997q0 -126 53 -203q50 -72 139 -72q88 0 138 72q53 77 53 202q0 128 -55 204q-52 72 -139 72q-83 0 -134 -72 q-55 -77 -55 -203z" />
<glyph unicode="&#xbb;" horiz-adv-x="840" vert-adv-y="2064" d="M157 239v157l181 210l-181 208v159l265 -296v-138zM464 238v158l183 209l-183 205v166l268 -303v-137z" />
<glyph unicode="&#xbc;" horiz-adv-x="1398" vert-adv-y="2064" d="M41 1373v90q159 -5 174 175h89v-983h-111v760q-29 -25 -67 -35q-20 -6 -85 -7zM233 0l705 1638h113l-702 -1638h-116zM774 260v90l380 633h87v-635h116v-88h-116v-260h-96v260h-371zM868 348h277v445z" />
<glyph unicode="&#xbd;" horiz-adv-x="1561" vert-adv-y="2064" d="M41 1373v90q159 -5 174 175h89v-983h-111v760q-29 -25 -67 -35q-20 -6 -85 -7zM227 0l705 1638h113l-702 -1638h-116zM932 719q8 86 34 139q72 146 248 146q136 0 213 -90q67 -78 67 -188q0 -133 -97 -232q-43 -44 -187 -145q-110 -81 -137 -161q-16 -43 -17 -88h431 v-100h-551q-1 114 38 215q39 93 131 169q33 25 139 101q63 43 104 111q34 60 34 134t-38 121q-47 55 -131 55q-91 0 -139 -71q-29 -42 -31 -116h-111z" />
<glyph unicode="&#xbe;" horiz-adv-x="1644" vert-adv-y="2064" d="M49 924v23h103q2 -215 179 -215q82 0 132 53q53 56 53 149q0 106 -70 159q-50 40 -123 40q-13 0 -54 -4v97h43q70 0 113 34q63 49 63 139q0 77 -46 121q-41 40 -110 40q-162 0 -162 -180h-102q5 119 52 180q72 97 216 97q119 0 192 -71q70 -69 70 -181q0 -151 -128 -218 q155 -64 155 -250q0 -138 -85 -224q-77 -78 -208 -78q-174 0 -246 131q-37 66 -37 158zM479 0l705 1638h113l-702 -1638h-116zM1020 260v90l380 633h87v-635h116v-88h-116v-260h-96v260h-371zM1114 348h277v445z" />
<glyph unicode="&#xbf;" horiz-adv-x="1048" vert-adv-y="2064" d="M116 -49q0 144 78 255q32 46 152 173q61 66 82 107q34 72 35 236h135q0 -162 -28 -237q-22 -64 -90 -141q-18 -20 -104 -115q-119 -129 -119 -269q0 -110 63 -187q74 -87 204 -87q136 0 218 99q74 93 82 282h125q-3 -191 -66 -303q-62 -113 -181 -168q-80 -39 -180 -39 q-190 0 -302 119q-104 108 -104 275zM449 884v246h167v-246h-167z" />
<glyph unicode="&#xc0;" horiz-adv-x="1304" vert-adv-y="2064" d="M24 0l551 1638h159l545 -1638h-159l-164 516h-613l-165 -516h-154zM378 2084h151l217 -309h-126zM384 642h533l-264 834z" />
<glyph unicode="&#xc1;" horiz-adv-x="1304" vert-adv-y="2064" d="M24 0l551 1638h159l545 -1638h-159l-164 516h-613l-165 -516h-154zM384 642h533l-264 834zM557 1775l216 309h152l-242 -309h-126z" />
<glyph unicode="&#xc2;" horiz-adv-x="1304" vert-adv-y="2064" d="M24 0l551 1638h159l545 -1638h-159l-164 516h-613l-165 -516h-154zM342 1770l240 311h136l242 -311h-135l-178 227l-181 -227h-124zM384 642h533l-264 834z" />
<glyph unicode="&#xc3;" horiz-adv-x="1304" vert-adv-y="2064" d="M24 0l551 1638h159l545 -1638h-159l-164 516h-613l-165 -516h-154zM325 1811q11 72 36 122q57 111 155 111q71 0 152 -60q77 -58 111 -58q74 0 99 118h99q-13 -84 -42 -136q-57 -96 -149 -96q-65 0 -156 67q-70 51 -110 51q-76 0 -99 -119h-96zM384 642h533l-264 834z " />
<glyph unicode="&#xc4;" horiz-adv-x="1304" vert-adv-y="2064" d="M24 0l551 1638h159l545 -1638h-159l-164 516h-613l-165 -516h-154zM384 642h533l-264 834zM389 1786v229h143v-229h-143zM770 1786v229h143v-229h-143z" />
<glyph unicode="&#xc5;" horiz-adv-x="1304" vert-adv-y="2064" d="M24 0l551 1638h159l545 -1638h-159l-164 516h-613l-165 -516h-154zM384 642h533l-264 834zM426 1942q0 96 67 160q66 64 160 64q89 0 155 -65q65 -66 65 -159q0 -90 -64 -155q-66 -67 -160 -67q-93 0 -158 64q-65 66 -65 158zM525 1942q0 -54 37 -93q37 -38 89 -38 q54 0 91 39q36 38 36 92q0 55 -37 92q-38 38 -88 38q-54 0 -90 -37q-38 -38 -38 -93z" />
<glyph unicode="&#xc6;" horiz-adv-x="1792" vert-adv-y="2064" d="M-17 0l713 1638h998v-127h-699v-599h648v-127h-648v-658h708v-127h-855v516h-488l-218 -516h-159zM413 642h435v869h-68z" />
<glyph unicode="&#xc7;" horiz-adv-x="1418" vert-adv-y="2064" d="M103 814q0 387 181 626q180 236 474 236q171 0 309 -87q207 -133 247 -393h-149q-41 143 -105 216q-122 136 -306 136q-216 0 -350 -184q-152 -212 -152 -546q0 -328 142 -535q62 -91 156 -143t207 -52q201 0 325 174q80 111 100 279h149q-23 -198 -119 -341 q-83 -122 -210 -184q-112 -56 -238 -56q-12 0 -38 2l-38 -92q25 10 50 10q71 0 118 -32q69 -48 69 -135q0 -78 -49 -128q-53 -53 -146 -53q-106 0 -156 64q-23 27 -28 61h110q11 -49 69 -49q86 0 86 98q0 46 -24 72t-62 26q-48 0 -65 -37h-104l79 205q-156 34 -271 138 q-261 240 -261 704z" />
<glyph unicode="&#xc8;" horiz-adv-x="1220" vert-adv-y="2064" d="M176 0v1638h945v-127h-798v-599h746v-127h-746v-658h806v-127h-953zM337 2084h151l217 -309h-126z" />
<glyph unicode="&#xc9;" horiz-adv-x="1220" vert-adv-y="2064" d="M176 0v1638h945v-127h-798v-599h746v-127h-746v-658h806v-127h-953zM516 1775l216 309h152l-242 -309h-126z" />
<glyph unicode="&#xca;" horiz-adv-x="1220" vert-adv-y="2064" d="M176 0v1638h945v-127h-798v-599h746v-127h-746v-658h806v-127h-953zM301 1770l240 311h136l242 -311h-135l-178 227l-181 -227h-124z" />
<glyph unicode="&#xcb;" horiz-adv-x="1220" vert-adv-y="2064" d="M176 0v1638h945v-127h-798v-599h746v-127h-746v-658h806v-127h-953zM348 1786v229h143v-229h-143zM729 1786v229h143v-229h-143z" />
<glyph unicode="&#xcc;" horiz-adv-x="504" vert-adv-y="2064" d="M-21 2084h151l217 -309h-126zM178 0v1638h147v-1638h-147z" />
<glyph unicode="&#xcd;" horiz-adv-x="504" vert-adv-y="2064" d="M158 1775l216 309h152l-242 -309h-126zM178 0v1638h147v-1638h-147z" />
<glyph unicode="&#xce;" horiz-adv-x="504" vert-adv-y="2064" d="M-58 1770l240 311h136l242 -311h-135l-178 227l-181 -227h-124zM177 0v1638h147v-1638h-147z" />
<glyph unicode="&#xcf;" horiz-adv-x="504" vert-adv-y="2064" d="M35 1786v229h143v-229h-143zM178 0v1638h147v-1638h-147zM327 1786v229h143v-229h-143z" />
<glyph unicode="&#xd0;" horiz-adv-x="1405" vert-adv-y="2064" d="M0 785v127h176v726h413q199 0 327 -56q184 -82 288 -276q98 -185 98 -471q0 -437 -220 -657q-175 -178 -483 -178h-423v785h-176zM323 127h277q296 0 424 181q129 186 129 525q0 392 -189 560q-131 118 -352 118h-289v-599h387v-127h-387v-658z" />
<glyph unicode="&#xd1;" horiz-adv-x="1446" vert-adv-y="2064" d="M176 0v1638h158l795 -1403v1403h139v-1638h-158l-794 1396v-1396h-140zM396 1811q11 72 36 122q57 111 155 111q71 0 152 -60q77 -58 111 -58q74 0 99 118h99q-13 -84 -42 -136q-57 -96 -149 -96q-65 0 -156 67q-70 51 -110 51q-76 0 -99 -119h-96z" />
<glyph unicode="&#xd2;" horiz-adv-x="1512" vert-adv-y="2064" d="M103 816q0 390 180 620q186 239 481 239q190 0 344 -119q162 -123 240 -346q61 -174 61 -395q0 -337 -147 -569q-88 -142 -225 -216q-127 -70 -283 -70q-324 0 -504 286q-147 232 -147 570zM252 824q0 -303 120 -506q70 -116 185 -180q91 -50 199 -50q150 0 270 96 q127 103 190 306q44 145 44 322q0 326 -138 530q-139 206 -373 206q-216 0 -357 -200q-140 -200 -140 -524zM483 2084h151l217 -309h-126z" />
<glyph unicode="&#xd3;" horiz-adv-x="1512" vert-adv-y="2064" d="M103 816q0 390 180 620q186 239 481 239q190 0 344 -119q162 -123 240 -346q61 -174 61 -395q0 -337 -147 -569q-88 -142 -225 -216q-127 -70 -283 -70q-324 0 -504 286q-147 232 -147 570zM252 824q0 -303 120 -506q70 -116 185 -180q91 -50 199 -50q150 0 270 96 q127 103 190 306q44 145 44 322q0 326 -138 530q-139 206 -373 206q-216 0 -357 -200q-140 -200 -140 -524zM662 1775l216 309h152l-242 -309h-126z" />
<glyph unicode="&#xd4;" horiz-adv-x="1512" vert-adv-y="2064" d="M103 816q0 390 180 620q186 239 481 239q190 0 344 -119q162 -123 240 -346q61 -174 61 -395q0 -337 -147 -569q-88 -142 -225 -216q-127 -70 -283 -70q-324 0 -504 286q-147 232 -147 570zM252 824q0 -303 120 -506q70 -116 185 -180q91 -50 199 -50q150 0 270 96 q127 103 190 306q44 145 44 322q0 326 -138 530q-139 206 -373 206q-216 0 -357 -200q-140 -200 -140 -524zM446 1770l240 311h136l242 -311h-135l-178 227l-181 -227h-124z" />
<glyph unicode="&#xd5;" horiz-adv-x="1512" vert-adv-y="2064" d="M103 816q0 390 180 620q186 239 481 239q190 0 344 -119q162 -123 240 -346q61 -174 61 -395q0 -337 -147 -569q-88 -142 -225 -216q-127 -70 -283 -70q-324 0 -504 286q-147 232 -147 570zM252 824q0 -303 120 -506q70 -116 185 -180q91 -50 199 -50q150 0 270 96 q127 103 190 306q44 145 44 322q0 326 -138 530q-139 206 -373 206q-216 0 -357 -200q-140 -200 -140 -524zM429 1811q11 72 36 122q57 111 155 111q71 0 152 -60q77 -58 111 -58q74 0 99 118h99q-13 -84 -42 -136q-57 -96 -149 -96q-65 0 -156 67q-70 51 -110 51 q-76 0 -99 -119h-96z" />
<glyph unicode="&#xd6;" horiz-adv-x="1512" vert-adv-y="2064" d="M103 816q0 390 180 620q186 239 481 239q190 0 344 -119q162 -123 240 -346q61 -174 61 -395q0 -337 -147 -569q-88 -142 -225 -216q-127 -70 -283 -70q-324 0 -504 286q-147 232 -147 570zM252 824q0 -303 120 -506q70 -116 185 -180q91 -50 199 -50q150 0 270 96 q127 103 190 306q44 145 44 322q0 326 -138 530q-139 206 -373 206q-216 0 -357 -200q-140 -200 -140 -524zM497 1786v229h143v-229h-143zM878 1786v229h143v-229h-143z" />
<glyph unicode="&#xd7;" vert-adv-y="2064" d="M193 496l333 331l-333 332l89 89l332 -331l333 331l89 -89l-333 -332l333 -331l-89 -89l-333 331l-332 -331z" />
<glyph unicode="&#xd8;" horiz-adv-x="1512" vert-adv-y="2064" d="M103 818q0 384 180 620q183 238 472 238q207 0 372 -134l81 134h129l-129 -216q201 -250 201 -644q0 -338 -147 -570q-88 -140 -225 -216q-127 -70 -281 -70q-212 0 -371 130l-78 -130h-132l127 213q-199 245 -199 645zM252 824q0 -321 138 -532l655 1141 q-127 115 -290 115q-222 0 -363 -200q-140 -201 -140 -524zM468 202q131 -113 289 -113q149 0 269 96q128 103 190 305q44 145 44 327q0 315 -139 526z" />
<glyph unicode="&#xd9;" horiz-adv-x="1394" vert-adv-y="2064" d="M157 666v972h147v-977q0 -177 21 -267q37 -158 137 -231q102 -75 242 -75q132 0 228 69q101 72 136 229q23 99 23 276v976h146v-977q0 -235 -39 -349q-62 -178 -189 -263q-131 -89 -307 -89q-179 0 -313 89q-144 96 -199 293q-33 114 -33 324zM424 2084h151l217 -309 h-126z" />
<glyph unicode="&#xda;" horiz-adv-x="1394" vert-adv-y="2064" d="M157 666v972h147v-977q0 -177 21 -267q37 -158 137 -231q102 -75 242 -75q132 0 228 69q101 72 136 229q23 99 23 276v976h146v-977q0 -235 -39 -349q-62 -178 -189 -263q-131 -89 -307 -89q-179 0 -313 89q-144 96 -199 293q-33 114 -33 324zM603 1775l216 309h152 l-242 -309h-126z" />
<glyph unicode="&#xdb;" horiz-adv-x="1394" vert-adv-y="2064" d="M157 666v972h147v-977q0 -177 21 -267q37 -158 137 -231q102 -75 242 -75q132 0 228 69q101 72 136 229q23 99 23 276v976h146v-977q0 -235 -39 -349q-62 -178 -189 -263q-131 -89 -307 -89q-179 0 -313 89q-144 96 -199 293q-33 114 -33 324zM389 1770l240 311h136 l242 -311h-135l-178 227l-181 -227h-124z" />
<glyph unicode="&#xdc;" horiz-adv-x="1394" vert-adv-y="2064" d="M157 666v972h147v-977q0 -177 21 -267q37 -158 137 -231q102 -75 242 -75q132 0 228 69q101 72 136 229q23 99 23 276v976h146v-977q0 -235 -39 -349q-62 -178 -189 -263q-131 -89 -307 -89q-179 0 -313 89q-144 96 -199 293q-33 114 -33 324zM436 1786v229h143v-229 h-143zM817 1786v229h143v-229h-143z" />
<glyph unicode="&#xdd;" horiz-adv-x="1220" vert-adv-y="2064" d="M-2 1638h169l447 -818l447 818h162l-539 -960v-678h-146v678zM515 1775l216 309h152l-242 -309h-126z" />
<glyph unicode="&#xde;" horiz-adv-x="1214" vert-adv-y="2064" d="M176 0v1638h147v-328h222q176 0 272 -31q137 -44 217 -159q76 -111 76 -274q0 -259 -193 -386q-136 -89 -389 -89h-205v-371h-147zM323 498h217q215 0 308 77q112 90 112 267q0 197 -139 286q-60 38 -148 50q-42 5 -140 5h-210v-685z" />
<glyph unicode="&#xdf;" horiz-adv-x="1082" vert-adv-y="2064" d="M10 1018v112h151q2 179 23 260q40 158 156 231q85 54 195 54q150 0 249 -92q98 -91 98 -222q0 -79 -42 -163q-13 -28 -83 -124q-59 -82 -59 -139q0 -47 29 -103q18 -34 81 -101q82 -90 120 -153q61 -104 61 -224q0 -193 -150 -301q-107 -77 -264 -77q-77 0 -144 24v121 q72 -32 145 -32q119 0 192 65q84 74 84 198q0 86 -44 169q-23 43 -104 141q-69 86 -96 137q-31 60 -31 119q0 82 87 215q78 120 78 210q0 89 -53 151q-59 68 -163 68q-135 0 -195 -127q-36 -75 -36 -302v-1133h-134v1018h-151z" />
<glyph unicode="&#xe0;" horiz-adv-x="1076" vert-adv-y="2064" d="M100 290q0 178 135 275q102 75 289 94q80 7 254 12v107q0 274 -248 274q-238 0 -261 -270h-125q7 178 104 276q106 107 296 107q207 0 306 -133q48 -65 58 -174q5 -42 5 -168v-427q0 -102 9 -127q9 -33 51 -33q21 0 52 12v-107q-48 -20 -95 -20q-86 0 -116 73 q-17 41 -17 120v41q-144 -257 -377 -257q-126 0 -214 77q-106 92 -106 248zM235 294q0 -90 63 -155q60 -61 151 -61q107 0 189 76q82 74 116 193q24 86 24 157v68q-202 -9 -303 -31q-114 -25 -170 -81q-70 -70 -70 -166zM278 1638h142l195 -328h-123z" />
<glyph unicode="&#xe1;" horiz-adv-x="1076" vert-adv-y="2064" d="M100 290q0 178 135 275q102 75 289 94q80 7 254 12v107q0 274 -248 274q-238 0 -261 -270h-125q7 178 104 276q106 107 296 107q207 0 306 -133q48 -65 58 -174q5 -42 5 -168v-427q0 -102 9 -127q9 -33 51 -33q21 0 52 12v-107q-48 -20 -95 -20q-86 0 -116 73 q-17 41 -17 120v41q-144 -257 -377 -257q-126 0 -214 77q-106 92 -106 248zM235 294q0 -90 63 -155q60 -61 151 -61q107 0 189 76q82 74 116 193q24 86 24 157v68q-202 -9 -303 -31q-114 -25 -170 -81q-70 -70 -70 -166zM462 1310l195 328h142l-214 -328h-123z" />
<glyph unicode="&#xe2;" horiz-adv-x="1076" vert-adv-y="2064" d="M100 290q0 178 135 275q102 75 289 94q80 7 254 12v107q0 274 -248 274q-238 0 -261 -270h-125q7 178 104 276q106 107 296 107q207 0 306 -133q48 -65 58 -174q5 -42 5 -168v-427q0 -102 9 -127q9 -33 51 -33q21 0 52 12v-107q-48 -20 -95 -20q-86 0 -116 73 q-17 41 -17 120v41q-144 -257 -377 -257q-126 0 -214 77q-106 92 -106 248zM235 294q0 -90 63 -155q60 -61 151 -61q107 0 189 76q82 74 116 193q24 86 24 157v68q-202 -9 -303 -31q-114 -25 -170 -81q-70 -70 -70 -166zM265 1310l206 328h132l209 -328h-130l-148 237 l-152 -237h-117z" />
<glyph unicode="&#xe3;" horiz-adv-x="1076" vert-adv-y="2064" d="M100 290q0 178 135 275q102 75 289 94q80 7 254 12v107q0 274 -248 274q-238 0 -261 -270h-125q7 178 104 276q106 107 296 107q207 0 306 -133q48 -65 58 -174q5 -42 5 -168v-427q0 -102 9 -127q9 -33 51 -33q21 0 52 12v-107q-48 -20 -95 -20q-86 0 -116 73 q-17 41 -17 120v41q-144 -257 -377 -257q-126 0 -214 77q-106 92 -106 248zM225 1336q9 78 34 133q55 121 156 121q70 0 149 -82q65 -66 102 -66q71 0 95 140h91q-13 -92 -42 -149q-53 -106 -142 -106q-65 0 -153 88q-66 66 -107 66q-75 0 -95 -145h-88zM235 294 q0 -90 63 -155q60 -61 151 -61q107 0 189 76q82 74 116 193q24 86 24 157v68q-202 -9 -303 -31q-114 -25 -170 -81q-70 -70 -70 -166z" />
<glyph unicode="&#xe4;" horiz-adv-x="1076" vert-adv-y="2064" d="M100 290q0 178 135 275q102 75 289 94q80 7 254 12v107q0 274 -248 274q-238 0 -261 -270h-125q7 178 104 276q106 107 296 107q207 0 306 -133q48 -65 58 -174q5 -42 5 -168v-427q0 -102 9 -127q9 -33 51 -33q21 0 52 12v-107q-48 -20 -95 -20q-86 0 -116 73 q-17 41 -17 120v41q-144 -257 -377 -257q-126 0 -214 77q-106 92 -106 248zM235 294q0 -90 63 -155q60 -61 151 -61q107 0 189 76q82 74 116 193q24 86 24 157v68q-202 -9 -303 -31q-114 -25 -170 -81q-70 -70 -70 -166zM292 1327v229h138v-229h-138zM645 1327v229h138v-229 h-138z" />
<glyph unicode="&#xe5;" horiz-adv-x="1076" vert-adv-y="2064" d="M100 290q0 178 135 275q102 75 289 94q80 7 254 12v107q0 274 -248 274q-238 0 -261 -270h-125q7 178 104 276q106 107 296 107q207 0 306 -133q48 -65 58 -174q5 -42 5 -168v-427q0 -102 9 -127q9 -33 51 -33q21 0 52 12v-107q-48 -20 -95 -20q-86 0 -116 73 q-17 41 -17 120v41q-144 -257 -377 -257q-126 0 -214 77q-106 92 -106 248zM235 294q0 -90 63 -155q60 -61 151 -61q107 0 189 76q82 74 116 193q24 86 24 157v68q-202 -9 -303 -31q-114 -25 -170 -81q-70 -70 -70 -166zM316 1499q0 95 66 158q66 64 159 64q89 0 153 -65 q65 -65 65 -157q0 -90 -63 -155q-65 -66 -159 -66q-92 0 -156 65q-65 65 -65 156zM416 1499q0 -54 36 -93q35 -38 86 -38q52 0 88 40q35 37 35 90q0 56 -36 93q-36 39 -88 39q-49 0 -85 -38t-36 -93z" />
<glyph unicode="&#xe6;" horiz-adv-x="1750" vert-adv-y="2064" d="M100 288q0 172 134 264q101 70 290 83q86 6 254 7v103q0 148 -62 222q-70 85 -202 85q-148 0 -204 -105q-33 -60 -41 -165h-125q7 177 97 278q95 105 282 105q249 0 340 -207q139 207 351 207q155 0 272 -109q166 -160 168 -522h-764q4 -167 54 -271q88 -185 279 -185 q205 0 284 253h131q-25 -117 -88 -204q-118 -162 -326 -162q-287 0 -404 312q-32 -75 -76 -134q-133 -178 -324 -178q-126 0 -214 77q-106 92 -106 246zM235 289q0 -85 63 -150q60 -61 151 -61q107 0 189 76q82 74 116 193q24 86 24 157v30q-232 -5 -303 -18 q-115 -22 -171 -73q-69 -64 -69 -154zM890 642h628q-7 144 -55 241q-45 89 -123 137q-56 36 -128 36q-113 0 -197 -86q-104 -106 -125 -328z" />
<glyph unicode="&#xe7;" horiz-adv-x="1054" vert-adv-y="2064" d="M96 566q0 250 109 414q123 185 353 185q190 0 305 -137q71 -84 96 -213h-138q-21 90 -60 140q-77 97 -204 97q-149 0 -235 -128q-92 -138 -92 -356q0 -224 89 -358q85 -131 238 -131q144 0 224 130q39 62 52 153h137q-12 -168 -126 -283q-114 -113 -286 -113l-34 -96 q24 8 48 8q60 0 108 -33q65 -44 65 -132q0 -78 -47 -126q-49 -53 -138 -53q-98 0 -145 63q-19 26 -24 60h102q9 -49 67 -49q84 0 84 98q0 46 -24 72q-21 26 -61 26q-49 0 -62 -37h-102l78 207q-118 20 -204 102q-173 159 -173 490z" />
<glyph unicode="&#xe8;" horiz-adv-x="1089" vert-adv-y="2064" d="M96 566q0 268 131 435q129 164 325 164q158 0 274 -110q168 -159 169 -521h-765q4 -164 54 -271q88 -185 279 -185q206 0 285 253h130q-25 -117 -88 -204q-118 -162 -328 -162q-228 0 -353 181q-113 165 -113 420zM230 642h628q-6 144 -55 241q-45 89 -121 137 q-58 36 -130 36q-112 0 -197 -86q-103 -106 -125 -328zM284 1638h142l195 -328h-123z" />
<glyph unicode="&#xe9;" horiz-adv-x="1089" vert-adv-y="2064" d="M96 566q0 268 131 435q129 164 325 164q158 0 274 -110q168 -159 169 -521h-765q4 -164 54 -271q88 -185 279 -185q206 0 285 253h130q-25 -117 -88 -204q-118 -162 -328 -162q-228 0 -353 181q-113 165 -113 420zM230 642h628q-6 144 -55 241q-45 89 -121 137 q-58 36 -130 36q-112 0 -197 -86q-103 -106 -125 -328zM468 1310l195 328h142l-214 -328h-123z" />
<glyph unicode="&#xea;" horiz-adv-x="1089" vert-adv-y="2064" d="M96 566q0 268 131 435q129 164 325 164q158 0 274 -110q168 -159 169 -521h-765q4 -164 54 -271q88 -185 279 -185q206 0 285 253h130q-25 -117 -88 -204q-118 -162 -328 -162q-228 0 -353 181q-113 165 -113 420zM230 642h628q-6 144 -55 241q-45 89 -121 137 q-58 36 -130 36q-112 0 -197 -86q-103 -106 -125 -328zM271 1310l206 328h132l209 -328h-130l-148 237l-152 -237h-117z" />
<glyph unicode="&#xeb;" horiz-adv-x="1089" vert-adv-y="2064" d="M96 566q0 268 131 435q129 164 325 164q158 0 274 -110q168 -159 169 -521h-765q4 -164 54 -271q88 -185 279 -185q206 0 285 253h130q-25 -117 -88 -204q-118 -162 -328 -162q-228 0 -353 181q-113 165 -113 420zM230 642h628q-6 144 -55 241q-45 89 -121 137 q-58 36 -130 36q-112 0 -197 -86q-103 -106 -125 -328zM300 1327v229h138v-229h-138zM653 1327v229h138v-229h-138z" />
<glyph unicode="&#xec;" horiz-adv-x="476" vert-adv-y="2064" d="M-22 1638h142l195 -328h-123zM171 0v1130h135v-1130h-135z" />
<glyph unicode="&#xed;" horiz-adv-x="476" vert-adv-y="2064" d="M161 1310l195 328h142l-214 -328h-123zM170 0v1130h135v-1130h-135z" />
<glyph unicode="&#xee;" horiz-adv-x="476" vert-adv-y="2064" d="M-36 1310l206 328h132l209 -328h-130l-148 237l-152 -237h-117zM170 0v1130h135v-1130h-135z" />
<glyph unicode="&#xef;" horiz-adv-x="476" vert-adv-y="2064" d="M20 1327v229h138v-229h-138zM170 0v1130h135v-1130h-135zM317 1327v229h138v-229h-138z" />
<glyph unicode="&#xf0;" horiz-adv-x="1140" vert-adv-y="2064" d="M96 565q0 250 113 414q62 91 163 142q88 44 186 44q118 0 214 -67q-102 168 -158 236q-44 54 -85 95l-201 -116l-52 87l175 102q-51 44 -125 95l53 76q87 -41 175 -112l192 112l52 -89l-162 -94q130 -126 214 -273q194 -339 194 -652q0 -258 -119 -425 q-126 -175 -355 -175t-355 175q-119 167 -119 425zM230 566q0 -222 94 -357q89 -131 246 -131t246 131q94 135 94 355q0 224 -96 359q-93 129 -249 129q-147 0 -239 -129q-96 -137 -96 -357z" />
<glyph unicode="&#xf1;" horiz-adv-x="1141" vert-adv-y="2064" d="M164 0v1130h128v-190q118 225 344 225q133 0 226 -78q86 -73 110 -207q12 -64 12 -168v-712h-134v666q0 173 -32 256q-21 56 -75 92q-57 38 -132 38q-133 0 -221 -104q-62 -74 -80 -194q-11 -66 -11 -188v-566h-135zM256 1336q9 78 34 133q55 121 156 121q70 0 149 -82 q65 -66 102 -66q71 0 95 140h91q-13 -92 -42 -149q-53 -106 -142 -106q-65 0 -153 88q-66 66 -107 66q-75 0 -95 -145h-88z" />
<glyph unicode="&#xf2;" horiz-adv-x="1140" vert-adv-y="2064" d="M96 564q0 254 113 415q129 186 368 186q149 0 265 -91q111 -86 162 -245q40 -117 40 -264q0 -258 -119 -425q-126 -175 -355 -175t-355 175q-119 167 -119 424zM230 566q0 -222 94 -357q89 -131 246 -131t246 131q94 135 94 355q0 224 -96 359q-93 129 -249 129 q-147 0 -239 -129q-96 -137 -96 -357zM310 1638h142l195 -328h-123z" />
<glyph unicode="&#xf3;" horiz-adv-x="1140" vert-adv-y="2064" d="M96 564q0 254 113 415q129 186 368 186q149 0 265 -91q111 -86 162 -245q40 -117 40 -264q0 -258 -119 -425q-126 -175 -355 -175t-355 175q-119 167 -119 424zM230 566q0 -222 94 -357q89 -131 246 -131t246 131q94 135 94 355q0 224 -96 359q-93 129 -249 129 q-147 0 -239 -129q-96 -137 -96 -357zM494 1310l195 328h142l-214 -328h-123z" />
<glyph unicode="&#xf4;" horiz-adv-x="1140" vert-adv-y="2064" d="M96 564q0 254 113 415q129 186 368 186q149 0 265 -91q111 -86 162 -245q40 -117 40 -264q0 -258 -119 -425q-126 -175 -355 -175t-355 175q-119 167 -119 424zM230 566q0 -222 94 -357q89 -131 246 -131t246 131q94 135 94 355q0 224 -96 359q-93 129 -249 129 q-147 0 -239 -129q-96 -137 -96 -357zM297 1310l206 328h132l209 -328h-130l-148 237l-152 -237h-117z" />
<glyph unicode="&#xf5;" horiz-adv-x="1140" vert-adv-y="2064" d="M96 564q0 254 113 415q129 186 368 186q149 0 265 -91q111 -86 162 -245q40 -117 40 -264q0 -258 -119 -425q-126 -175 -355 -175t-355 175q-119 167 -119 424zM230 566q0 -222 94 -357q89 -131 246 -131t246 131q94 135 94 355q0 224 -96 359q-93 129 -249 129 q-147 0 -239 -129q-96 -137 -96 -357zM256 1336q9 78 34 133q55 121 156 121q70 0 149 -82q65 -66 102 -66q71 0 95 140h91q-13 -92 -42 -149q-53 -106 -142 -106q-65 0 -153 88q-66 66 -107 66q-75 0 -95 -145h-88z" />
<glyph unicode="&#xf6;" horiz-adv-x="1140" vert-adv-y="2064" d="M96 564q0 254 113 415q129 186 368 186q149 0 265 -91q111 -86 162 -245q40 -117 40 -264q0 -258 -119 -425q-126 -175 -355 -175t-355 175q-119 167 -119 424zM230 566q0 -222 94 -357q89 -131 246 -131t246 131q94 135 94 355q0 224 -96 359q-93 129 -249 129 q-147 0 -239 -129q-96 -137 -96 -357zM324 1327v229h138v-229h-138zM677 1327v229h138v-229h-138z" />
<glyph unicode="&#xf7;" vert-adv-y="2064" d="M82 764v126h1064v-126h-1064zM544 346v208h141v-208h-141zM544 1099v209h141v-209h-141z" />
<glyph unicode="&#xf8;" horiz-adv-x="1140" vert-adv-y="2064" d="M96 565q0 250 113 414q127 186 360 186q137 0 251 -74l43 74h120l-84 -145q145 -169 145 -454q0 -259 -119 -426q-126 -175 -354 -175q-135 0 -248 72l-41 -72h-125l84 144q-145 175 -145 456zM230 566q0 -211 89 -350l427 776q-82 59 -176 59q-154 0 -244 -129 q-96 -137 -96 -356zM396 136q80 -57 175 -57q155 0 245 131q94 134 94 356q0 206 -89 346z" />
<glyph unicode="&#xf9;" horiz-adv-x="1141" vert-adv-y="2064" d="M157 419v711h135v-666q0 -172 31 -255q21 -57 75 -93q57 -38 132 -38q135 0 221 104q63 75 81 195q10 66 10 187v566h135v-1130h-127v191q-118 -226 -345 -226q-133 0 -225 78q-86 73 -111 208q-12 65 -12 168zM310 1638h142l195 -328h-123z" />
<glyph unicode="&#xfa;" horiz-adv-x="1141" vert-adv-y="2064" d="M157 419v711h135v-666q0 -172 31 -255q21 -57 75 -93q57 -38 132 -38q135 0 221 104q63 75 81 195q10 66 10 187v566h135v-1130h-127v191q-118 -226 -345 -226q-133 0 -225 78q-86 73 -111 208q-12 65 -12 168zM494 1310l195 328h142l-214 -328h-123z" />
<glyph unicode="&#xfb;" horiz-adv-x="1141" vert-adv-y="2064" d="M157 419v711h135v-666q0 -172 31 -255q21 -57 75 -93q57 -38 132 -38q135 0 221 104q63 75 81 195q10 66 10 187v566h135v-1130h-127v191q-118 -226 -345 -226q-133 0 -225 78q-86 73 -111 208q-12 65 -12 168zM297 1310l206 328h132l209 -328h-130l-148 237l-152 -237 h-117z" />
<glyph unicode="&#xfc;" horiz-adv-x="1141" vert-adv-y="2064" d="M157 419v711h135v-666q0 -172 31 -255q21 -57 75 -93q57 -38 132 -38q135 0 221 104q63 75 81 195q10 66 10 187v566h135v-1130h-127v191q-118 -226 -345 -226q-133 0 -225 78q-86 73 -111 208q-12 65 -12 168zM325 1327v229h138v-229h-138zM678 1327v229h138v-229h-138z " />
<glyph unicode="&#xfd;" horiz-adv-x="927" vert-adv-y="2064" d="M14 1130h146l319 -938l296 938h137l-432 -1304q-42 -126 -96 -184q-65 -68 -173 -68q-47 0 -97 18v115l17 -5q38 -10 68 -10q63 0 95 32q38 38 68 133l50 151zM387 1310l195 328h142l-214 -328h-123z" />
<glyph unicode="&#xfe;" horiz-adv-x="1185" vert-adv-y="2064" d="M164 -426v2064h134v-707q25 73 80 131q98 103 262 103q200 0 321 -155q129 -165 129 -447q0 -274 -120 -435q-123 -163 -327 -163q-171 0 -278 119q-43 48 -66 103v-613h-135zM294 562q0 -227 95 -360q87 -124 236 -124q162 0 249 144q80 133 80 340q0 225 -92 362 q-88 128 -240 128q-92 0 -171 -61q-157 -120 -157 -429z" />
<glyph unicode="&#xff;" horiz-adv-x="927" vert-adv-y="2064" d="M14 1130h146l319 -938l296 938h137l-432 -1304q-42 -126 -96 -184q-65 -68 -173 -68q-47 0 -97 18v115l17 -5q38 -10 68 -10q63 0 95 32q38 38 68 133l50 151zM217 1327v229h138v-229h-138zM570 1327v229h138v-229h-138z" />
<glyph unicode="&#x152;" horiz-adv-x="2143" vert-adv-y="2064" d="M104 820q0 382 180 618q182 237 467 237q197 0 323 -110q25 -22 59 -59v132h911v-127h-765v-599h713v-127h-713v-658h773v-127h-919v136q-35 -41 -60 -66q-114 -110 -327 -110q-214 0 -373 141q-269 237 -269 719zM253 824q0 -303 120 -506q69 -118 185 -181 q91 -49 199 -49q234 0 376 218v1020q-141 222 -377 222q-223 0 -362 -200q-141 -201 -141 -524z" />
<glyph unicode="&#x153;" horiz-adv-x="1792" vert-adv-y="2064" d="M96 565q0 250 108 414q121 186 344 186q249 0 372 -246q131 246 357 246q150 0 260 -110q160 -160 161 -521h-722q2 -164 49 -271q83 -185 261 -185q191 0 266 253h130q-25 -117 -85 -203q-114 -163 -311 -163q-244 0 -368 246q-120 -246 -371 -246q-217 0 -337 175 q-114 167 -114 425zM230 566q0 -222 88 -357q84 -131 232 -131q146 0 230 131q88 135 88 355q0 224 -90 359q-87 129 -233 129q-139 0 -225 -129q-90 -137 -90 -357zM976 642h585q-6 144 -51 241q-40 88 -113 137q-53 36 -120 36q-106 0 -186 -88q-96 -104 -115 -326z" />
<glyph unicode="&#x178;" horiz-adv-x="1220" vert-adv-y="2064" d="M-2 1638h169l447 -818l447 818h162l-539 -960v-678h-146v678zM353 1786v229h143v-229h-143zM734 1786v229h143v-229h-143z" />
<glyph unicode="&#x2c6;" vert-adv-y="2064" d="M341 1310l206 328h132l209 -328h-130l-148 237l-152 -237h-117z" />
<glyph unicode="&#x2dc;" horiz-adv-x="1243" vert-adv-y="2064" d="M308 1336q9 78 34 133q55 121 156 121q70 0 149 -82q65 -66 102 -66q71 0 95 140h91q-13 -92 -42 -149q-53 -106 -142 -106q-65 0 -153 88q-66 66 -107 66q-75 0 -95 -145h-88z" />
<glyph unicode="&#x2000;" horiz-adv-x="1083" vert-adv-y="0" />
<glyph unicode="&#x2001;" horiz-adv-x="2166" vert-adv-y="0" />
<glyph unicode="&#x2002;" horiz-adv-x="1083" vert-adv-y="0" />
<glyph unicode="&#x2003;" horiz-adv-x="2166" vert-adv-y="0" />
<glyph unicode="&#x2004;" horiz-adv-x="722" vert-adv-y="0" />
<glyph unicode="&#x2005;" horiz-adv-x="541" vert-adv-y="0" />
<glyph unicode="&#x2006;" horiz-adv-x="361" vert-adv-y="0" />
<glyph unicode="&#x2007;" horiz-adv-x="361" vert-adv-y="0" />
<glyph unicode="&#x2008;" horiz-adv-x="270" vert-adv-y="0" />
<glyph unicode="&#x2009;" horiz-adv-x="433" vert-adv-y="0" />
<glyph unicode="&#x200a;" horiz-adv-x="120" vert-adv-y="0" />
<glyph unicode="&#x2010;" horiz-adv-x="483" vert-adv-y="2064" d="M10 545v127h464v-127h-464z" />
<glyph unicode="&#x2011;" horiz-adv-x="483" vert-adv-y="2064" d="M10 545v127h464v-127h-464z" />
<glyph unicode="&#x2012;" horiz-adv-x="483" vert-adv-y="2064" d="M10 545v127h464v-127h-464z" />
<glyph unicode="&#x2013;" horiz-adv-x="1159" vert-adv-y="2064" d="M144 545v127h870v-127h-870z" />
<glyph unicode="&#x2014;" horiz-adv-x="1714" vert-adv-y="2064" d="M169 545v127h1383v-127h-1383z" />
<glyph unicode="&#x2018;" horiz-adv-x="492" vert-adv-y="2064" d="M162 1098v178q0 183 43 266q47 89 139 121v-98q-84 -43 -86 -193v-28h71v-246h-167z" />
<glyph unicode="&#x2019;" horiz-adv-x="492" vert-adv-y="2064" d="M148 1073v98q82 47 85 193v28h-71v246h167v-178q0 -184 -43 -267q-47 -85 -138 -120z" />
<glyph unicode="&#x201a;" horiz-adv-x="492" vert-adv-y="2064" d="M148 -221q82 47 85 193v28h-71v246h167v-178q0 -184 -43 -267q-47 -85 -138 -120v98z" />
<glyph unicode="&#x201c;" horiz-adv-x="793" vert-adv-y="2064" d="M162 1098v178q0 183 43 266q47 89 139 121v-98q-84 -43 -86 -193v-28h71v-246h-167zM464 1098v178q0 183 44 266q46 86 138 121v-98q-83 -47 -86 -193v-28h71v-246h-167z" />
<glyph unicode="&#x201d;" horiz-adv-x="793" vert-adv-y="2064" d="M148 1073v98q82 47 85 193v28h-71v246h167v-178q0 -184 -43 -267q-47 -85 -138 -120zM450 1073v98q83 47 85 193v28h-71v246h167v-178q0 -183 -43 -267q-46 -85 -138 -120z" />
<glyph unicode="&#x201e;" horiz-adv-x="793" vert-adv-y="2064" d="M148 -221q82 47 85 193v28h-71v246h167v-178q0 -184 -43 -267q-47 -85 -138 -120v98zM450 -221q83 47 85 193v28h-71v246h167v-178q0 -183 -43 -267q-46 -85 -138 -120v98z" />
<glyph unicode="&#x2022;" horiz-adv-x="1638" vert-adv-y="2064" d="M481 832q0 145 101 242q102 100 245 100q135 0 235 -100q101 -100 101 -241q0 -142 -101 -241q-98 -100 -240 -100t-240 100q-101 99 -101 240z" />
<glyph unicode="&#x2026;" horiz-adv-x="1465" vert-adv-y="2064" d="M162 0v246h167v-246h-167zM649 0v246h167v-246h-167zM1135 0v246h167v-246h-167z" />
<glyph unicode="&#x202f;" horiz-adv-x="433" vert-adv-y="0" />
<glyph unicode="&#x2039;" horiz-adv-x="530" vert-adv-y="2064" d="M108 535v138l265 300v-157l-181 -210l181 -208v-159z" />
<glyph unicode="&#x203a;" horiz-adv-x="530" vert-adv-y="2064" d="M157 239v157l181 210l-181 208v159l265 -296v-138z" />
<glyph unicode="&#x205f;" horiz-adv-x="541" vert-adv-y="0" />
<glyph unicode="&#x20ac;" horiz-adv-x="1376" vert-adv-y="2064" d="M36 614l44 120h110q-2 33 -2 60q0 51 4 107h-156l44 120h124q26 190 97 321q180 328 538 328q253 0 428 -156l-49 -133q-100 88 -174 121q-103 46 -215 46q-306 0 -440 -343q-30 -79 -46 -184h742l-45 -120h-708q-2 -31 -2 -80q0 -53 2 -87h647l-44 -120h-591 q18 -134 66 -234q138 -292 422 -292q139 0 236 70q56 40 134 144l102 -78q-78 -109 -145 -158q-138 -101 -337 -101q-228 0 -384 149q-194 188 -239 500h-163z" />
<glyph unicode="&#x2122;" horiz-adv-x="1728" vert-adv-y="2064" d="M17 1538v100h675v-100h-280v-883h-113v883h-282zM799 655v983h144l279 -815l272 815h145v-983h-108v786l-260 -786h-97l-267 783v-783h-108z" />
<glyph unicode="&#x25fc;" horiz-adv-x="1130" vert-adv-y="2260" d="M0 1130h1130v-1130h-1130v1130z" />
</font>
</defs>
</svg>
