<?xml version="1.0" standalone="no"?>
<!DOCTYPE svg PUBLIC "-//W3C//DTD SVG 1.1//EN" "http://www.w3.org/Graphics/SVG/1.1/DTD/svg11.dtd" >
<svg xmlns="http://www.w3.org/2000/svg">
<metadata>Generated by IcoMoon</metadata>
<defs>
<font id="icomoon" horiz-adv-x="1024">
<font-face units-per-em="1024" ascent="960" descent="-64" />
<missing-glyph horiz-adv-x="1024" />
<glyph unicode="&#x20;" horiz-adv-x="512" d="" />
<glyph unicode="&#xe114;" glyph-name="plus2" d="M512 853.334q17.667 0 30.167-12.5t12.5-30.167v-341.333h341.333q17.667 0 30.167-12.5t12.5-30.167-12.5-30.167-30.167-12.5h-341.333v-341.333q0-17.667-12.5-30.167t-30.167-12.5-30.167 12.5-12.5 30.167v341.333h-341.333q-17.667 0-30.167 12.5t-12.5 30.167 12.5 30.167 30.167 12.5h341.333v341.333q0 17.667 12.5 30.167t30.167 12.5z" />
<glyph unicode="&#xe600;" glyph-name="cloud2" d="M829.248 539.424c-13.984 146.016-135.552 260.576-285.248 260.576-115.808 0-214.944-68.736-260.672-167.36-13.76 4.352-28.096 7.36-43.296 7.36-79.52 0-144-64.512-144-144 0-15.808 3.168-30.752 7.872-44.928-61.856-36.064-103.872-102.24-103.872-179.008 0-114.88 93.12-208 208-208v-0.064l575.968 0.064c132.576 0 240 107.424 240 240 0 116.992-83.872 214.176-194.752 235.36zM784 128.064v-0.064h-575.968c-79.392 0.064-144 64.64-144 144.064 0 51.2 26.976 97.44 72.128 123.744 43.872 25.184 46.88 30.176 28.48 75.424-3.104 9.312-4.608 17.408-4.608 24.736 0 44.128 35.872 80 80 80 0 0 20.992 1.504 43.296-7.36 36.704-14.624 40.704-0.64 58.048 37.088 36.704 79.136 116.224 130.304 202.624 130.304 115.2 0 210.432-87.136 221.568-202.688 3.936-45.824 3.936-45.824 51.68-56.736 82.752-15.808 142.752-88.384 142.752-172.512 0-97.056-78.944-176-176-176z" />
<glyph unicode="&#xe601;" glyph-name="world" d="M496 960c-273.952 0-496-222.048-496-496s222.048-496 496-496 496 222.048 496 496-222.048 496-496 496zM927.2 480h-191.872c-1.76 70.88-14.368 138.592-36.736 200.576 43.2 18.016 83.136 41.984 119.552 70.304 64.736-72.672 105.216-167.040 109.056-270.88zM478.304 32.896c-53.184 44.288-97.792 101.792-130.432 168.576 41.888 13.088 86.272 20.256 132.128 21.728v-190.368c-0.576 0-1.12 0.032-1.696 0.064zM513.632 895.104c60.352-50.24 109.6-117.536 142.912-196.032-45.632-15.584-94.112-24.64-144.576-26.24v222.368c0.608-0.032 1.12-0.064 1.664-0.096zM566.944 889.664c88.32-14.688 167.552-55.936 229.248-115.648-33.504-25.696-70.112-47.456-109.696-63.936-29.12 69.024-69.984 130.048-119.552 179.584zM480 895.2v-222.368c-50.464 1.632-98.976 10.656-144.576 26.24 33.312 78.496 82.56 145.792 142.912 196.032 0.576 0.032 1.088 0.064 1.664 0.096zM305.472 710.048c-39.52 16.48-76.16 38.24-109.664 63.936 61.664 59.712 140.928 100.96 229.248 115.648-49.6-49.504-90.432-110.528-119.584-179.584zM323.36 669.568c49.344-17.12 101.92-27.104 156.64-28.768v-160.8h-191.328c1.728 67.008 13.6 131.040 34.688 189.568zM480 448v-192.8c-50.464-1.536-99.264-9.792-145.248-24.608-27.712 65.984-44.064 139.488-46.080 217.408h191.328zM425.056 38.336c-79.136 13.152-151.008 47.616-209.44 97.664 31.52 21.856 65.6 40.352 102.016 54.4 27.904-57.856 64.416-109.216 107.424-152.064zM512 32.8v190.368c45.824-1.472 90.24-8.64 132.128-21.728-32.672-66.784-77.248-124.288-130.432-168.576-0.544 0-1.12-0.032-1.696-0.064zM674.368 190.4c36.384-14.048 70.432-32.576 102.016-54.4-58.432-50.016-130.304-84.512-209.44-97.664 43.008 42.848 79.488 94.208 107.424 152.064zM657.248 230.592c-46.016 14.816-94.816 23.072-145.248 24.608v192.8h191.328c-2.016-77.92-18.4-151.424-46.080-217.408zM512 480v160.8c54.688 1.664 107.264 11.616 156.64 28.736 21.056-58.528 32.928-122.56 34.688-189.568h-191.328zM173.888 750.88c36.416-28.32 76.352-52.288 119.52-70.304-22.368-61.984-34.976-129.696-36.736-200.576h-191.872c3.84 103.84 44.32 198.208 109.088 270.88zM64.8 448h191.872c1.984-81.76 19.072-158.976 48.096-228.384-40.544-15.808-78.336-36.864-113.216-61.792-75.136 74.784-122.56 177.024-126.752 290.176zM800.448 157.856c-34.88 24.896-72.672 45.984-113.248 61.792 29.056 69.408 46.112 146.624 48.128 228.384h191.872c-4.192-113.184-51.648-215.424-126.752-290.176z" />
<glyph unicode="&#xe602;" glyph-name="image-small" horiz-adv-x="1040" d="M521.549 960c-282.778 0-512-229.222-512-512 0-282.726 229.222-512 512-512 282.726 0 512 229.325 512 512 0 282.829-229.274 512-512 512zM521.549-12.8c-254.515 0-460.8 206.285-460.8 460.8s206.285 460.8 460.8 460.8 460.8-206.285 460.8-460.8c0-254.515-206.336-460.8-460.8-460.8zM520.013 712.858c5.274 0 8.653-1.382 9.83-2.202l256.666-177.766-248.32-210.534c-3.328-2.816-9.318-4.608-15.206-4.608-4.915 0-8.397 1.178-9.83 2.202l-256.563 177.715 248.422 210.637c2.611 2.253 8.294 4.557 15.002 4.557zM520.013 764.058c-17.408 0-35.226-5.683-48.179-16.742l-256.512-217.498c-23.603-20.019-22.886-50.022 1.69-67.072l267.008-184.986c11.008-7.578 24.883-11.315 39.014-11.315 17.459 0 35.226 5.683 48.282 16.794l256.461 217.395c23.603 20.070 22.835 50.074-1.741 67.123l-267.008 184.934c-11.008 7.629-24.883 11.366-39.014 11.366v0zM523.034 109.466c-19.251 0-38.246 5.222-53.606 15.872l-267.008 184.883c-5.018 3.482-9.626 7.629-13.824 12.339-9.37 10.598-8.346 26.726 2.253 36.147 10.701 9.37 26.778 8.294 36.147-2.304 1.382-1.587 2.918-2.918 4.557-4.045l267.059-184.934c15.104-10.496 41.37-8.704 56.166 3.891l256.461 217.344c10.803 9.114 26.88 7.782 36.096-2.97 9.114-10.803 7.782-26.931-3.021-36.096l-256.461-217.395c-17.766-15.053-41.472-22.733-64.819-22.733z" />
<glyph unicode="&#xe603;" glyph-name="cloud22" d="M816.043 42.667c122.197 0 202.923 134.869 202.923 272 0 117.845-97.28 222.336-214.784 237.995l-19.499 52.011c-47.317 125.099-162.645 205.995-293.845 205.995-175.019 0-317.355-143.531-317.355-320 0-7.723 0.384-15.275 1.067-22.613-95.275-11.051-169.515-92.331-169.515-190.72 0-91.349 70.955-221.568 171.008-234.667h640zM595.84 393.558v0c37.888 54.528 114.133 60.075 148.181 76.629l0.299-0.853h29.525c83.627 0 159.744-64 159.744-144.981 0-78.592-52.096-196.352-136.235-196.352h-616.405c-46.891 0-90.581 101.248-90.581 159.019 0.043 65.835 58.283 113.621 127.061 99.669l66.176-15.787-16.256 64.299c-4.267 16.981-8.533 36.437-8.533 56.064 0 129.408 104.064 234.368 232.021 234.368 96.853 0 178.816-57.899 214.016-150.869-86.315-51.029-112.811-172.16-112.811-172.16z" />
<glyph unicode="&#xe604;" glyph-name="contract" d="M866.909 512h-308.364v308.364l89.181-89.181 325.027 195.025-195.025-325.073 89.181-89.135zM215.785 761.67c-124.23-124.23-153.879-307.060-89.367-459.543l-54.039-98.118c-117.015 196.561-91.555 454.377 77.591 623.523s426.961 194.607 623.476 77.591l-98.071-54.039c-152.529 64.465-335.313 34.863-459.59-89.414zM157.091 418.91h308.364v-308.364l-89.181 89.181-325.027-195.025 195.025 325.027-89.181 89.181zM808.215 169.286c124.788 124.742 154.065 308.503 88.483 461.359l54.132 97.559c117.9-196.701 92.672-455.308-76.8-624.78-169.565-169.519-428.079-194.746-624.78-76.8l97.559 54.132c152.809-65.583 336.663-36.305 461.405 88.529z" />
<glyph unicode="&#xe605;" glyph-name="backup-small" horiz-adv-x="1008" d="M503.684 145.802c-77.414 0-154.88 29.434-213.848 88.402-56.6 56.498-88.048 131.796-88.552 211.932-0.1 13.91 11.138 25.25 25.048 25.352 0.050 0 0.1 0 0.152 0 13.81 0 25.1-11.188 25.2-25.048 0.454-66.73 26.612-129.428 73.786-176.602 98.23-98.23 258.2-98.23 356.428 0 98.23 98.28 98.23 258.148 0 356.378-98.23 98.18-258.2 98.23-356.428 0-9.828-9.828-25.804-9.828-35.632 0s-9.828 25.804 0 35.632c117.936 117.886 309.758 117.886 427.694 0 117.886-117.886 117.886-309.758 0-427.644-58.968-58.968-136.382-88.402-213.848-88.402zM503.734 952c-278.36 0-504-225.64-504-504 0-278.308 225.64-504 504-504 278.258 0 504 225.692 504 504 0 278.36-225.742 504-504 504zM503.734-5.6c-250.538 0-453.6 203.062-453.6 453.6s203.062 453.6 453.6 453.6 453.6-203.062 453.6-453.6-203.062-453.6-453.6-453.6zM352.534 548.8h302.4v-50.4h-302.4v50.4zM604.534 548.8h50.4v-50.4h-50.4v50.4zM352.534 397.6h302.4v-50.4h-302.4v50.4zM604.534 397.6h50.4v-50.4h-50.4v50.4zM150.934 397.6h151.2l-75.6 151.2z" />
<glyph unicode="&#xe606;" glyph-name="loadbalancer-small" horiz-adv-x="1008" d="M501.164 150.842c-9.728 0-17.64 7.862-17.64 17.64v565.992c0 9.728 7.862 17.64 17.64 17.64s17.64-7.912 17.64-17.64v-566.042c0-9.728-7.862-17.59-17.64-17.59zM501.164 136.428c-4.636 0-9.274 1.21-13.306 3.73l-274.63 170.704c-5.796 3.628-9.878 9.476-11.39 16.128-1.412 6.704-0.1 13.658 3.73 19.304l266.818 398.312c7.712 11.592 23.336 14.616 34.928 6.904 11.542-7.762 14.666-23.386 6.904-34.978l-252.302-376.64 239.552-148.832 266.616 157.096c11.894 7.006 27.468 3.124 34.524-8.972 7.106-11.944 3.124-27.418-8.92-34.474l-279.77-164.858c-3.88-2.268-8.316-3.428-12.752-3.428zM780.934 307.132c-7.912 0-15.776 3.73-20.664 10.736l-279.77 400.024c-7.964 11.44-5.14 27.166 6.25 35.128 11.29 7.912 27.064 5.242 35.078-6.2l279.77-400.076c7.964-11.44 5.192-27.116-6.25-35.078-4.384-3.074-9.374-4.536-14.414-4.536zM503.734 952c-278.308 0-504-225.59-504-504 0-278.308 225.692-504 504-504s504 225.742 504 504c0 278.41-225.692 504-504 504zM503.734-5.6c-250.538 0-453.6 203.062-453.6 453.6s203.062 453.6 453.6 453.6 453.6-203.062 453.6-453.6c0-250.538-203.062-453.6-453.6-453.6z" />
<glyph unicode="&#xe607;" glyph-name="check-alt" d="M512 960c-282.752 0-512-229.248-512-512s229.248-512 512-512 512 229.248 512 512-229.248 512-512 512zM432.64 211.744l-235.584 235.616 90.496 90.496 145.056-145.12 307.744 307.744 90.496-90.496-398.208-398.24z" />
<glyph unicode="&#xe608;" glyph-name="shhkey-small" horiz-adv-x="1008" d="M503.734 952c-278.308 0-504-225.64-504-504 0-278.258 225.692-504 504-504s504 225.742 504 504c0 278.36-225.692 504-504 504zM503.734-5.6c-250.538 0-453.6 203.062-453.6 453.6s203.062 453.6 453.6 453.6 453.6-203.062 453.6-453.6-203.062-453.6-453.6-453.6zM740.966 198.066l-35.632-35.632-262.432 260.366 35.632 35.632zM585.425 351.545l71.276 71.276 35.674-35.674-71.276-71.276-35.674 35.674zM407.268 672.28l106.898-106.948-178.214-178.164-106.898 106.898 178.214 178.214zM407.268 743.596l-249.48-249.53 178.164-178.164 249.48 249.43-178.164 178.264z" />
<glyph unicode="&#xe609;" glyph-name="supervision-samll" horiz-adv-x="1008" d="M503.734 952c-278.36 0-504-225.64-504-504s225.64-504 504-504 504 225.64 504 504-225.64 504-504 504zM503.734-5.6c-250.538 0-453.6 203.062-453.6 453.6s203.062 453.6 453.6 453.6 453.6-203.062 453.6-453.6-203.062-453.6-453.6-453.6zM906.934 498.4h-176.904l-10.030-50.4-22.024-110.174-120.204 320.644-48.838-2.974-78.574-157.096h-102.564l-23.436-50.4-70.056-140.162-79.934 199.936-46.872-18.748 100.8-252 45.964-1.966 102.664 212.94h76.406l22.076-1.16 75.398 139.76 127.864-341.006 52.164-0.352 40.572 202.76h135.526z" />
<glyph unicode="&#xe60a;" glyph-name="cloud3" d="M829.248 539.424c-13.984 146.016-135.552 260.576-285.248 260.576-115.808 0-214.944-68.736-260.672-167.36-13.76 4.352-28.096 7.36-43.296 7.36-79.52 0-144-64.512-144-144 0-15.808 3.168-30.752 7.872-44.928-61.856-36.064-103.872-102.24-103.872-179.008 0-114.88 93.12-208 208-208v-0.064l575.968 0.064c132.576 0 240 107.424 240 240 0 116.992-83.872 214.176-194.752 235.36zM784 128.064v-0.064h-575.968c-79.392 0.064-144 64.64-144 144.064 0 51.2 26.976 97.44 72.128 123.744 43.872 25.184 46.88 30.176 28.48 75.424-3.104 9.312-4.608 17.408-4.608 24.736 0 44.128 35.872 80 80 80 0 0 20.992 1.504 43.296-7.36 36.704-14.624 40.704-0.64 58.048 37.088 36.704 79.136 116.224 130.304 202.624 130.304 115.2 0 210.432-87.136 221.568-202.688 3.936-45.824 3.936-45.824 51.68-56.736 82.752-15.808 142.752-88.384 142.752-172.512 0-97.056-78.944-176-176-176z" />
<glyph unicode="&#xe60b;" glyph-name="alarm-samll" horiz-adv-x="1008" d="M503.734 952c-278.208 0-504-225.792-504-504s225.792-504 504-504 504 225.792 504 504-225.792 504-504 504zM503.734-5.6c-250.488 0-453.6 203.112-453.6 453.6s203.112 453.6 453.6 453.6 453.6-203.112 453.6-453.6-203.112-453.6-453.6-453.6zM806.134 448c0-139.104-112.896-252-252-252v50.4c111.384 0 201.6 90.216 201.6 201.6s-90.216 201.6-201.6 201.6v50.4c139.104 0 252-112.896 252-252zM654.934 448c0-55.44-45.36-100.8-100.8-100.8v50.4c27.72 0 50.4 22.68 50.4 50.4s-22.68 50.4-50.4 50.4v50.4c55.44 0 100.8-44.856 100.8-100.8zM453.334 214.9l-132.3 132.3h-69.3c-27.872 0-50.4 22.528-50.4 50.4v100.8c0 27.872 22.528 50.4 50.4 50.4h69.3l132.3 132.3c0 0 50.4 6.3 50.4-50.4 0-114.862 0-261.828 0-365.4 0-56.7-50.4-50.4-50.4-50.4zM453.334 599.2l-100.8-100.8h-100.8v-100.8h100.8l100.8-100.8v302.4z" />
<glyph unicode="&#xe60c;" glyph-name="scaling-samll" horiz-adv-x="1008" d="M503.734 952c-278.308 0-504-225.59-504-504 0-278.308 225.692-504 504-504 278.36 0 504 225.742 504 504 0 278.41-225.64 504-504 504zM503.734-5.6c-250.538 0-453.6 203.062-453.6 453.6s203.062 453.6 453.6 453.6 453.6-203.062 453.6-453.6c0-250.538-203.062-453.6-453.6-453.6zM546.926 239.898c-12.146 0-37.498 0-58.262 210.924-6.4 65.62-17.942 140.768-28.072 172.216-10.18-31.45-21.772-106.596-28.224-172.216-20.614-210.924-46.016-210.924-58.212-210.924s-37.598 0-58.212 210.924c-6.452 65.57-18.044 140.666-28.174 172.166-10.13-31.5-21.722-106.596-28.174-172.166-20.664-210.924-46.066-210.924-58.262-210.924-8.366 0-15.12 6.804-15.12 15.17 0 6.452 4.082 11.996 9.778 14.162 11.188 16.48 25.906 107.1 33.466 184.564 20.816 210.924 46.166 210.924 58.312 210.924s37.498 0 58.262-210.974c6.4-65.62 17.942-140.716 28.124-172.166 10.13 31.4 21.722 106.496 28.124 172.166 20.714 210.974 46.066 210.974 58.312 210.974s37.598 0 58.212-210.974c7.56-77.464 22.328-168.034 33.466-184.616 5.696-2.116 9.778-7.66 9.778-14.112 0-8.316-6.754-15.12-15.12-15.12zM719.698 239.898c-12.196 0-37.548 0-58.212 210.924-6.452 65.62-17.942 140.768-28.124 172.216-10.18-31.45-21.772-106.596-28.174-172.216-20.764-210.924-46.116-210.924-58.262-210.924-8.366 0-15.12 6.804-15.12 15.17 0 6.452 4.082 11.996 9.778 14.112 11.138 16.532 25.906 107.15 33.466 184.616 20.664 210.924 46.116 210.924 58.312 210.924s37.548 0 58.212-210.974c6.4-65.62 17.942-140.716 28.124-172.166 10.18 31.45 21.772 106.496 28.224 172.166 20.664 210.974 46.016 210.974 58.212 210.974 8.366 0 15.12-6.754 15.12-15.12 0-6.452-4.082-11.996-9.778-14.162-11.138-16.532-25.856-107.2-33.416-184.666-20.816-210.874-46.166-210.874-58.364-210.874z" />
<glyph unicode="&#xe60d;" glyph-name="vpclist-samll" horiz-adv-x="1008" d="M503.734 952.050c-278.308 0-504-225.64-504-504 0-278.308 225.692-504 504-504s504 225.692 504 504c0 278.36-225.692 504-504 504zM503.734-5.55c-250.538 0-453.6 203.062-453.6 453.6s203.062 453.6 453.6 453.6 453.6-203.062 453.6-453.6-203.062-453.6-453.6-453.6zM251.734 599.3h504v-50.4h-504v50.4zM251.734 448.1h504v-50.4h-504v50.4zM251.734 296.9h504v-50.4h-504v50.4z" />
<glyph unicode="&#xe60e;" glyph-name="volume-samll" horiz-adv-x="1008" d="M503.784 692.238l211.428-122.018v-244.288l-211.428-122.068-211.528 122.12v244.188l211.528 122.068zM503.784 750.45l-261.928-151.15v-302.45l261.928-151.2 261.828 151.2v302.45l-261.828 151.15zM503.734 952c-278.308 0-504-225.64-504-504 0-278.308 225.692-504 504-504s504 225.692 504 504c0 278.36-225.692 504-504 504zM503.734-5.6c-250.538 0-453.6 203.062-453.6 453.6s203.062 453.6 453.6 453.6 453.6-203.062 453.6-453.6-203.062-453.6-453.6-453.6zM728.618 574.352l-17.136 24.898-207.748-142.532-207.748 142.532-17.136-24.898 209.764-139.658v-238.644h30.24v238.644z" />
<glyph unicode="&#xe60f;" glyph-name="cloud-small" horiz-adv-x="1008" d="M518.4 666.434c67.486 0 127.058-47.88 141.574-113.804 5.192-23.336 25.856-39.564 49.24-39.564 1.966 0 3.932 0.1 5.896 0.352 5.242 0.604 10.484 1.108 15.876 1.108 69.148 0 125.446-56.246 125.446-125.396s-56.296-125.344-125.496-125.344c-1.462 0-2.974-0.050-4.436-0.202h-415.85c-2.116 0-4.184-0.1-4.888-0.252-57.556 0-104.428 46.872-104.428 104.48s46.872 104.48 104.428 104.48c3.83 0 7.61-0.252 11.39-0.706 1.916-0.202 3.78-0.302 5.696-0.302 12.298 0 24.242 4.486 33.516 12.752 10.736 9.526 16.834 23.184 16.884 37.548 0.152 79.834 65.268 144.85 145.152 144.85zM518.4 716.834c-107.906 0-195.3-87.394-195.552-195.148-5.594 0.656-11.29 1.008-17.086 1.008-85.528 0-154.828-69.35-154.828-154.88s69.3-154.88 154.828-154.88c1.612 0 3.226 0.252 4.888 0.252l420.336 0.202c97.12 0 175.846 78.674 175.846 175.744s-78.724 175.796-175.846 175.796c-7.408 0-14.616-0.656-21.824-1.462-19.304 87.696-97.322 153.368-190.764 153.368v0zM503.734 952c-278.36 0-504-225.64-504-504 0-278.308 225.64-504 504-504 278.258 0 504 225.692 504 504 0 278.36-225.742 504-504 504zM503.734-5.6c-250.538 0-453.6 203.062-453.6 453.6s203.062 453.6 453.6 453.6 453.6-203.062 453.6-453.6-203.062-453.6-453.6-453.6zM302.134 397.6h302.4v-50.4h-302.4v50.4zM654.934 397.6h50.4v-50.4h-50.4v50.4z" />
<glyph unicode="&#xe610;" glyph-name="dashboard-samll" horiz-adv-x="1008" d="M503.734 952c-278.36 0-504-225.64-504-504 0-278.308 225.64-504 504-504 278.308 0 504 225.692 504 504 0 278.36-225.692 504-504 504zM503.734-5.6c-250.538 0-453.6 203.062-453.6 453.6s203.062 453.6 453.6 453.6 453.6-203.062 453.6-453.6-203.062-453.6-453.6-453.6zM705.334 649.6v-100.8h-100.8v100.8h100.8zM755.734 700h-201.6v-201.6h201.6v201.6zM705.334 347.2v-100.8h-100.8v100.8h100.8zM755.734 397.6h-201.6v-201.6h201.6v201.6zM402.934 649.6v-100.8h-100.8v100.8h100.8zM453.334 700h-201.6v-201.6h201.6v201.6zM402.934 347.2v-100.8h-100.8v100.8h100.8zM453.334 397.6h-201.6v-201.6h201.6v201.6z" />
<glyph unicode="&#xe611;" glyph-name="loadbalancer" horiz-adv-x="992" d="M932.407 312.832c-6.507 0-12.651-1.321-18.531-3.237l-108.544 155.219-31.909 126.216-36.567-28.309-185.873 265.811c12.354 13.973 20.051 32.14 20.051 52.257 0 43.735-35.477 79.211-79.277 79.211-43.735 0-79.211-35.477-79.211-79.211 0-17.474 5.814-33.495 15.393-46.575l-179.068-267.264-31.116 24.081-28.606-113.268-112.442-167.837c-5.549 1.685-11.297 2.874-17.375 2.874-32.768 0-59.425-26.591-59.425-59.359 0-32.834 26.657-59.425 59.425-59.425 15.063 0 28.672 5.814 39.143 15.063l334.551-207.905c-0.198-1.949-0.595-3.799-0.595-5.781 0-32.834 26.591-59.425 59.359-59.425 32.834 0 59.425 26.591 59.425 59.425 0 1.453-0.33 2.841-0.429 4.294l347.896 204.965c9.579-6.673 21.207-10.603 33.726-10.603 32.768 0 59.425 26.624 59.425 59.425s-26.657 59.359-59.425 59.359zM116.378 237.981c1.354 4.955 2.279 10.108 2.279 15.492 0 14.336-5.285 27.318-13.741 37.558l107.256 160.107 109.073 59.722-45.485 35.245 177.912 265.546c8.192-4.525 17.177-7.63 26.822-9.018v-290.981h-54.206l54.206-124.201v-333.824c-13.774-2.676-25.666-10.207-34.287-20.645l-329.827 204.998zM503.12 53.628v333.956l54.14 124.036h-54.14v291.014c7.234 1.057 14.171 2.808 20.612 5.682l186.302-266.372-40.134-31.050 100.154-54.801 116.042-165.888c-8.027-10.141-13.048-22.759-13.048-36.666 0-7.763 1.586-15.129 4.294-21.933l-338.977-199.713c-8.654 10.967-20.942 18.961-35.245 21.735z" />
<glyph unicode="&#xe616;" glyph-name="fle-cloud" horiz-adv-x="1008" d="M767.107 580.406c-9.781 0-19.344-0.781-28.781-1.969-25.562 115.968-128.812 202.812-252.436 202.812-142.687 0-258.374-115.531-258.655-258.186-7.437 0.844-14.969 1.344-22.594 1.344-113.156 0.031-204.905-91.687-204.905-204.843 0-113.093 91.75-204.843 204.874-204.843 2.187 0 4.281 0.25 6.437 0.344l556.029 0.094c128.468 0 232.624 104.187 232.624 232.655 0.031 128.437-104.124 232.593-232.593 232.593zM767.075 156.845c-0.969 0-1.969-0.062-2.937-0.125h-553.122c-0.469 0-0.906 0-1.375 0-1.406-0.062-2.781-0.125-4.187-0.25l-0.875-0.062c-89.968 0-163.187 73.187-163.187 163.155 0 90.031 73.218 163.218 163.187 163.218 5.687 0 11.594-0.344 18-1.031 1.531-0.187 3.094-0.25 4.594-0.25 10.187 0 20.094 3.719 27.75 10.562 8.812 7.875 13.875 19.156 13.906 31 0.25 119.374 97.625 216.561 216.999 216.561 100.937 0 189.999-71.531 211.749-170.093 4.25-19.281 21.344-32.687 40.656-32.687 1.719 0 3.437 0.094 5.156 0.344 9.094 1.094 16.625 1.656 23.687 1.656 105.312 0 190.968-85.687 190.968-190.968 0.031-105.374-85.656-191.030-190.968-191.030zM716.419 439.531h-445.529c-37.531 0-68.031-30.531-68.031-68.062v-24c0-37.531 30.531-68.062 68.031-68.062h445.529c37.531 0 68.031 30.531 68.031 68.062v24c0 37.531-30.5 68.062-68.031 68.062zM753.201 347.5c0-20.281-16.5-36.812-36.781-36.812h-445.529c-20.281 0-36.781 16.5-36.781 36.812v24c0 20.281 16.5 36.812 36.781 36.812h445.529c20.281 0 36.781-16.5 36.781-36.812v-24zM690.295 361.063c0-17.259-13.991-31.25-31.25-31.25s-31.25 13.991-31.25 31.25c0 17.259 13.991 31.25 31.25 31.25s31.25-13.991 31.25-31.25zM765.357 235.814h-546.872c-8.625 0-15.625-7-15.625-15.625s7-15.625 15.625-15.625h546.872c8.625 0 15.625 7 15.625 15.625s-7 15.625-15.625 15.625z" />
<glyph unicode="&#xe618;" glyph-name="scaling-service" horiz-adv-x="960" d="M939.68 148.096c-24.16 4.832-65.344 132.832-90.976 279.616 1.248 7.168 2.304 13.536 3.040 18.048 0.128 0.8 13.376 82.912 34.368 162.656 1.44 5.44-1.824 11.008-7.328 12.416-5.312 1.472-10.944-1.824-12.384-7.264-12.288-46.656-21.92-93.952-27.936-125.824-22.464 126.432-64.928 300.832-128.832 300.832-60.096 0-101.216-154.528-124.576-278.112-19.392 99.168-60.096 267.296-113.952 267.296-46.592 0-83.424-126.208-105.024-224.48-24.32 113.728-62.752 235.296-116.032 235.296-60.224 0-101.408-155.040-124.736-278.72-6.112 30.784-14.528 69.504-24.64 107.552-1.44 5.408-6.944 8.64-12.448 7.232-5.44-1.472-8.672-7.040-7.264-12.48 18.112-68 30.656-138.432 34.272-159.744 0.032-0.416-0.032-0.832-0.096-1.216-25.12-156.256-69.44-297.76-94.944-303.072-11.2-0.096-20.192-9.184-20.192-20.384 0-11.264 9.056-20.32 20.32-20.32 53.248 0 91.616 121.12 115.904 234.656 21.6-98.336 58.464-225.12 105.152-225.12 53.984 0 94.72 168.8 114.048 267.904 23.36-123.456 64.48-277.408 124.512-277.408 53.184 0 91.584 121.088 115.904 234.624 21.6-98.336 58.496-225.088 105.184-225.088h25.824c43.808 0 78.944 111.488 100.96 206.496 24.448-107.744 61.472-216.032 111.808-216.032 11.2 0 20.448 9.056 20.448 20.32s-9.12 20.32-20.384 20.32zM241.376 137.312c-30.080 0-69.216 122.336-94.944 255.968 3.36 18.112 6.336 35.488 8.896 51.488 25.12 156.384 69.504 298.016 94.624 303.104 25.44-5.088 69.888-146.72 95.008-303.104 0.096-0.576 0.192-1.216 0.288-1.792-21.216-128.992-66.624-305.664-103.872-305.664zM480.128 148.096c-25.504 5.12-69.888 146.784-95.008 303.104-2.56 15.808-5.472 32.96-8.768 50.88 25.76 133.376 64.8 255.328 94.848 255.328 37.184 0 82.464-176.096 103.744-305.056-0.032-0.384-0.128-0.8-0.192-1.184-25.12-156.288-69.568-297.984-94.624-303.072zM726.816 137.312h-25.824c-30.080 0-69.248 122.304-94.976 255.904 3.36 18.144 6.336 35.52 8.896 51.52 25.12 156.352 69.504 298.016 94.56 303.104 25.504-5.056 69.888-146.72 95.072-303.104 3.552-22.080 7.872-46.88 12.928-72.64-23.648-114.496-59.936-234.784-90.656-234.784z" />
<glyph unicode="&#xe619;" glyph-name="selfImage" d="M30.016 440.16l422.624-292.736c17.376-12.064 39.36-17.952 61.696-17.952 27.68 0 55.744 8.992 76.448 26.496l405.984 344.192c37.376 31.68 36.128 79.264-2.752 106.176l-422.688 292.768c-17.376 12.064-39.36 17.952-61.696 17.952-27.616 0-55.744-8.992-76.384-26.496l-405.984-344.224c-37.376-31.68-36.192-79.232 2.752-106.176zM57.024 511.232l405.984 344.256c11.488 9.76 28.928 15.552 46.624 15.552 13.824 0 26.432-3.424 35.488-9.76l422.624-292.768c3.68-2.528 9.888-7.776 10.176-14.4 0.32-5.824-3.68-12.672-10.944-18.816l-405.952-344.256c-11.488-9.76-28.928-15.552-46.688-15.552-13.824 0-26.432 3.456-35.488 9.76l-422.656 292.736c-3.68 2.56-9.888 7.808-10.176 14.432-0.32 5.824 3.68 12.704 11.008 18.816zM986.432 361.888l-406.016-344.224c-31.616-26.784-85.952-30.272-118.656-7.584l-422.688 292.736c-4.448 3.040-8.32 6.496-11.584 10.272-5.792 6.688-15.904 7.36-22.592 1.6-6.656-5.792-7.392-15.904-1.6-22.592 5.056-5.824 10.976-11.104 17.6-15.648l422.624-292.704c20.32-14.080 45.504-20.992 71.008-20.992 31.168 0 62.816 10.336 86.592 30.464l406.016 344.224c6.752 5.728 7.584 15.808 1.856 22.56s-15.808 7.552-22.56 1.888z" />
<glyph unicode="&#xe61a;" glyph-name="cloudwatch" horiz-adv-x="992" d="M985.664-32.544l-143.424 143.424c80.544 88.96 124.64 203.232 124.64 324.032 0 266.528-216.864 483.392-483.424 483.392s-483.456-216.864-483.456-483.392c0-266.592 216.832-483.456 483.392-483.456 12 0 21.728 9.728 21.728 21.728 0 11.968-9.728 21.696-21.728 21.696-242.624 0-440.032 197.408-440.032 440.064 0 242.624 197.408 440.032 440.032 440.032 242.656 0 440.064-197.408 440.064-440.032 0-116.544-45.056-226.336-126.944-309.216-8.384-8.512-8.352-22.176 0.064-30.592l158.368-158.336c4.256-4.256 9.792-6.336 15.328-6.336 5.568 0 11.136 2.080 15.36 6.336 8.448 8.48 8.448 22.144 0.032 30.656zM887.328 412.416c6.016 0 10.816 4.832 10.848 10.784 0.032 6.016-4.8 10.88-10.784 10.912l-303.488 1.088c-5.056 0-9.44-3.488-10.56-8.448l-46.72-204.992-58.080 401.184c-0.736 5.12-4.96 8.992-10.112 9.248-5.184 0.544-9.824-3.072-11.136-8.064l-86.944-333.312-66.208 138.208c-1.792 3.776-5.6 6.144-9.792 6.144h-168.224c-5.984 0-10.848-4.832-10.848-10.848 0-5.984 4.864-10.848 10.848-10.848h161.408l76.064-158.752c1.952-4.128 6.144-6.4 10.816-6.112 4.544 0.448 8.32 3.648 9.44 8.064l80.896 310.016 58.752-405.824c0.736-5.152 5.088-9.088 10.272-9.28 0.192 0 0.32 0 0.448 0 5.056 0 9.472 3.488 10.592 8.448l57.728 253.44 294.784-1.056z" />
<glyph unicode="&#xe61b;" glyph-name="volumememory" horiz-adv-x="896" d="M882.936 712.423l-423.407 244.472c-7.102 4.129-15.922 4.129-23.090 0l-423.374-244.472c-7.168-4.129-11.561-11.726-11.561-19.985v-488.877c0-8.258 4.393-15.855 11.561-19.985l423.341-244.439c3.601-2.081 7.564-3.105 11.561-3.105s7.994 1.024 11.561 3.105l423.407 244.439c7.168 4.129 11.561 11.726 11.561 19.985v488.877c0 8.225-4.393 15.855-11.561 19.985zM848.285 216.84l-400.318-231.094-400.252 231.094v462.253l400.252 231.16 400.318-231.16v-462.253zM447.736 471.486l-261.285 144.516c0.429 2.213 1.321 4.228 1.321 6.54 0 20.315-16.582 36.897-36.897 36.897-20.447 0-36.963-16.582-36.963-36.897 0-20.381 16.516-36.963 36.963-36.963 9.612 0 18.267 3.931 24.84 10.009l260.823-144.285 5.45-298.645c-2.081-0.727-4.294-0.958-6.276-2.114-17.606-10.207-23.684-32.834-13.543-50.44 10.207-17.672 32.834-23.684 50.44-13.543 17.672 10.24 23.75 32.801 13.543 50.44-4.823 8.357-12.552 13.874-21.108 16.549l-5.417 298.083 255.901 153.996c1.685-1.42 2.94-3.237 4.922-4.36 17.672-10.207 40.266-4.129 50.44 13.477 10.207 17.672 4.129 40.299-13.543 50.44-17.606 10.207-40.2 4.129-50.374-13.477-4.823-8.357-5.748-17.771-3.799-26.525l-255.438-153.699z" />
<glyph unicode="&#xe61c;" glyph-name="roll-backup" horiz-adv-x="960" d="M286.88 454.336h444.512c34.56 0 62.688 28.128 62.688 62.688v23.968c0 34.56-28.128 62.656-62.688 62.656h-444.512c-34.56 0-62.688-28.096-62.688-62.656v-23.968c0-34.56 28.128-62.688 62.688-62.688zM244.992 540.992c0 23.104 18.752 41.92 41.888 41.92h444.512c23.072 0 41.888-18.816 41.888-41.92v-23.968c0-23.104-18.816-41.888-41.888-41.888h-444.512c-23.136 0-41.888 18.784-41.888 41.888v23.968zM705.312 530.592c0-17.231-13.969-31.2-31.2-31.2s-31.2 13.969-31.2 31.2c0 17.231 13.969 31.2 31.2 31.2s31.2-13.969 31.2-31.2zM224.192 308.224c0-34.592 28.128-62.72 62.688-62.72h444.512c34.56 0 62.688 28.128 62.688 62.72v23.936c0 34.56-28.128 62.688-62.688 62.688h-444.512c-34.56 0-62.688-28.128-62.688-62.688v-23.936zM244.992 332.16c0 23.104 18.752 41.888 41.888 41.888h444.512c23.072 0 41.888-18.784 41.888-41.888v-23.936c0-23.136-18.816-41.952-41.888-41.952h-444.512c-23.136 0-41.888 18.816-41.888 41.952v23.936zM705.28 321.728c0-17.214-13.954-31.168-31.168-31.168s-31.168 13.954-31.168 31.168c0 17.214 13.954 31.168 31.168 31.168s31.168-13.954 31.168-31.168zM824.576 775.488c-87.456 87.488-203.776 135.68-327.52 135.68-114.016 0-221.44-41.376-306.112-116.288-19.2 4.672-39.904-3.36-50.304-21.312-12.576-21.824-5.152-49.728 16.672-62.336 21.824-12.576 49.76-5.088 62.304 16.704 7.232 12.512 7.68 26.912 2.784 39.392 76.448 65.952 172.672 102.272 274.656 102.272 112.64 0 218.496-43.872 298.112-123.488 164.384-164.384 164.384-431.808 0-596.192-164.32-164.384-431.808-164.448-596.256 0-70.912 70.944-113.216 163.008-121.6 261.952h37.28l-57.312 131.264-57.28-131.296h35.744c8.512-110.048 55.040-212.544 133.824-291.328 87.488-87.456 203.808-135.648 327.488-135.648 123.744 0 240.064 48.192 327.488 135.648 180.64 180.576 180.64 474.4 0.032 654.976z" />
<glyph unicode="&#xe61d;" glyph-name="vdc1" horiz-adv-x="1008" d="M977.789 187.783c-21.961 12.701-50.148 5.131-62.849-16.862-0.313-0.563-0.469-1.157-0.751-1.721l-701.317-0.313c-94.414 0-171.184 76.77-171.184 171.184s76.77 171.215 171.184 171.215c6.382 0 12.67-0.438 18.895-1.095 5.756-0.626 11.825 1.22 16.299 5.193s6.976 9.667 7.008 15.579c0.282 121.975 99.701 221.238 221.676 221.238 103.142 0 194.084-73.11 216.326-173.812 0.72-3.222 2.252-5.944 4.161-8.353 2.753-9.573 11.95-16.205 22.055-15.298 7.602 0.72 62.786 0.188 84.028-0.031 3.91-7.571 9.854-14.171 17.769-18.77 22.024-12.701 50.21-5.131 62.911 16.831 12.67 22.024 5.099 50.179-16.862 62.911-21.992 12.67-50.148 5.131-62.849-16.893-0.407-0.688-0.626-1.439-0.97-2.159-35.538 0.375-58.031 0.501-71.827 0.344-29.938 114.717-135.364 197.118-254.743 197.118-137.554 0-251.051-106.177-262.657-240.915-0.375 0-0.782 0-1.189 0-117.564 0-213.167-95.572-213.167-213.104s95.603-213.135 213.135-213.135c1.752 0 3.41 0.125 6.038 0.313h694.81c3.879-7.758 9.948-14.516 18.019-19.177 22.024-12.701 50.21-5.162 62.943 16.799 12.67 22.055 5.099 50.179-16.893 62.911zM635.64 413.369l-96.666 96.666c10.261 21.523 2.597 47.551-18.332 59.627-21.992 12.701-50.179 5.131-62.88-16.862-12.67-21.992-5.131-50.179 16.831-62.849 16.705-9.635 36.915-7.571 51.274 3.535l98.043-98.043c1.971-1.971 4.599-3.066 7.383-3.066h277.924c1.627-13.953 9.448-27.029 22.524-34.6 22.024-12.67 50.21-5.162 62.943 16.831 12.67 22.024 5.099 50.179-16.893 62.88-21.961 12.701-50.148 5.131-62.849-16.831-1.345-2.378-2.378-4.818-3.285-7.289h-276.016z" />
<glyph unicode="&#xe620;" glyph-name="vpc" horiz-adv-x="1008" d="M767.107 580.406c-9.781 0-19.312-0.781-28.781-1.969-25.562 115.968-128.812 202.812-252.436 202.812-142.687 0-258.374-115.531-258.655-258.186-7.437 0.844-14.969 1.344-22.594 1.344-113.156 0.031-204.905-91.687-204.905-204.843 0-113.093 91.75-204.843 204.905-204.843 2.156 0 4.281 0.25 6.406 0.344l556.060 0.094c128.437 0 232.624 104.187 232.624 232.655 0 128.437-104.187 232.593-232.624 232.593zM462.171 420.313l-102.874-107.031c-5.625 2.844-11.75 4.812-18.5 4.812-1.375 0-2.531-0.656-3.875-0.781l-70.25 170.030 195.499-67.031zM767.107 156.845c-0.969 0-1.969-0.062-2.937-0.125h-553.122c-0.437 0-0.906 0-1.344 0-1.437-0.062-2.812-0.125-4.219-0.25l-0.844-0.062c-90 0-163.218 73.187-163.218 163.155 0 90.031 73.218 163.218 163.218 163.218 5.687 0 11.562-0.344 17.969-1.031 1.562-0.187 3.094-0.25 4.594-0.25 2.594 0 5 0.906 7.531 1.375l74.437-180.187c-6-7.187-10.031-16.125-10.031-26.187 0-23 18.656-41.687 41.656-41.687s41.656 18.687 41.656 41.687c0 4.625-1.25 8.875-2.625 13.031l105.531 109.812c5.094-2.187 10.625-3.469 16.5-3.469 23 0 41.687 18.687 41.687 41.687 0 22.969-18.687 41.656-41.687 41.656-17.531 0-32.375-10.906-38.531-26.219l-194.812 66.812c0.094 1.094 0.344 2.156 0.344 3.25 0.281 119.374 97.625 216.561 216.999 216.561 100.937 0 189.999-71.531 211.718-170.093 4.281-19.281 21.375-32.687 40.656-32.687 1.719 0 3.437 0.094 5.156 0.344 9.125 1.094 16.625 1.656 23.687 1.656 105.312 0 190.968-85.687 190.968-190.968 0.031-105.374-85.625-191.030-190.937-191.030z" />
<glyph unicode="&#xe622;" glyph-name="delete" horiz-adv-x="816" d="M587.474 825.371v53.036c0 45.063-36.513 81.594-81.594 81.594h-195.825c-45.063 0-81.594-36.53-81.594-81.594v-53.036h-228.462v-146.869h815.936v146.869h-228.462zM73.434-64h673.147v673.147h-673.147v-673.147zM485.482 531.633h142.789v-522.199h-142.789v522.199zM191.745 531.633h142.772v-522.199h-142.772v522.199z" />
<glyph unicode="&#xe623;" glyph-name="left-arrow" horiz-adv-x="343" d="M342.012-63.3h-77.392l-263.473 511.324 263.473 511.277h77.392l-263.448-511.277z" />
<glyph unicode="&#xe624;" glyph-name="lock" horiz-adv-x="826" d="M410.185 165.595c-49.724-86.136-132.159-104.387-198.66-65.988s-91.916 118.899-42.191 205.035l87.689 151.872-95.787 55.308-124.864-216.214c-52.372-90.705-23.559-205.364 64.342-256.101l111.407-64.328c87.9-50.751 201.61-18.37 253.968 72.336l124.837 216.228-93.062 53.728-87.676-151.872zM720.949 856.493l-111.407 64.328c-87.9 50.751-201.61 18.356-253.968-72.336l-124.837-216.228 95.801-55.308 86.109 149.134c49.738 86.136 132.159 104.387 198.66 65.988s91.916-118.912 42.191-205.048l-86.095-149.134 93.049-53.714 124.837 216.214c52.372 90.691 23.559 205.364-64.342 256.101zM574.397 601.723l-109.483 63.209-216.491-374.974 109.47-63.209 216.503 374.974z" />
<glyph unicode="&#xe626;" glyph-name="right-arrow" horiz-adv-x="343" d="M1.147 959.3h77.393l263.472-511.324-263.472-511.277h-77.393l263.448 511.277z" />
<glyph unicode="&#xe627;" glyph-name="unlock" horiz-adv-x="826" d="M412.164 161.279c-50.471-87.452-134.166-105.982-201.696-66.996s-93.321 120.716-42.823 208.168l89.029 154.193-97.265 56.153-126.759-219.518c-53.172-92.091-23.919-208.502 65.325-260.015l113.109-65.311c89.23-51.527 204.677-18.651 257.849 73.441l126.745 219.532-94.484 54.549-89.029-154.193zM727.69 862.736l-113.095 65.311c-89.257 51.527-204.705 18.637-257.863-73.441l-126.732-219.518 97.251-56.153 87.425 151.413c50.498 87.452 134.166 105.982 201.696 66.996s93.321-120.729 42.85-208.168l-87.425-151.44 94.471-54.549 126.745 219.532c53.172 92.077 23.932 208.502-65.325 260.015z" />
<glyph unicode="&#xe628;" glyph-name="vdc-small" horiz-adv-x="1040" d="M517.299 958.771c-282.726 0-512-229.222-512-512 0-282.726 229.274-512 512-512s512 229.274 512 512c0 282.778-229.274 512-512 512zM517.299-14.029c-254.515 0-460.8 206.285-460.8 460.8s206.285 460.8 460.8 460.8 460.8-206.285 460.8-460.8-206.285-460.8-460.8-460.8zM722.099 702.771h-460.8v-204.8h512v204.8h-51.2zM312.499 549.171v102.4h307.2v-102.4h-307.2zM670.899 549.171v102.4h51.2v-102.4h-51.2zM722.099 446.771h-460.8v-204.8h512v204.8h-51.2zM312.499 293.171v102.4h307.2v-102.4h-307.2zM670.899 293.171v102.4h51.2v-102.4h-51.2zM261.299 190.771h512v-51.2h-512v51.2z" />
<glyph unicode="&#xe629;" glyph-name="vdc" d="M909.408 584.928h-799.392c-57.728 0-104.672 49.248-104.672 109.76v45.152c0 60.544 46.944 109.728 104.672 109.728h799.392c57.696 0 104.672-49.216 104.672-109.728v-45.152c0-60.512-46.944-109.76-104.672-109.76zM110.016 827.328c-46.016 0-83.424-39.296-83.424-87.488v-45.152c0-48.256 37.44-87.52 83.456-87.52h799.392c46.016 0 83.424 39.264 83.424 87.52v45.152c0 48.224-37.408 87.488-83.424 87.488h-799.424zM862.496 720.16c0-32.466-25.101-58.784-56.064-58.784s-56.064 26.318-56.064 58.784c0 32.466 25.101 58.784 56.064 58.784s56.064-26.318 56.064-58.784zM909.408 209.376h-799.392c-57.728 0-104.672 49.248-104.672 109.792v45.152c0 60.48 46.944 109.696 104.672 109.696h799.392c57.696 0 104.672-49.216 104.672-109.696v-45.152c0-60.512-46.944-109.792-104.672-109.792zM110.016 451.744c-46.016 0-83.456-39.232-83.456-87.424v-45.152c0-48.256 37.44-87.52 83.456-87.52h799.392c46.016 0 83.424 39.296 83.424 87.52v45.152c0 48.192-37.408 87.424-83.424 87.424h-799.392zM862.496 344.64c0-32.448-25.101-58.752-56.064-58.752s-56.064 26.304-56.064 58.752c0 32.448 25.101 58.752 56.064 58.752s56.064-26.304 56.064-58.752zM1002.72 46.432h-981.472c-11.744 0-21.248 9.952-21.248 22.24 0 12.32 9.504 22.272 21.248 22.272h981.504c11.744 0 21.28-9.952 21.28-22.272-0.032-12.288-9.536-22.24-21.312-22.24z" />
<glyph unicode="&#xe62a;" glyph-name="downAction" d="M731.951 445.040v449.402c0 36.25-30.038 65.558-67.092 65.558h-304.912c-37.054 0-67.092-29.307-67.092-65.558v-448.745l-292.853 0.365 472.351-491.061c25.799-25.288 67.604-25.288 93.33 0l458.465 489.526-292.196 0.512zM512.183 9.378l-365.427 365.427h219.256v511.598h292.342v-511.598h219.256l-365.427-365.427z" />
<glyph unicode="&#xe62b;" glyph-name="topAction" d="M565.722 941.069c-25.801 25.289-67.536 25.289-93.337 0l-472.385-491.096 292.874 0.439v-448.85c0-36.18 30.040-65.562 67.024-65.562h304.934c37.057 0 67.097 29.382 67.097 65.562v449.507l292.216 0.439-458.425 489.561zM658.401 521.237v-511.635h-292.363v511.635h-219.272l365.453 365.453 365.453-365.453h-219.272z" />
<glyph unicode="&#xe62c;" glyph-name="cancel" horiz-adv-x="732" d="M157.691 108.204c-34.419-34.419-88.85-34.419-123.272 0v0c-34.419 34.419-34.419 88.85 0 123.272l549.115 549.115c32.82 34.419 88.85 34.419 123.272 0v0c34.419-34.419 34.419-88.85 0-123.272l-549.115-549.115zM34.42 657.321c-34.419 34.419-34.419 88.85 0 123.272v0c34.419 34.419 88.85 34.419 123.272 0l549.115-549.115c34.419-34.419 34.419-88.85 0-123.272v0c-34.419-34.419-90.452-34.419-123.272 0l-549.115 549.115z" />
<glyph unicode="&#xe62d;" glyph-name="save" horiz-adv-x="1047" d="M501.687 211.978c39.956-39.956 0-144.029 0-144.029-39.956-39.027-103.143-39.027-143.1 0l-318.722 317.793c-39.956 39.027-39.027 103.143 0.929 143.1v0c39.956 39.027 103.143 40.886 143.1 0l317.793-316.864zM500.758 67.020c-39.956-39.956-103.143-39.956-143.1 0v0c-39.956 39.027-39.956 104.073 0 143.1l503.637 503.637c39.956 39.956 103.143 39.956 143.1 0v0c39.956-39.027 39.956-103.143 0-143.1l-503.637-503.637z" />
<glyph unicode="&#xe62e;" glyph-name="add" horiz-adv-x="1008" d="M503.77 952c-278.414 0-504.036-225.695-504.036-504.108 0-278.27 225.623-503.892 504.036-503.892 278.27 0 503.964 225.695 503.964 504.036s-225.695 503.964-503.964 503.964zM790.886 378.774h-216.92v-216.92h-143.846v216.92h-214.69v141.688h214.69v216.92h143.846v-216.92h216.92v-141.688z" />
<glyph unicode="&#xe62f;" glyph-name="closeEmpty" horiz-adv-x="1008" d="M503.734 952c-278.41 0-504-225.59-504-504 0-278.343 225.59-504 504-504 278.343 0 504 225.657 504 504-0.067 278.41-225.725 504-504 504zM503.734 11.132c-240.845 0-436.8 195.956-436.8 436.8s195.956 436.8 436.8 436.8c240.777 0 436.8-195.956 436.8-436.8-0.067-240.845-196.023-436.8-436.8-436.8zM503.734 363.597l-185.27 185.203h-49.929v-49.929l218.803-218.938h32.793l218.736 218.938v49.929h-49.929z" />
<glyph unicode="&#xe630;" glyph-name="closeSolid" d="M1015.662 432.978c8.275 277.798-210.91 510.577-488.707 518.95-277.798 8.176-510.675-211.009-518.95-488.904-8.275-277.798 211.107-510.675 488.904-518.95 277.601-8.176 510.478 211.107 518.753 488.904zM99.618 460.264c6.895 227.263 197.217 406.748 424.48 399.95 227.558-6.6 406.945-197.119 400.147-424.48-6.6-227.361-197.217-406.748-424.578-400.049-227.263 6.994-406.846 197.316-400.049 424.578zM258.317 532.866l253.565-289.323 253.663 289.323z" />
<glyph unicode="&#xe631;" glyph-name="closeThin" horiz-adv-x="864" d="M762.769 856.048l-334.593-334.696-334.593 334.593c-20.231 20.231-53.119 20.231-73.351 0s-20.231-53.119 0-73.351l334.593-334.696-334.593-334.49c-20.231-20.231-20.231-53.017 0-73.351 20.231-20.231 53.119-20.231 73.351 0l334.593 334.801 334.593-334.593c20.231-20.231 53.225-20.231 73.351 0 20.231 20.128 20.231 53.119 0 73.247l-334.593 334.696 334.593 334.593c20.334 20.335 20.334 53.119 0 73.455-20.334 20.025-53.119 20.025-73.351-0.207z" />
<glyph unicode="&#xe632;" glyph-name="help" d="M514.337 952c-280.635 0-506.337-223.976-506.337-503.964 0-277.544 221.891-504.036 504.036-504.036 280.060 0 504.108 227.787 504.108 506.265-0.072 276.824-227.355 501.735-501.807 501.735zM584.873 89.818h-144.237v142.798h144.237v-142.798zM729.9 499.949c-12.079-17.041-35.232-39.187-69.386-65.863l-33.723-26.388c-18.335-14.237-30.559-30.918-36.526-49.9-3.811-12.223-5.825-31.134-6.184-56.443h-130.215c1.797 53.783 7.046 91.028 15.171 111.521 8.341 20.492 29.624 44.22 64.137 71.039l34.872 27.18c11.361 8.556 20.636 17.832 27.683 28.186 12.799 17.329 19.198 36.382 19.198 57.306 0 24.088-7.118 46.018-21.211 65.791-14.165 19.629-40.121 29.624-77.439 29.624-37.030 0-62.986-12.079-78.518-36.526-15.387-24.231-23.081-49.469-23.081-75.498h-137.189c3.739 90.238 35.376 154.303 94.768 192.123 37.461 24.088 83.479 36.167 138.125 36.167 71.831 0 131.51-17.184 178.893-51.41 47.528-34.441 71.183-85.276 71.183-152.649 0-41.2-10.138-76.001-30.559-104.258z" />
<glyph unicode="&#xe633;" glyph-name="icon" horiz-adv-x="1008" d="M505.333 964.218c-279.218 0-505.6-226.382-505.6-505.6s226.382-505.6 505.6-505.6 505.6 226.382 505.6 505.6-226.382 505.6-505.6 505.6zM802.31 405.846l-242.372-242.372c-26.734-26.797-70.152-26.797-96.949 0s-26.797 70.152 0 96.949l134.995 134.995h-345.451c-34.95 0-63.2 28.314-63.2 63.2s28.25 63.2 63.2 63.2h354.994l-116.414 116.414c-24.711 24.711-24.711 64.717 0 89.428 24.711 24.648 64.717 24.648 89.428 0l223.412-223.475c13.082-13.082 18.707-30.336 17.949-47.463 0.695-18.391-5.625-36.909-19.592-50.876z" />
<glyph unicode="&#xe634;" glyph-name="openEmpty" horiz-adv-x="1008" d="M503.734 952c-278.41 0-504-225.59-504-504 0-278.343 225.59-504 504-504s504 225.657 504 504c0 278.41-225.59 504-504 504zM503.734 11.132c-240.845 0-436.8 195.956-436.8 436.8s195.956 436.8 436.8 436.8 436.8-195.956 436.8-436.8c0-240.845-195.956-436.8-436.8-436.8zM402.934 683.2v-49.929l185.203-185.27-185.203-185.203v-50.064h49.929l218.871 219.005v32.66l-218.871 218.803z" />
<glyph unicode="&#xe635;" glyph-name="openSolid" d="M526.856 951.928c-277.798 8.275-510.577-211.009-518.95-488.707-8.176-277.798 211.009-510.675 488.904-519.147 277.7-8.078 510.577 211.304 518.852 488.904 8.275 277.798-211.009 510.675-488.806 518.95zM499.471 35.884c-227.263 6.698-406.748 197.217-399.95 424.48 6.6 227.361 197.119 406.846 424.578 400.049 227.361-6.698 406.748-197.217 400.049-424.48-6.797-227.361-197.316-406.846-424.677-400.049zM426.968 194.386l289.521 253.762-289.521 253.663z" />
<glyph unicode="&#xe636;" glyph-name="pencil3" horiz-adv-x="928" d="M913.743 763.465l-80.969-95.086-217.088 181.979 80.896 95.013c5.705 6.949 13.751 10.752 22.089 11.557 32.475 12.507 105.033-15.653 141.312-46.519 34.67-29.55 65.097-85.943 60.27-119.223 1.902-9.435 0.219-19.675-6.51-27.721zM318.652 61.074l-210.725 192.805 457.143 536.869 217.6-182.418-464.018-547.255zM-0.251-61.733l53.541 258.633 208.677-193.024-262.217-65.609z" />
<glyph unicode="&#xe637;" glyph-name="search" horiz-adv-x="1013" d="M564.78 960c-247.315 0-448.238-201.035-448.238-448.238 0-111.499 42.246-212.129 109.706-290.57l-207.758-187.588c-22.972-20.955-24.765-56.142-4.034-79.114 11.094-12.214 26.222-18.49 41.574-18.49 13.335 0 26.782 4.819 37.54 14.456l215.154 194.199c72.615-50.875 160.693-81.243 255.944-81.243 247.315 0 448.238 200.923 448.238 448.238-0.112 247.203-200.923 448.35-448.126 448.35zM564.78 175.583c-185.346 0-336.179 150.832-336.179 336.179s150.832 336.179 336.179 336.179c185.234 0 336.179-150.832 336.179-336.179 0-185.459-150.72-336.179-336.179-336.179z" />
<glyph unicode="&#xe638;" glyph-name="set" d="M941.938 548.051h-53.593c-8.397 31.61-20.618 61.649-36.252 89.64l48.131 48.131c32.156 32.156 32.156 84.11 0 116.129l-29.084 29.084c-32.019 32.087-83.974 32.087-116.129 0l-47.107-47.175c-29.015 16.795-60.215 29.903-93.054 38.846v55.163c0 45.332-36.798 82.13-82.13 82.13h-41.168c-45.4 0-82.13-36.798-82.13-82.13v-55.231c-33.043-8.944-64.243-22.052-93.122-38.846l-47.312 47.244c-32.087 32.087-84.042 32.087-116.129 0l-29.084-29.084c-32.087-32.019-32.087-83.974 0-116.129l48.268-48.131c-15.702-27.923-27.855-58.031-36.32-89.64h-53.593c-45.4 0-82.13-36.798-82.13-82.13v-41.099c0-45.332 36.73-82.13 82.13-82.13h54.139c8.875-31.883 21.505-62.127 37.686-90.118l-50.111-50.111c-32.087-32.156-32.087-84.042 0-116.129l29.084-29.084c32.087-32.087 84.042-32.087 116.129 0l50.384 50.384c27.991-15.839 58.235-28.264 89.913-36.935v-52.637c0-45.332 36.73-81.994 82.13-81.994h41.099c45.332 0 82.13 36.662 82.13 81.994v52.637c31.746 8.67 61.854 21.096 89.845 36.935l50.384-50.384c32.019-32.087 84.042-32.087 116.061 0l29.152 29.084c32.019 32.087 32.019 83.974 0 116.129l-50.111 50.111c16.112 27.991 28.81 58.304 37.617 90.118h54.276c45.332 0 82.13 36.798 82.13 82.13v41.099c0 45.332-36.798 82.13-82.13 82.13zM512.034 208.948c-132.037 0-238.949 106.981-238.949 238.949 0 132.037 106.913 238.949 238.949 238.949s238.949-106.913 238.949-238.949c0-131.832-106.913-238.949-238.949-238.949z" />
<glyph unicode="&#xe639;" glyph-name="star" horiz-adv-x="992" d="M496.724 903.715l153.641-311.058 343.479-49.998-248.56-242.050 58.722-342.046-307.282 161.323-307.152-161.323 58.722 342.046-248.56 242.050 343.479 49.998z" />
<glyph unicode="&#xe63a;" glyph-name="status-alarm" horiz-adv-x="1008" d="M503.734 952c-278.397 0-504-225.666-504-504s225.603-504 504-504c278.334 0 504 225.666 504 504s-225.666 504-504 504zM375.025 67.732l70.371 318.654-192.78 1.323 378 439.488-67.788-315.819 192.087-0.315-379.89-443.331z" />
<glyph unicode="&#xe63b;" glyph-name="status-avilable" horiz-adv-x="1008" d="M503.734 952c-278.334 0-504-225.603-504-504 0-278.334 225.666-504 504-504s504 225.666 504 504c0 278.397-225.666 504-504 504zM251.734 385c-34.839 0-63 28.161-63 63s28.161 63 63 63c34.839 0 63-28.161 63-63s-28.161-63-63-63zM503.734 385c-34.839 0-63 28.161-63 63s28.224 63 63 63 63-28.161 63-63c0-34.839-28.161-63-63-63zM755.734 385c-34.839 0-63 28.161-63 63s28.161 63 63 63 63-28.161 63-63c0-34.839-28.161-63-63-63z" />
<glyph unicode="&#xe63c;" glyph-name="status-resize" d="M960 960h-896c-35.2 0-64-28.8-64-64v-448h192v319.36h-1.92l1.92 64.64h640v-190.080h128.64l-160.64-190.656-160 190.656h128v125.504h-510.72v-319.424h766.72v448c0 35.2-28.8 64-64 64zM576-64h384c35.2 0 64 28.8 64 64v384h-448v-448zM704 256h192v-192h-192v192zM224 384c-123.52 0-224-100.48-224-224s100.48-224 224-224c123.52 0 224 100.48 224 224s-100.544 224-224 224zM224 64c-53.12 0-96 42.88-96 96s42.88 96 96 96c53.12 0 96-42.88 96-96s-42.88-96-96-96z" />
<glyph unicode="&#xe63d;" glyph-name="status-delete" horiz-adv-x="1008" d="M503.734 952c-278.397 0-504-225.666-504-504s225.603-504 504-504c278.334 0 504 225.666 504 504s-225.666 504-504 504zM673.897 279.916c-26.712-26.712-69.93-26.712-96.642 0l-78.624 78.624-77.679-77.616c-24.633-24.696-64.512-24.696-89.145 0-24.57 24.633-24.633 64.386 0 89.082l77.742 77.679-73.899 73.836c-26.712 26.712-26.712 69.93 0 96.642 26.712 26.649 69.93 26.649 96.642 0l73.899-73.899 75.033 75.033c24.633 24.633 64.386 24.633 89.082 0 24.633-24.633 24.633-64.449 0-89.082l-75.033-75.033 78.624-78.624c26.712-26.649 26.712-69.93 0-96.642z" />
<glyph unicode="&#xe63e;" glyph-name="status-error" horiz-adv-x="1008" d="M503.734 952c-278.397 0-504-225.666-504-504s225.603-504 504-504c278.334 0 504 225.603 504 503.937 0 278.397-225.666 504.063-504 504.063zM498.505 95.2c0 0-246.771 90.594-246.771 223.335 0 129.717 113.841 178.416 169.407 271.845 38.052 64.071 36.162 210.42 36.162 210.42s172.746-104.454 165.753-218.295c-14.427-233.289-84.672-210.357-113.589-301.959-26.145-82.845-10.962-185.346-10.962-185.346zM656.068 166.201c-61.551-51.219-124.11-68.544-124.11-68.544s-13.545 93.303 6.93 149.625c19.971 54.747 61.047 72.198 85.68 135.261 31.374 80.010 33.453 194.985 33.453 194.985s97.713-142.506 97.713-237.006c0-81.648-53.109-135.513-99.666-174.321z" />
<glyph unicode="&#xe63f;" glyph-name="status-mount" d="M895.936 896h-768l-128-384 64-384h359.040c-10.944 20.48-19.2 41.6-25.6 64h-274.56l-58.879 256h359.040c10.88 22.976 24.96 44.096 41.536 64 64 78.144 161.857 128 271.36 128 109.376 0 207.36-49.856 271.36-128 2.496-3.2 5.12-6.4 6.912-9.6 2.56-2.496 8.384-14.208 9.536-17.344v26.944l-127.744 384zM1004.096 390.4c0 0.64 0 1.344 0 1.344-11.52 30.656-28.736 58.879-49.856 83.2-11.52 13.44-24.256 25.6-37.76 37.12-49.344 39.68-112 63.36-180.48 63.36-68.416 0-131.136-23.68-180.416-63.36-22.912-18.56-42.88-39.68-58.879-64-30.656-46.208-48.64-100.416-48.64-160 0-33.792 5.76-65.792 16.64-96 7.68-22.912 18.56-44.032 32-64 51.265-77.44 139.52-128 239.296-128 158.72 0 287.36 128.64 287.36 288 0 35.968-6.464 69.76-19.264 101.76v0.576zM936.96 372.48v-0.64l-235.456-261.696-22.4 17.856-112.768 90.24 38.528 59.52 94.016-77.44 187.584 226.56 51.328-51.2-0.832-3.2z" />
<glyph unicode="&#xe640;" glyph-name="status-noMount" d="M464 512c64.64 78.144 162.56 128 272 128s207.36-49.856 272-128c2.56-3.2 4.48-6.4 6.976-9.6 2.624-2.496 4.48-4.992 5.824-8.256l1.344 6.976 1.856 10.88-128 384h-768l-128-384 64-384h358.4c-10.816 20.48-19.2 41.6-24.96 64h-269.44l-64 256h358.4c11.456 22.976 25.6 44.096 41.6 64zM1004.096 391.68c-11.52 30.72-28.736 58.176-49.856 82.56-11.648 14.080-24.384 26.88-38.4 37.76-49.344 39.68-112 63.36-179.968 63.36s-130.432-23.68-179.776-63.36c-22.976-17.856-42.816-39.68-59.584-64-30.656-46.144-48.512-101.12-48.512-160.64 0-33.28 5.76-65.92 16.64-95.36 7.68-22.976 18.56-44.096 32-64 51.264-77.44 139.52-128 239.36-128 158.656 0 288 128.64 288 287.36 0 36.48-6.4 70.4-19.2 102.4 0 0.64 0 1.216-0.704 1.92zM640 256h-64v64h64v-64zM768 256h-64v64h64v-64zM896 256h-64v64h64v-64z" />
<glyph unicode="&#xe641;" glyph-name="status-normal" horiz-adv-x="1008" d="M503.734 952c-278.334 0-504-225.666-504-504s225.666-504 504-504c278.397 0 504 225.666 504 504s-225.603 504-504 504zM816.151 562.030l-286.524-324.261c0 0-28.665-39.186-49.644-39.942-20.664-0.63-49.329 23.499-49.329 23.499l-235.809 161.343c0 0-23.625 26.712-6.552 70.686 13.167 33.894 66.969 25.767 66.969 25.767l224.154-137.844 242.676 288.225c0 0 50.022 23.499 78.309-1.638 28.476-25.326 15.75-65.835 15.75-65.835z" />
<glyph unicode="&#xe642;" glyph-name="status-off" horiz-adv-x="1008" d="M503.734 952c-278.334 0-504-225.666-504-504s225.666-504 504-504 504 225.666 504 504c0 278.334-225.666 504-504 504zM503.734 69.937c-208.467 0-378 169.533-378 378s169.533 378 378 378c208.467 0 378-169.533 378-378s-169.533-378-378-378zM503.734 700c-34.839 0-63-28.224-63-63v-378c0-34.713 28.161-63 63-63s63 28.287 63 63v378c0 34.839-28.161 63-63 63z" />
<glyph unicode="&#xe643;" glyph-name="status-pause" horiz-adv-x="1008" d="M503.671 952c-278.397 0-503.937-225.603-503.937-504 0-278.334 225.54-504 503.937-504s504 225.666 504 504c0 278.397-225.729 504-504 504zM440.671 322c0-34.776-28.224-63-63-63s-63 28.224-63 63v252c0 34.776 28.224 63 63 63s63-28.224 63-63v-252zM692.671 322c0-34.776-28.161-63-63-63-34.776 0-63 28.224-63 63v252c0 34.776 28.224 63 63 63 34.839 0 63-28.224 63-63v-252z" />
<glyph unicode="&#xe644;" glyph-name="status-problem" horiz-adv-x="1008" d="M503.734 952c-278.334 0-504-225.666-504-504s225.666-504 504-504 504 225.666 504 504c0 278.334-225.666 504-504 504zM566.734 134.953h-126v124.047h126v-124.047zM566.734 352.051h-126v410.886h126v-410.886z" />
<glyph unicode="&#xe645;" glyph-name="status-rebulid" horiz-adv-x="1008" d="M887.841 737.305c0-52.358-42.444-94.802-94.802-94.802s-94.802 42.444-94.802 94.802c0 52.358 42.444 94.802 94.802 94.802s94.802-42.444 94.802-94.802zM1007.734 448.031c0-52.358-42.444-94.802-94.802-94.802s-94.802 42.444-94.802 94.802c0 52.358 42.444 94.802 94.802 94.802s94.802-42.444 94.802-94.802zM887.841 158.695c0-52.358-42.444-94.802-94.802-94.802s-94.802 42.444-94.802 94.802c0 52.358 42.444 94.802 94.802 94.802s94.802-42.444 94.802-94.802zM598.505 38.802c0-52.358-42.444-94.802-94.802-94.802s-94.802 42.444-94.802 94.802c0 52.358 42.444 94.802 94.802 94.802s94.802-42.444 94.802-94.802zM309.168 158.695c0-52.358-42.444-94.802-94.802-94.802s-94.802 42.444-94.802 94.802c0 52.358 42.444 94.802 94.802 94.802s94.802-42.444 94.802-94.802zM189.338 447.968c0-52.358-42.444-94.802-94.802-94.802s-94.802 42.444-94.802 94.802c0 52.358 42.444 94.802 94.802 94.802s94.802-42.444 94.802-94.802zM309.168 737.305c0-52.358-42.444-94.802-94.802-94.802s-94.802 42.444-94.802 94.802c0 52.358 42.444 94.802 94.802 94.802s94.802-42.444 94.802-94.802zM598.505 857.198c0-52.358-42.444-94.802-94.802-94.802s-94.802 42.444-94.802 94.802c0 52.358 42.444 94.802 94.802 94.802s94.802-42.444 94.802-94.802zM623.911 397.976h81.72c27.43 0 49.613 22.184 49.613 49.55s-22.247 49.549-49.613 49.549h-82.984l59.283 59.22c19.403 19.34 19.403 50.687 0 70.090-19.403 19.34-50.75 19.34-70.027 0l-58.714-58.714v82.352c0 27.367-22.184 49.549-49.55 49.549s-49.55-22.184-49.55-49.549v-82.225l-58.145 58.082c-19.34 19.403-50.75 19.403-70.090 0-19.34-19.34-19.34-50.687 0-70.027l58.777-58.777h-82.921c-27.367 0-49.55-22.184-49.55-49.549s22.184-49.549 49.55-49.549h81.72l-57.26-57.197c-19.34-19.403-19.34-50.814 0-70.090 19.34-19.403 50.75-19.403 70.090 0l57.829 57.766v-82.352c0-27.367 22.184-49.487 49.55-49.487 27.43 0 49.549 22.184 49.549 49.487v82.604l58.398-58.398c19.403-19.403 50.75-19.403 69.964 0 19.466 19.34 19.466 50.75 0 70.027l-57.64 57.64z" />
<glyph unicode="&#xe646;" glyph-name="status-restore" horiz-adv-x="1008" d="M503.671 952c-278.312 0-503.937-225.625-503.937-504s225.625-504 503.937-504c278.438 0 504.063 225.688 504.063 504 0 278.375-225.625 504-504.063 504zM503.671 70.047c-208.419 0-377.89 169.534-377.89 377.953s169.471 377.953 377.89 377.953c208.545 0 378.016-169.534 378.016-377.953s-169.471-377.953-378.016-377.953zM754.883 511.906h-99.955l70.65 70.713c24.642 24.642 24.642 64.474 0 89.115-24.705 24.642-64.474 24.642-89.115 0l-70.65-70.65v99.892c0 34.852-28.172 63.024-63.024 63.024s-63.024-28.172-63.024-63.024v-93.842l-75.566 75.629c-25.714 25.714-67.436 25.714-93.212 0-25.714-25.714-25.714-67.436 0-93.148l77.646-77.709h-97.938c-34.852 0-63.024-28.235-63.024-63.024s28.172-63.024 63.024-63.024h99.955l-70.65-70.65c-24.642-24.642-24.642-64.474 0-89.115s64.474-24.642 89.115 0l70.65 70.65v-99.955c0-34.789 28.172-63.024 63.024-63.024s63.024 28.235 63.024 63.024v98.001l77.646-77.583c25.651-25.651 67.373-25.651 93.212 0 25.714 25.714 25.714 67.373 0 93.148l-75.566 75.629h93.779c34.852 0 63.024 28.172 63.024 63.024 0 34.726-28.172 62.898-63.024 62.898z" />
<glyph unicode="&#xe647;" glyph-name="status-running" horiz-adv-x="1008" d="M503.734 952c-278.334 0-504-225.666-504-504s225.666-504 504-504 504 225.666 504 504-225.666 504-504 504zM799.771 395.395l-241.605-241.605c-26.649-26.712-69.93-26.712-96.642 0s-26.712 69.867 0 96.642l134.568 134.568h-344.358c-34.839 0-63 28.224-63 63s28.161 63 63 63h353.871l-116.046 116.046c-24.633 24.633-24.633 64.512 0 89.145 24.633 24.57 64.512 24.57 89.145 0l222.705-222.768c13.041-13.041 18.711-30.24 17.892-47.313 0.693-18.333-5.607-36.792-19.53-50.715z" />
<glyph unicode="&#xe648;" glyph-name="status-sleep" horiz-adv-x="960" d="M409.347 885.111v-402.978c0-37.683 30.515-68.267 68.267-68.267s68.267 30.583 68.267 68.267v402.978h7.714c-2.526 0.41-5.188 0.614-7.714 0.956v5.666c0 37.683-30.515 68.267-68.267 68.267s-68.267-30.583-68.267-68.267v-5.666c-2.526-0.341-5.052-0.546-7.578-0.956h7.578zM725.9 821.623l-1.229-2.185c-10.923 7.441-23.347 12.834-37.615 12.834-37.751 0-68.267-30.583-68.267-68.267 0-28.604 17.749-52.975 42.667-63.078l-0.137-0.273c94.549-60.826 157.628-166.298 157.628-286.788 0-188.211-153.054-341.333-341.333-341.333-188.143 0-341.333 153.122-341.333 341.333 0 122.743 65.741 229.649 163.226 289.792l-1.092 2.321c23.757 10.65 40.414 34.338 40.414 62.123 0 37.683-30.515 68.267-68.13 68.267-17.067 0-32.29-6.895-44.237-17.271-135.782-84.309-226.714-233.745-226.714-405.231 0-263.919 214.016-477.867 477.867-477.867s477.867 213.948 477.867 477.867c0 172.851-92.16 323.857-229.581 407.757z" />
<glyph unicode="&#xe649;" glyph-name="status-start" horiz-adv-x="1008" d="M503.77 952c-278.25 0-504.036-225.713-504.036-504.036s225.786-503.964 504.036-503.964c278.394 0 504.036 225.641 504.036 503.964s-225.641 504.036-504.036 504.036zM356.97 192.775v510.306l434.78-254.756-434.78-255.55z" />
<glyph unicode="&#xe64a;" glyph-name="status-stop" horiz-adv-x="1008" d="M503.77 952c-278.394 0-504.036-225.641-504.036-504.036 0-278.25 225.641-503.964 504.036-503.964 278.322 0 504.036 225.713 504.036 503.964 0 278.394-225.713 504.036-504.036 504.036zM718.89 233.061h-434.059v432.905h434.059v-432.905z" />
<glyph unicode="&#xe64b;" glyph-name="success" horiz-adv-x="1008" d="M503.734 952c-278.486 0-504-225.54-504-504 0-278.208 225.514-504 504-504 278.434 0 504 225.792 504 504 0 278.46-225.566 504-504 504zM754.448 565.936l-285.768-293.832c-8.064-8.29-19.404-11.314-29.962-9.046-12.096 5.040-19.934 14.364-20.664 15.346l-153.216 165.816c-9.576 10.584-6.552 28.754 6.552 40.824s31.5 13.582 41.102 3.276l134.542-145.63 261.046 268.354c12.348 12.878 32.786 13.13 45.638 0.53 12.852-12.374 13.078-32.76 0.73-45.638z" />
<glyph unicode="&#xe64c;" glyph-name="unify_valid" horiz-adv-x="1008" d="M503.734 952c-278.358 0-504-225.642-504-504s225.642-504 504-504 504 225.642 504 504-225.642 504-504 504zM572.464 106.479h-128.869v137.461h128.869v-137.461zM572.464 296.931h-128.869l-37.183 492.591h194.713l-28.661-492.591z" />
<glyph unicode="&#xe64d;" glyph-name="wrong" horiz-adv-x="1008" d="M503.731 952c-278.349 0-503.997-225.659-503.997-503.997 0-278.365 225.648-504.003 503.997-504.003 278.395 0 504.054 225.638 504.054 504.003 0 278.336-225.659 503.997-504.054 503.997zM503.731 118.552c-28.836 0-52.203 23.378-52.203 52.213s23.365 52.219 52.203 52.219c28.851 0 52.258-23.383 52.258-52.219s-23.406-52.213-52.258-52.213zM559.575 329.187c0-30.845-25.006-55.804-55.828-55.804-30.83 0-55.804 24.959-55.804 55.804v392.449c0 30.814 24.975 55.814 55.804 55.814 30.822 0 55.828-25.003 55.828-55.814v-392.449z" />
<glyph unicode="&#xe800;" glyph-name="dec-parlor" horiz-adv-x="1007" d="M503.376 905.137c252.398 0 457.707-205.309 457.707-457.707s-205.309-457.673-457.707-457.673c-252.398 0-457.707 205.309-457.707 457.707s205.309 457.673 457.707 457.673zM503.376 950.918c-278.041 0-503.454-225.413-503.454-503.454s225.413-503.454 503.454-503.454 503.454 225.413 503.454 503.454-225.413 503.454-503.454 503.454zM809.746 127.333h-528.762c-9.264 0-16.781 7.519-16.781 16.781s7.519 16.781 16.781 16.781h528.762c9.264 0 16.781-7.519 16.781-16.781s-7.519-16.781-16.781-16.781zM545.365 208.288c-11.512 0-22.354 4.464-30.476 12.586l-220.211 220.211c-16.748 16.849-16.748 44.204-0.033 60.985l220.211 220.211c16.312 16.312 44.707 16.245 61.018-0.033l220.177-220.177c16.816-16.781 16.816-44.17 0-60.985l-220.211-220.144c-8.088-8.156-18.93-12.654-30.476-12.654zM545.365 701.305c-2.55 0-4.967-0.94-6.78-2.786l-220.177-220.211c-3.692-3.692-3.692-9.834 0.033-13.56l220.144-220.144c3.591-3.591 9.969-3.557 13.493-0.033l220.244 220.211c3.726 3.692 3.726 9.834-0.033 13.593l-220.177 220.144c-1.812 1.846-4.195 2.786-6.746 2.786zM563.253 349.692c-4.498 0-8.962 1.779-12.25 5.303-6.31 6.746-5.974 17.386 0.772 23.73l123.246 115.459c6.78 6.31 17.419 5.974 23.73-0.772s5.974-17.386-0.772-23.73l-123.246-115.459c-3.255-3.021-7.35-4.531-11.479-4.531z" />
<glyph unicode="&#xe801;" glyph-name="apply-for" d="M893.383 567.185v-500.568h-774.689v762.766h512.482v128.357l-571.979 0.622c-35.218 0-59.688-28.84-59.688-64.048v-896.547c0-35.198 26.741-62.25 61.959-62.25h896.547c35.208 0 54.535 27.052 54.535 62.26v569.407h-119.185zM375.226 279.534l136.463 45.504-90.938 90.928zM556.469 370.492l317.004 316.993-90.305 90.256-317.004-316.964zM918.938 732.287l90.305 90.928-90.305 90.305-90.928-90.305 65.977-65.916z" />
<glyph unicode="&#xe802;" glyph-name="fast-buy" horiz-adv-x="1008" d="M188.713 257.101c0-34.653 28.374-64.948 63.034-64.948h566.938c34.543 0 62.916 28.843 62.916 63.496l126.061 504.368c0 34.653-28.363 60.122-63.034 60.122h-171.533v-116.297h108.5l-125.95-383.771h-440.989l-62.916 383.771h125.95v116.297h-118.387l-7.556 64.017c0 34.653-28.374 63.907-63.034 63.907h-125.95c-34.653 0-63.034-29.247-63.034-63.907s28.374-64.017 63.034-64.017h70.49l3.826-26.527c-6.28-10.116-11.382-18.965-11.382-31.641l63.024-504.867zM377.69 38.552c0-52.186-42.303-94.489-94.489-94.489s-94.489 42.303-94.489 94.489c0 52.186 42.303 94.489 94.489 94.489s94.489-42.303 94.489-94.489zM881.643 38.552c0-52.186-42.303-94.489-94.489-94.489s-94.489 42.303-94.489 94.489c0 52.186 42.303 94.489 94.489 94.489s94.489-42.303 94.489-94.489zM698.493 773.064l-94.595 1.922 88.161 173.082h-126.961l-109.9-232.587h94.037c0 0-84.069-275.085-93.185-298.564 15.012 26.469 242.437 356.153 242.437 356.153zM456.050 416.917c-0.559-0.963-0.893-1.639-0.852-1.756 0.058-0.176 0.383 0.57 0.852 1.756z" />
<glyph unicode="&#xe803;" glyph-name="buy" horiz-adv-x="1008" d="M944.9 825.998h-685.432l-7.572 63.004c0 34.636-28.356 63.004-63.004 63.004h-125.984c-34.648-0.012-63.004-28.367-63.004-63.004 0-34.648 28.356-63.004 63.004-63.004h70.575l3.745-28.984c-6.281-10.084-11.317-21.412-11.317-34.020l62.992-503.993c0-34.648 28.356-63.004 63.004-63.004h566.997c34.636 0 63.004 28.356 63.004 63.004l125.996 503.993c0 34.648-28.356 63.004-63.004 63.004zM755.901 322.004h-441.002l-63.004 377.998h630l-125.996-377.998zM377.903 38.506c0-52.19-42.309-94.5-94.5-94.5s-94.5 42.309-94.5 94.5c0 52.19 42.309 94.5 94.5 94.5s94.5-42.309 94.5-94.5zM881.897 38.506c0-52.19-42.309-94.5-94.5-94.5s-94.5 42.309-94.5 94.5c0 52.19 42.309 94.5 94.5 94.5s94.5-42.309 94.5-94.5z" />
<glyph unicode="&#xe900;" glyph-name="home" d="M1024 369.556l-512 397.426-512-397.428v162.038l512 397.426 512-397.428zM896 384v-384h-256v256h-256v-256h-256v384l384 288z" />
<glyph unicode="&#xe901;" glyph-name="security" d="M512 801.943c0 0-89.275-145.085-288.288-165.681 0 0 54.969-435.825 288.288-542.204 233.419 106.411 288.321 542.204 288.321 542.204-199.080 20.597-288.321 165.681-288.321 165.681zM512 130.245c-169.075 90.351-233.956 381.696-251.059 478.531 130.603 23.184 211.982 95.558 251.059 140.045 39.077-44.452 120.456-116.895 251.059-140.045-17.136-96.868-81.917-388.18-251.059-478.531zM512 952c-278.308 0-504-225.657-504-504s225.692-504 504-504c278.376 0 504 225.657 504 504s-225.624 504-504 504zM512-10.203c-252.672 0-458.203 205.532-458.203 458.203s205.532 458.203 458.203 458.203 458.203-205.532 458.203-458.203c0-252.672-205.532-458.203-458.203-458.203z" />
<glyph unicode="&#xe902;" glyph-name="bandwidth" d="M512 952c-278.308 0-504-225.692-504-504 0-278.376 225.692-504 504-504 278.376 0 504 225.624 504 504 0 278.308-225.624 504-504 504zM512-10.203c-252.672 0-458.203 205.532-458.203 458.203s205.532 458.203 458.203 458.203 458.203-205.532 458.203-458.203-205.532-458.203-458.203-458.203zM266.821 549.976c-9.274 0-16.8-7.527-16.8-16.8v-331.095c0-9.274 7.527-16.8 16.8-16.8s16.8 7.527 16.8 16.8v331.095c0 9.307-7.527 16.8-16.8 16.8zM434.821 727.82c-9.274 0-16.8-7.527-16.8-16.8v-508.905c0-9.274 7.527-16.8 16.8-16.8s16.8 7.527 16.8 16.8v508.905c0 9.274-7.527 16.8-16.8 16.8zM757.246 652.557c-9.274 0-16.8-7.527-16.8-16.8v-450.845c0-9.274 7.527-16.8 16.8-16.8s16.8 7.527 16.8 16.8v450.845c0 9.274-7.527 16.8-16.8 16.8zM602.82 506.733c-9.274 0-16.8-7.527-16.8-16.8v-287.817c0-9.274 7.527-16.8 16.8-16.8s16.8 7.527 16.8 16.8v287.817c0 9.274-7.527 16.8-16.8 16.8z" />
<glyph unicode="&#xe903;" glyph-name="firewall" d="M1016 448c0 278.343-225.657 504-504 504-216.552 0-400.68-136.886-471.979-328.608-3.326-3.091-5.444-7.392-5.444-12.231 0-0.604 0.269-1.108 0.336-1.68-17.169-50.769-26.914-104.932-26.914-161.482 0-278.376 225.657-504 504-504 217.324 0 401.99 137.827 472.752 330.624 3.124 3.057 5.107 7.291 5.107 11.996 0 0.471-0.202 0.806-0.235 1.243 16.834 50.367 26.376 104.093 26.376 160.137zM77.552 303.419c-15.187 45.528-23.755 94.013-23.755 144.581 0 51.206 8.837 100.329 24.394 146.362h605.035v-290.943h-605.673zM716.859 594.362h228.951c15.557-46.032 24.394-95.156 24.394-146.362 0-50.535-8.535-99.053-23.755-144.548h-229.589v290.908zM933.277 627.961h-548.217v251.731c0 2.822-0.873 5.342-2.083 7.695 40.959 12.063 84.201 18.816 129.024 18.816 188.798-0.033 351.188-114.812 421.277-278.241zM351.459 876.568v-248.607h-260.736c49.090 114.475 143.673 204.624 260.736 248.607zM89.883 269.819h261.576v-250.421c-117.701 44.252-212.721 135.105-261.576 250.421zM512-10.203c-44.991 0-88.368 6.787-129.461 18.917 1.445 2.453 2.52 5.208 2.52 8.299v252.773h309.792c1.68-0.571 3.36-1.041 5.208-1.041s3.528 0.504 5.208 1.041h228.883c-69.652-164.337-232.646-279.989-422.15-279.989z" />
<glyph unicode="&#xe904;" glyph-name="ip" d="M512 952c-278.376 0-504-225.657-504-504s225.624-504 504-504c278.308 0 504 225.657 504 504s-225.692 504-504 504zM512-10.203c-252.672 0-458.203 205.532-458.203 458.203s205.532 458.203 458.203 458.203 458.203-205.532 458.203-458.203-205.532-458.203-458.203-458.203zM774.113 206.080c-70.224-69.519-163.296-107.823-262.113-107.823-100.498 0-194.712 39.379-265.306 110.913-6.519 6.585-17.169 6.652-23.755 0.168-6.619-6.519-6.687-17.169-0.168-23.755 76.944-77.985 179.659-120.927 289.229-120.927 107.721 0 209.193 41.732 285.735 117.532 6.585 6.519 6.652 17.169 0.135 23.788-6.519 6.552-17.136 6.619-23.755 0.1zM333.18 663.073h51.912v-392.28h-51.912v392.28zM528.532 430.327h100.598c55.44 0 93.844 11.525 115.114 34.608 21.201 23.117 31.819 51.341 31.819 84.705 0 19.421-3.999 37.229-11.928 53.491s-18.379 28.863-31.45 37.867c-13.004 9.072-29.199 15.12-48.417 18.346-13.708 2.52-33.668 3.73-59.64 3.73h-147.974v-392.28h51.912v159.533zM528.532 616.773h100.329c23.553 0 39.716-1.143 48.417-3.461 13.575-3.763 24.494-11.457 32.827-23.151 8.266-11.727 12.398-25.737 12.398-42.168 0-22.613-7.023-40.22-21.135-52.685s-37.935-18.748-71.468-18.748h-101.404v140.212z" />
<glyph unicode="&#xe905;" glyph-name="pencil" d="M864 960c88.364 0 160-71.634 160-160 0-36.020-11.91-69.258-32-96l-64-64-224 224 64 64c26.742 20.090 59.978 32 96 32zM64 224l-64-288 288 64 592 592-224 224-592-592zM715.578 596.422l-448-448-55.156 55.156 448 448 55.156-55.156z" />
<glyph unicode="&#xe906;" glyph-name="pencil2" d="M384 320l128 64 448 448-64 64-448-448-64-128zM289.3 92.902c-31.632 66.728-65.666 100.762-132.396 132.394l99.096 272.792 128 77.912 384 384h-192l-384-384-192-640 640 192 384 384v192l-384-384-77.912-128z" />
<glyph unicode="&#xe907;" glyph-name="route" d="M512 952c-278.376 0-504-225.657-504-504 0-278.376 225.624-504 504-504 278.308 0 504 225.624 504 504 0 278.343-225.692 504-504 504zM512-10.203c-252.672 0-458.203 205.532-458.203 458.203 0 252.639 205.532 458.169 458.203 458.169s458.203-205.532 458.203-458.169c0-252.672-205.532-458.203-458.203-458.203zM413.014 692.809l87.092 87.125 0.033-190.412c0-9.005 7.258-16.228 16.195-16.228 4.469-0.033 8.535 1.814 11.457 4.771 2.991 2.957 4.805 6.989 4.738 11.457l0.033 190.412 87.057-87.057c6.35-6.35 16.599-6.317 22.982 0 6.35 6.35 6.35 16.599 0 22.982l-114.71 114.677c-0.067 0.067-0.1 0.1-0.168 0.168l-11.39 11.39-126.302-126.336c-6.317-6.35-6.317-16.599 0-22.982 6.417-6.35 16.632-6.283 22.982 0.033zM619.621 210.751l-87.057-87.092-0.033 190.377c0.067 4.469-1.747 8.535-4.738 11.492-2.924 2.957-6.989 4.805-11.457 4.738-8.972 0-16.195-7.224-16.195-16.195l-0.033-190.445-87.092 87.159c-6.317 6.317-16.565 6.35-22.982 0-6.317-6.35-6.317-16.665 0-22.982l126.269-126.269 11.357 11.357c0.1 0.1 0.168 0.168 0.269 0.269l114.677 114.643c6.35 6.35 6.35 16.599 0 22.982-6.384 6.283-16.599 6.35-22.982-0.033zM397.659 463.153c-0.033 0.033-0.1 0.1-0.168 0.168l-114.71 114.71c-6.35 6.384-16.599 6.35-22.949 0-6.317-6.317-6.35-16.599 0-22.949l87.092-87.092-190.412-0.033c-4.469 0.033-8.501-1.747-11.457-4.738-2.957-2.957-4.805-7.023-4.805-11.457 0-8.972 7.291-16.228 16.228-16.228l190.412-0.033-87.092-87.057c-6.317-6.35-6.35-16.599 0-22.982 6.317-6.317 16.632-6.317 22.949 0l126.302 126.269-11.39 11.424zM877.467 463.255c-2.957 2.991-6.956 4.771-11.424 4.738l-190.412 0.033 87.057 87.092c6.35 6.317 6.35 16.632 0 22.949-6.317 6.35-16.532 6.384-22.915 0l-126.336-126.235 126.336-126.269c6.317-6.317 16.599-6.317 22.915 0 6.35 6.35 6.35 16.599 0 22.982l-87.057 87.057 190.412 0.033c8.937 0 16.195 7.291 16.195 16.228 0.033 4.368-1.814 8.433-4.771 11.39z" />
<glyph unicode="&#xe908;" glyph-name="shhkey" d="M512 952c-278.376 0-504-225.624-504-504 0-278.308 225.624-504 504-504 278.308 0 504 225.692 504 504 0 278.376-225.692 504-504 504zM512-10.203c-252.672 0-458.203 205.532-458.203 458.203s205.532 458.203 458.203 458.203 458.203-205.532 458.203-458.203-205.532-458.203-458.203-458.203zM761.312 368.805c-6.552 6.552-17.203 6.552-23.755 0l-78.087-78.153-183.154 183.154c49.796 61.857 46.737 152.175-10.684 209.597-30.744 30.744-71.031 46.133-111.317 46.133s-80.64-15.389-111.384-46.133c-61.421-61.421-61.421-161.112 0.067-222.6 30.744-30.744 71.064-46.133 111.351-46.133 34.911 0 69.452 12.264 98.18 35.38l281.4-281.4c3.293-3.293 7.593-4.905 11.894-4.905s8.601 1.647 11.894 4.905c6.552 6.552 6.552 17.203 0 23.755l-74.492 74.492 78.087 78.153c6.552 6.552 6.552 17.169 0 23.755zM354.383 448.269c-33.096 0-64.21 12.902-87.596 36.288s-36.288 54.499-36.288 87.561 12.869 64.143 36.221 87.494c23.386 23.386 54.499 36.288 87.561 36.288s64.176-12.902 87.561-36.288c48.317-48.317 48.317-126.84 0-175.157-23.352-23.319-54.432-36.188-87.461-36.188z" />
<glyph unicode="&#xe909;" glyph-name="subnet" d="M512 952c-278.376 0-504-225.624-504-504 0-278.308 225.624-504 504-504 278.308 0 504 225.692 504 504 0 278.376-225.692 504-504 504zM512-10.203c-252.672 0-458.203 205.532-458.203 458.203s205.532 458.203 458.203 458.203 458.203-205.532 458.203-458.203-205.532-458.203-458.203-458.203zM770.35 600.779c-16.263 0-31.55-6.35-43.109-17.909-5.376-5.376-9.374-11.592-12.331-18.177l-355.589 89.645c1.21 17.069-4.436 34.474-17.438 47.443-11.525 11.525-26.88 17.909-43.209 17.909-16.263 0-31.584-6.35-43.142-17.909-23.755-23.755-23.755-62.529 0-86.284 11.592-11.559 26.914-17.909 43.176-17.909 1.445 0 2.822 0.336 4.234 0.437l89.612-355.488c-6.619-2.991-12.802-7.056-18.111-12.365-23.788-23.755-23.788-62.463-0.033-86.284 11.559-11.559 26.847-17.842 43.176-17.842 16.263 0 31.617 6.317 43.176 17.842 21.168 21.235 23.352 54.23 6.787 77.985l267.96 267.893c10.18-7.123 22.176-11.055 34.809-11.055 16.33 0 31.617 6.35 43.176 17.909s17.909 26.847 17.909 43.176c0 16.263-6.35 31.617-17.909 43.176-11.492 11.424-26.779 17.808-43.142 17.808zM413.384 247.61l-89.612 355.455c6.652 3.024 12.802 7.089 18.144 12.398 5.376 5.342 9.341 11.559 12.298 18.111l355.589-89.679c-0.941-13.575 2.52-27.351 10.617-39.010l-267.96-267.926c-10.18 7.123-22.209 11.055-34.843 11.055-1.445 0.033-2.822-0.302-4.234-0.404z" />
<glyph unicode="&#xe90a;" glyph-name="vpc-dashboard-small" d="M512 952c-278.376 0-504-225.624-504-504s225.624-504 504-504 504 225.624 504 504-225.624 504-504 504zM512-5.6c-250.119 0-453.6 203.481-453.6 453.6s203.481 453.6 453.6 453.6 453.6-203.481 453.6-453.6-203.481-453.6-453.6-453.6zM714.137 571.615c-7.023 0-13.81-0.571-20.564-1.412l-9.105-1.108-1.983 8.972c-18.548 84.303-94.617 145.488-180.936 145.488-102.043 0-185.237-83.025-185.472-185.068l-0.033-7.929c-0.369-0.975-0.672-2.016-0.773-3.091l-10.248 1.008c-5.275 0.537-10.651 0.908-16.095 0.908-79.834 0-144.783-64.949-144.783-144.783 0-79.867 64.949-144.883 144.783-144.883l4.872 0.302 420.369 0.202c91.426 0 165.783 74.323 165.783 165.648-0.067 91.392-74.424 165.749-165.816 165.749zM404.984 379.993l-51.543 131.14 144.548-10.92-93.005-120.221zM714.071 270.492l-4.436-0.202-420.74-0.302c-63.168 0-114.508 51.408-114.508 114.61 0 63.168 51.341 114.508 114.508 114.508 4.267 0 8.433-0.269 12.432-0.706 1.545-0.168 3.091-0.269 4.671-0.269 7.258 0 14.649 2.52 21.974 7.493l0.504 0.336 59.774-152.208c1.949-4.973 6.687-7.997 11.727-7.997 0.873 0 1.781 0.336 2.688 0.537 0.537-0.067 0.975-0.537 1.512-0.537 3.763 0 7.493 1.68 9.98 4.905l118.305 152.914c4.234 5.511 3.259 13.406-2.251 17.673-2.856 2.184-6.317 2.957-9.609 2.42-0.202 0.033-0.336 0.168-0.537 0.168l-173.78 13.171 0.369 1.108 0.369 7.593c4.099 82.756 72.005 147.605 154.56 147.605 72.207 0 135.878-51.173 151.402-121.699 4.032-18.346 20.597-31.652 39.379-31.652 1.479 0 2.957 0.067 4.805 0.336 5.611 0.672 11.188 1.143 17.036 1.143 74.727 0 135.509-60.782 135.509-135.476-0.067-74.76-60.884-135.476-135.643-135.476z" />
<glyph unicode="&#xe90b;" glyph-name="vpn" d="M512 952c-278.343 0-504-225.657-504-504s225.657-504 504-504 504 225.657 504 504-225.657 504-504 504zM512-10.203c-252.672 0-458.203 205.532-458.203 458.203s205.532 458.203 458.203 458.203 458.203-205.532 458.203-458.203-205.532-458.203-458.203-458.203zM595.060 673.12c-7.493-5.511-9.105-15.993-3.595-23.486l82.689-112.761h-357.436c-9.274 0-16.8-7.527-16.8-16.8s7.527-16.8 16.8-16.8h423.764l-121.901 166.253c-5.544 7.493-16.028 9.105-23.52 3.595zM707.317 392.728h-423.764l121.901-166.253c3.293-4.469 8.4-6.854 13.575-6.854 3.461 0 6.921 1.041 9.912 3.259 7.493 5.511 9.105 15.993 3.595 23.486l-82.689 112.761h357.436c9.274 0 16.8 7.527 16.8 16.8s-7.493 16.8-16.767 16.8z" />
<glyph unicode="&#xe90c;" glyph-name="add-button" d="M512.006-58.767c-43.914 0-79.64 35.738-79.64 79.64v375.079h-347.528c-43.914 0-79.64 35.715-79.64 79.628 0 43.902 35.726 79.628 79.64 79.628h347.54v319.93c0 43.914 35.715 79.628 79.628 79.628 43.902 0 79.64-35.726 79.64-79.628v-319.917h347.553c43.89 0 79.605-35.738 79.605-79.64 0-43.914-35.738-79.628-79.628-79.628h-347.528v-375.079c0-43.914-35.726-79.64-79.64-79.64z" />
<glyph unicode="&#xe90d;" glyph-name="subnet_solid" d="M353.949 633.572c-2.957-6.552-6.956-12.768-12.298-18.111-5.309-5.309-11.492-9.374-18.144-12.398l89.612-355.455c1.412 0.1 2.789 0.437 4.234 0.437 12.633 0 24.663-3.932 34.843-11.055l267.96 267.926c-8.097 11.659-11.592 25.435-10.617 39.010l-355.589 89.645zM511.734 952c-278.343 0-504-225.657-504-504s225.657-504 504-504c278.376 0 504 225.657 504 504s-225.624 504-504 504zM813.294 496.552c-11.559-11.559-26.847-17.909-43.176-17.909-12.633 0-24.629 3.932-34.809 11.055l-267.96-267.893c16.565-23.755 14.381-56.75-6.787-77.985-11.559-11.559-26.914-17.842-43.176-17.842-16.33 0-31.617 6.317-43.176 17.842-23.755 23.823-23.755 62.529 0.033 86.284 5.275 5.309 11.457 9.374 18.111 12.365l-89.612 355.488c-1.412-0.1-2.789-0.437-4.234-0.437-16.263 0-31.584 6.35-43.176 17.909-23.755 23.755-23.755 62.529 0 86.284 11.559 11.559 26.88 17.909 43.142 17.909 16.296 0 31.652-6.35 43.209-17.909 13.004-12.969 18.615-30.375 17.438-47.443l355.589-89.645c2.957 6.585 6.956 12.802 12.331 18.177 11.559 11.559 26.847 17.909 43.109 17.909 16.33 0 31.617-6.35 43.176-17.842 11.559-11.559 17.909-26.914 17.909-43.176-0.033-16.296-6.417-31.584-17.942-43.142z" />
<glyph unicode="&#xe90e;" glyph-name="status-running2" horiz-adv-x="791" d="M716.61 522.344c-41.075 0-74.39-33.314-74.39-74.39s33.363-74.39 74.39-74.39c41.124 0 74.39 33.363 74.39 74.39 0 41.124-33.314 74.39-74.39 74.39zM570.006 273.571c-29.064-29.064-29.064-76.218 0-105.282s76.169-29.014 105.184 0 29.064 76.218 0 105.282c-29.064 29.014-76.169 29.014-105.184 0zM395.525 843.527c-41.124 0-74.39-33.363-74.39-74.39s33.314-74.39 74.39-74.39 74.39 33.363 74.39 74.39-33.363 74.39-74.39 74.39zM395.525 201.306c-41.124 0-74.39-33.314-74.39-74.39s33.314-74.39 74.39-74.39 74.39 33.314 74.39 74.39-33.363 74.39-74.39 74.39zM115.811 727.667c-29.014-29.064-29.014-76.169 0-105.184 29.064-29.064 76.218-29.064 105.282 0 29.014 29.064 29.014 76.169 0 105.184-29.064 29.064-76.218 29.064-105.282 0zM115.811 273.571c-29.014-29.064-29.014-76.218 0-105.282 29.064-29.014 76.218-29.014 105.282 0 29.014 29.014 29.014 76.218 0 105.282-29.064 29.014-76.218 29.014-105.282 0zM148.78 447.955c0 41.124-33.363 74.39-74.39 74.39-41.124 0-74.39-33.314-74.39-74.39s33.314-74.39 74.39-74.39c41.075 0 74.39 33.363 74.39 74.39zM675.189 622.434c29.064 29.064 29.064 76.169 0 105.184s-76.169 29.064-105.184 0-29.064-76.169 0-105.184 76.169-29.064 105.184 0z" />
<glyph unicode="&#xe90f;" glyph-name="refresh" horiz-adv-x="1220" d="M706.307 924.376c-250.068 0-454.991-193.038-473.933-438.233h-194.504l243.595-254.067 245.873 254.067h-183.923c18.62 185.323 175.094 330.044 365.32 330.044 202.831 0 367.251-164.421 367.251-367.177 0-202.826-164.419-367.242-367.251-367.242-78.102 0-150.494 24.413-210.011 65.998l-76.902-79.573c79.319-59.333 177.797-94.474 284.49-94.474 262.488 0 475.286 212.811 475.286 475.295 0 262.552-212.799 475.363-475.286 475.363v0z" />
<glyph unicode="&#xe910;" glyph-name="backup-immediately" horiz-adv-x="724" d="M180.427 629.362h167.858l194.705-178.904-194.705-183.816h-167.858l194.67 178.867-194.67 183.856zM633.545 764.787h-543.089c-49.974 0-90.519-40.513-90.519-90.519v-452.536c0-49.976 40.546-90.519 90.519-90.519h543.089c49.976 0 90.519 40.513 90.519 90.519v452.536c0 49.974-40.513 90.519-90.519 90.519zM678.808 266.955c0-49.974-40.513-90.487-90.519-90.487h-452.569c-49.974 0-90.519 40.513-90.519 90.487v362.050c0 49.976 40.546 90.519 90.519 90.519h452.569c49.976 0 90.519-40.513 90.519-90.519v-362.050z" />
<glyph unicode="&#xe92e;" glyph-name="stack" d="M1024 640l-512 256-512-256 512-256 512 256zM512 811.030l342.058-171.030-342.058-171.030-342.058 171.030 342.058 171.030zM921.444 499.278l102.556-51.278-512-256-512 256 102.556 51.278 409.444-204.722zM921.444 307.278l102.556-51.278-512-256-512 256 102.556 51.278 409.444-204.722z" />
<glyph unicode="&#xe982;" glyph-name="spinner9" d="M512 960c-278.748 0-505.458-222.762-511.848-499.974 5.92 241.864 189.832 435.974 415.848 435.974 229.75 0 416-200.576 416-448 0-53.020 42.98-96 96-96s96 42.98 96 96c0 282.77-229.23 512-512 512zM512-64c278.748 0 505.458 222.762 511.848 499.974-5.92-241.864-189.832-435.974-415.848-435.974-229.75 0-416 200.576-416 448 0 53.020-42.98 96-96 96s-96-42.98-96-96c0-282.77 229.23-512 512-512z" />
<glyph unicode="&#xe983;" glyph-name="spinner10" d="M0.042 446.382l-0.022-0.004c0 0 0.012-0.090 0.028-0.222 0.11-3.878 0.55-7.676 1.322-11.352 0.204-1.746 0.428-3.66 0.674-5.774 0.222-1.886 0.46-3.914 0.718-6.078 0.374-2.566 0.77-5.292 1.19-8.176 0.856-5.746 1.8-12.124 2.908-18.958 1.348-6.446 2.804-13.414 4.364-20.864 0.71-3.718 1.776-7.504 2.786-11.406 1.024-3.89 2.078-7.894 3.16-12.004 0.566-2.042 1.040-4.132 1.708-6.208 0.656-2.074 1.32-4.176 1.988-6.3 1.348-4.234 2.726-8.566 4.136-12.988 0.352-1.106 0.708-2.21 1.064-3.324 0.408-1.102 0.814-2.208 1.226-3.316 0.826-2.218 1.658-4.458 2.502-6.714 1.696-4.496 3.422-9.078 5.18-13.742 1.968-4.566 3.97-9.214 6.004-13.934 1.018-2.348 2.044-4.714 3.078-7.098 1.048-2.376 2.27-4.704 3.408-7.074 2.322-4.714 4.678-9.496 7.062-14.332 2.47-4.786 5.208-9.512 7.846-14.328 1.336-2.398 2.68-4.808 4.028-7.23 1.368-2.41 2.902-4.75 4.356-7.14 2.95-4.738 5.93-9.524 8.934-14.348 12.64-18.894 26.676-37.566 42.21-55.278 15.712-17.578 32.726-34.25 50.692-49.602 18.18-15.136 37.264-28.902 56.726-41.114 19.604-12.036 39.644-22.312 59.376-31.144 5.004-2.040 9.964-4.062 14.878-6.066 2.462-0.972 4.868-2.032 7.336-2.918 2.47-0.868 4.93-1.734 7.376-2.594 4.898-1.684 9.678-3.468 14.484-4.992 4.832-1.43 9.604-2.844 14.312-4.242 2.356-0.672 4.66-1.426 7.004-2.012 2.346-0.574 4.676-1.14 6.986-1.704 4.606-1.118 9.142-2.214 13.604-3.296 4.5-0.868 8.926-1.722 13.27-2.558 2.166-0.41 4.31-0.82 6.434-1.222 1.062-0.2 2.118-0.398 3.166-0.598 1.060-0.148 2.118-0.292 3.166-0.442 4.192-0.582 8.292-1.152 12.3-1.71 1.998-0.274 3.972-0.546 5.922-0.816 1.946-0.286 3.904-0.378 5.814-0.57 3.822-0.336 7.544-0.664 11.164-0.98 3.616-0.304 7.104-0.688 10.526-0.738 0.23-0.008 0.452-0.016 0.682-0.026 0.614-34.812 29.008-62.846 63.968-62.846 0.542 0 1.080 0.028 1.62 0.042v-0.022c0 0 0.090 0.012 0.224 0.028 3.878 0.11 7.674 0.55 11.35 1.322 1.748 0.204 3.662 0.426 5.776 0.672 1.884 0.222 3.912 0.462 6.076 0.718 2.566 0.376 5.292 0.772 8.176 1.192 5.746 0.856 12.124 1.8 18.958 2.908 6.446 1.348 13.414 2.804 20.864 4.362 3.718 0.712 7.504 1.778 11.406 2.786 3.892 1.026 7.894 2.080 12.004 3.162 2.044 0.566 4.132 1.040 6.208 1.708 2.074 0.656 4.174 1.318 6.3 1.988 4.232 1.348 8.564 2.726 12.988 4.134 1.104 0.354 2.21 0.708 3.324 1.066 1.1 0.406 2.206 0.814 3.316 1.226 2.216 0.824 4.456 1.658 6.714 2.5 4.496 1.698 9.078 3.424 13.74 5.182 4.568 1.968 9.216 3.97 13.936 6.004 2.348 1.018 4.714 2.044 7.098 3.078 2.376 1.048 4.702 2.27 7.074 3.408 4.714 2.322 9.494 4.678 14.33 7.062 4.786 2.47 9.512 5.208 14.328 7.846 2.398 1.336 4.808 2.678 7.23 4.028 2.41 1.366 4.75 2.9 7.14 4.354 4.738 2.952 9.524 5.93 14.35 8.936 18.89 12.64 37.564 26.674 55.278 42.21 17.574 15.712 34.248 32.726 49.602 50.69 15.136 18.182 28.902 37.264 41.112 56.728 12.036 19.602 22.314 39.644 31.142 59.376 2.042 5.002 4.062 9.964 6.068 14.878 0.974 2.462 2.032 4.868 2.918 7.334 0.87 2.472 1.732 4.932 2.592 7.376 1.686 4.898 3.468 9.678 4.994 14.484 1.432 4.832 2.846 9.604 4.24 14.31 0.674 2.358 1.43 4.66 2.016 7.004 0.57 2.348 1.138 4.676 1.702 6.988 1.118 4.606 2.216 9.14 3.296 13.602 0.868 4.502 1.72 8.928 2.558 13.272 0.41 2.164 0.818 4.308 1.222 6.434 0.2 1.060 0.398 2.116 0.596 3.164 0.148 1.062 0.296 2.118 0.444 3.168 0.582 4.19 1.152 8.292 1.708 12.3 0.278 1.996 0.55 3.97 0.82 5.922 0.284 1.946 0.376 3.902 0.568 5.812 0.336 3.822 0.664 7.546 0.98 11.164 0.304 3.616 0.686 7.106 0.738 10.528 0.020 0.534 0.040 1.044 0.058 1.574 35.224 0.146 63.732 28.738 63.732 63.992 0 0.542-0.028 1.080-0.042 1.62h0.022c0 0-0.012 0.090-0.028 0.224-0.11 3.878-0.55 7.674-1.322 11.35-0.204 1.748-0.428 3.662-0.674 5.776-0.222 1.886-0.46 3.914-0.718 6.076-0.374 2.566-0.77 5.294-1.19 8.176-0.856 5.746-1.8 12.124-2.908 18.958-1.348 6.444-2.804 13.414-4.364 20.862-0.71 3.72-1.776 7.506-2.786 11.408-1.024 3.892-2.078 7.894-3.16 12.002-0.566 2.044-1.040 4.134-1.708 6.208-0.656 2.076-1.32 4.174-1.988 6.3-1.348 4.234-2.726 8.566-4.136 12.99-0.352 1.102-0.708 2.21-1.064 3.324-0.408 1.1-0.814 2.206-1.226 3.316-0.826 2.216-1.658 4.454-2.502 6.714-1.696 4.498-3.422 9.080-5.18 13.74-1.968 4.57-3.97 9.216-6.004 13.936-1.020 2.348-2.044 4.714-3.078 7.098-1.048 2.376-2.27 4.702-3.408 7.076-2.322 4.714-4.678 9.494-7.062 14.33-2.47 4.786-5.208 9.512-7.846 14.328-1.336 2.398-2.68 4.808-4.028 7.23-1.368 2.41-2.902 4.75-4.356 7.14-2.95 4.74-5.93 9.524-8.934 14.35-12.64 18.892-26.676 37.564-42.21 55.278-15.712 17.576-32.726 34.25-50.692 49.602-18.18 15.136-37.264 28.902-56.726 41.112-19.604 12.036-39.644 22.314-59.376 31.142-5.004 2.040-9.964 4.062-14.878 6.068-2.462 0.974-4.868 2.032-7.336 2.918-2.47 0.87-4.93 1.734-7.376 2.592-4.898 1.684-9.678 3.468-14.484 4.994-4.832 1.432-9.604 2.846-14.312 4.242-2.356 0.672-4.66 1.428-7.004 2.014-2.346 0.572-4.676 1.138-6.986 1.702-4.606 1.118-9.142 2.216-13.604 3.298-4.5 0.868-8.926 1.72-13.27 2.558-2.166 0.412-4.31 0.82-6.434 1.222-1.062 0.2-2.118 0.398-3.166 0.596-1.060 0.148-2.118 0.296-3.166 0.442-4.192 0.584-8.292 1.154-12.3 1.71-1.998 0.276-3.972 0.55-5.922 0.82-1.946 0.284-3.904 0.376-5.814 0.57-3.822 0.336-7.544 0.664-11.164 0.98-3.616 0.304-7.104 0.686-10.526 0.738-0.852 0.032-1.674 0.062-2.512 0.092-0.65 34.78-29.028 62.778-63.966 62.778-0.542 0-1.080-0.028-1.62-0.042l-0.002 0.022c0 0-0.090-0.012-0.222-0.028-3.878-0.11-7.676-0.55-11.352-1.322-1.748-0.204-3.662-0.426-5.776-0.672-1.884-0.222-3.912-0.462-6.076-0.718-2.566-0.376-5.292-0.772-8.176-1.192-5.746-0.856-12.124-1.8-18.958-2.908-6.446-1.348-13.414-2.804-20.864-4.362-3.718-0.712-7.504-1.778-11.406-2.786-3.892-1.026-7.894-2.080-12.004-3.162-2.044-0.566-4.132-1.040-6.208-1.708-2.074-0.656-4.174-1.318-6.3-1.988-4.232-1.348-8.564-2.726-12.988-4.134-1.104-0.354-2.21-0.708-3.324-1.066-1.1-0.406-2.206-0.814-3.316-1.226-2.216-0.824-4.456-1.658-6.714-2.5-4.496-1.698-9.078-3.424-13.74-5.182-4.568-1.968-9.216-3.97-13.936-6.004-2.348-1.018-4.714-2.044-7.098-3.078-2.376-1.048-4.702-2.27-7.074-3.408-4.714-2.322-9.494-4.678-14.33-7.062-4.786-2.47-9.512-5.208-14.328-7.846-2.398-1.336-4.808-2.678-7.23-4.028-2.41-1.366-4.75-2.9-7.14-4.354-4.738-2.952-9.524-5.93-14.35-8.936-18.89-12.64-37.564-26.674-55.278-42.21-17.574-15.712-34.248-32.726-49.602-50.69-15.136-18.182-28.902-37.264-41.112-56.728-12.036-19.602-22.314-39.644-31.142-59.376-2.042-5.002-4.062-9.964-6.068-14.878-0.974-2.462-2.032-4.868-2.918-7.334-0.87-2.472-1.732-4.932-2.592-7.376-1.686-4.898-3.468-9.678-4.994-14.484-1.432-4.832-2.846-9.604-4.24-14.31-0.674-2.358-1.43-4.66-2.016-7.004-0.57-2.348-1.138-4.676-1.702-6.988-1.118-4.606-2.216-9.14-3.296-13.602-0.868-4.502-1.72-8.928-2.558-13.272-0.41-2.164-0.818-4.308-1.222-6.434-0.2-1.060-0.398-2.116-0.596-3.164-0.148-1.062-0.296-2.118-0.444-3.168-0.582-4.19-1.152-8.292-1.708-12.3-0.278-1.996-0.55-3.97-0.82-5.922-0.284-1.946-0.376-3.902-0.568-5.812-0.336-3.822-0.664-7.546-0.98-11.164-0.304-3.616-0.686-7.106-0.738-10.528-0.020-0.548-0.040-1.076-0.058-1.62-34.376-1.112-61.902-29.304-61.902-63.946 0-0.542 0.028-1.078 0.042-1.618zM73.518 511.294c0.042 0.196 0.086 0.384 0.128 0.58 0.644 3.248 1.632 6.542 2.556 9.942 0.934 3.388 1.894 6.876 2.88 10.454 0.516 1.78 0.934 3.602 1.546 5.406 0.596 1.802 1.202 3.628 1.81 5.476 1.218 3.682 2.464 7.45 3.736 11.294 0.316 0.958 0.634 1.924 0.956 2.892 0.37 0.954 0.74 1.914 1.114 2.876 0.746 1.924 1.5 3.868 2.26 5.83 1.52 3.904 3.070 7.882 4.646 11.93 1.768 3.96 3.566 7.99 5.392 12.080 0.908 2.038 1.824 4.090 2.746 6.156 0.932 2.060 2.036 4.072 3.052 6.126 2.070 4.084 4.17 8.222 6.294 12.412 2.202 4.142 4.654 8.224 6.998 12.392 1.184 2.074 2.374 4.16 3.57 6.256 1.21 2.086 2.586 4.102 3.876 6.166 2.616 4.098 5.256 8.232 7.918 12.402 11.234 16.298 23.632 32.398 37.33 47.638 13.874 15.104 28.842 29.404 44.598 42.548 15.974 12.928 32.686 24.65 49.676 35.022 17.13 10.194 34.6 18.838 51.734 26.258 4.35 1.7 8.662 3.382 12.934 5.050 2.136 0.812 4.216 1.71 6.36 2.444 2.146 0.714 4.28 1.428 6.404 2.136 4.25 1.386 8.382 2.888 12.548 4.142 4.184 1.174 8.314 2.332 12.392 3.474 2.038 0.55 4.026 1.19 6.054 1.662 2.030 0.458 4.044 0.914 6.044 1.368 3.978 0.91 7.896 1.806 11.748 2.688 3.888 0.686 7.71 1.36 11.462 2.022 1.868 0.33 3.716 0.658 5.546 0.98 0.914 0.162 1.824 0.324 2.728 0.484 0.916 0.112 1.828 0.222 2.734 0.332 3.612 0.448 7.148 0.882 10.604 1.31 1.72 0.216 3.422 0.432 5.102 0.644 1.674 0.226 3.364 0.266 5.010 0.408 3.292 0.238 6.498 0.472 9.616 0.7 3.11 0.218 6.11 0.524 9.058 0.508 5.848 0.132 11.32 0.256 16.38 0.372 4.664-0.168 8.948-0.324 12.818-0.462 1.914-0.054 3.726-0.108 5.432-0.156 2.122-0.134 4.108-0.26 5.958-0.378 2.13-0.138 4.060-0.266 5.82-0.38 3.256-0.51 6.592-0.782 9.99-0.782 0.466 0 0.93 0.026 1.396 0.036 0.132-0.008 0.224-0.014 0.224-0.014v0.020c31.14 0.778 56.75 23.784 61.556 53.754 0.542-0.12 1.064-0.236 1.612-0.356 3.246-0.644 6.542-1.632 9.942-2.556 3.386-0.934 6.876-1.894 10.454-2.88 1.778-0.516 3.602-0.934 5.404-1.546 1.802-0.596 3.63-1.202 5.478-1.812 3.68-1.218 7.448-2.464 11.292-3.736 0.96-0.316 1.924-0.634 2.892-0.956 0.956-0.37 1.914-0.74 2.876-1.112 1.926-0.746 3.868-1.5 5.83-2.26 3.904-1.52 7.884-3.070 11.932-4.646 3.96-1.768 7.988-3.566 12.080-5.392 2.038-0.908 4.088-1.824 6.156-2.746 2.060-0.932 4.072-2.036 6.126-3.054 4.082-2.070 8.222-4.17 12.41-6.294 4.144-2.202 8.226-4.654 12.394-6.998 2.074-1.184 4.16-2.374 6.256-3.572 2.086-1.21 4.102-2.586 6.166-3.876 4.098-2.616 8.23-5.256 12.402-7.918 16.296-11.234 32.398-23.632 47.636-37.33 15.104-13.874 29.406-28.842 42.55-44.598 12.928-15.974 24.648-32.686 35.020-49.676 10.196-17.13 18.84-34.6 26.26-51.736 1.698-4.348 3.382-8.662 5.050-12.932 0.812-2.136 1.71-4.216 2.444-6.36 0.714-2.146 1.428-4.28 2.136-6.404 1.386-4.25 2.888-8.384 4.142-12.548 1.174-4.184 2.33-8.316 3.474-12.392 0.55-2.038 1.19-4.026 1.66-6.054 0.46-2.030 0.916-4.046 1.368-6.046 0.91-3.978 1.808-7.896 2.688-11.748 0.688-3.888 1.362-7.71 2.024-11.462 0.33-1.868 0.656-3.716 0.98-5.548 0.162-0.914 0.324-1.824 0.484-2.728 0.11-0.916 0.222-1.828 0.332-2.734 0.446-3.612 0.882-7.148 1.31-10.604 0.216-1.72 0.432-3.42 0.642-5.1 0.226-1.674 0.268-3.364 0.41-5.010 0.238-3.292 0.472-6.498 0.7-9.616 0.218-3.11 0.524-6.11 0.508-9.058 0.132-5.848 0.256-11.32 0.372-16.38-0.168-4.664-0.324-8.948-0.462-12.818-0.054-1.914-0.108-3.726-0.156-5.432-0.134-2.122-0.26-4.108-0.378-5.958-0.138-2.13-0.266-4.060-0.38-5.82-0.498-3.256-0.768-6.592-0.768-9.99 0-0.468 0.026-0.93 0.036-1.396-0.008-0.132-0.016-0.224-0.016-0.224h0.022c0.768-30.766 23.236-56.128 52.682-61.37-0.066-0.296-0.13-0.584-0.198-0.884-0.644-3.248-1.632-6.542-2.556-9.942-0.934-3.388-1.894-6.876-2.88-10.454-0.516-1.78-0.934-3.602-1.546-5.406-0.596-1.802-1.202-3.628-1.81-5.476-1.218-3.682-2.464-7.45-3.736-11.294-0.316-0.958-0.634-1.924-0.956-2.892-0.37-0.954-0.74-1.914-1.114-2.876-0.746-1.924-1.5-3.868-2.26-5.83-1.52-3.904-3.070-7.882-4.646-11.93-1.768-3.96-3.566-7.99-5.392-12.080-0.908-2.038-1.824-4.090-2.746-6.156-0.932-2.060-2.036-4.072-3.052-6.126-2.070-4.084-4.17-8.222-6.294-12.412-2.202-4.142-4.654-8.224-6.998-12.392-1.184-2.074-2.374-4.16-3.57-6.256-1.21-2.086-2.586-4.102-3.876-6.166-2.616-4.098-5.256-8.232-7.918-12.402-11.234-16.298-23.632-32.398-37.33-47.638-13.874-15.104-28.842-29.404-44.598-42.548-15.974-12.928-32.686-24.65-49.676-35.022-17.13-10.194-34.6-18.838-51.734-26.258-4.35-1.7-8.662-3.382-12.934-5.050-2.136-0.812-4.216-1.71-6.36-2.444-2.146-0.714-4.28-1.428-6.404-2.136-4.25-1.386-8.382-2.888-12.548-4.142-4.184-1.174-8.314-2.332-12.392-3.474-2.038-0.55-4.026-1.19-6.054-1.662-2.030-0.458-4.044-0.914-6.044-1.368-3.978-0.91-7.896-1.806-11.748-2.688-3.888-0.686-7.71-1.36-11.462-2.022-1.868-0.33-3.716-0.658-5.546-0.98-0.914-0.162-1.824-0.324-2.728-0.484-0.916-0.112-1.828-0.222-2.734-0.332-3.612-0.448-7.148-0.882-10.604-1.31-1.72-0.216-3.422-0.432-5.102-0.644-1.674-0.226-3.364-0.266-5.010-0.408-3.292-0.238-6.498-0.472-9.616-0.7-3.11-0.218-6.11-0.524-9.058-0.508-5.848-0.132-11.32-0.256-16.38-0.372-4.664 0.168-8.948 0.324-12.818 0.462-1.914 0.054-3.726 0.108-5.432 0.156-2.122 0.134-4.108 0.26-5.958 0.378-2.13 0.138-4.060 0.266-5.82 0.38-3.256 0.51-6.592 0.782-9.99 0.782-0.466 0-0.93-0.026-1.396-0.036-0.132 0.008-0.224 0.014-0.224 0.014v-0.020c-31.004-0.774-56.524-23.586-61.488-53.364-3.2 0.64-6.446 1.61-9.792 2.522-3.386 0.934-6.876 1.894-10.454 2.878-1.778 0.516-3.602 0.938-5.404 1.546-1.802 0.598-3.63 1.204-5.478 1.812-3.68 1.218-7.448 2.464-11.292 3.738-0.96 0.316-1.924 0.632-2.892 0.954-0.956 0.372-1.914 0.742-2.876 1.114-1.926 0.746-3.868 1.5-5.83 2.258-3.904 1.524-7.884 3.070-11.932 4.648-3.96 1.77-7.988 3.566-12.080 5.39-2.038 0.91-4.088 1.824-6.156 2.746-2.060 0.934-4.072 2.036-6.126 3.054-4.082 2.070-8.222 4.172-12.41 6.296-4.144 2.2-8.226 4.652-12.394 6.996-2.074 1.184-4.16 2.376-6.256 3.57-2.086 1.21-4.102 2.586-6.166 3.878-4.098 2.614-8.23 5.254-12.402 7.918-16.296 11.23-32.398 23.632-47.636 37.328-15.104 13.876-29.406 28.84-42.55 44.598-12.928 15.972-24.648 32.684-35.020 49.676-10.196 17.128-18.84 34.602-26.26 51.734-1.698 4.352-3.382 8.664-5.050 12.934-0.812 2.136-1.71 4.218-2.444 6.36-0.714 2.148-1.428 4.282-2.136 6.406-1.386 4.25-2.888 8.382-4.142 12.546-1.174 4.184-2.33 8.316-3.474 12.394-0.55 2.036-1.19 4.024-1.66 6.054-0.46 2.028-0.916 4.042-1.368 6.042-0.91 3.98-1.808 7.898-2.688 11.75-0.688 3.886-1.362 7.71-2.024 11.46-0.33 1.868-0.656 3.718-0.98 5.546-0.162 0.914-0.324 1.824-0.484 2.73-0.11 0.914-0.222 1.828-0.332 2.734-0.446 3.61-0.882 7.148-1.31 10.602-0.216 1.722-0.432 3.422-0.642 5.102-0.226 1.676-0.268 3.364-0.41 5.012-0.238 3.29-0.472 6.496-0.7 9.614-0.218 3.11-0.524 6.11-0.508 9.058-0.132 5.848-0.256 11.32-0.372 16.382 0.168 4.664 0.324 8.946 0.462 12.816 0.054 1.914 0.108 3.726 0.156 5.434 0.134 2.122 0.26 4.106 0.378 5.958 0.138 2.128 0.266 4.058 0.38 5.82 0.496 3.26 0.766 6.596 0.766 9.994 0 0.466-0.026 0.93-0.036 1.396 0.008 0.132 0.016 0.224 0.016 0.224h-0.022c-0.78 31.38-24.134 57.154-54.44 61.674z" />
<glyph unicode="&#xe98a;" glyph-name="shrink" d="M576 512h416l-160 160 192 192-96 96-192-192-160 160zM576 384v-416l160 160 192-192 96 96-192 192 160 160zM448 384.004h-416l160-160-192-192 96-96 192 192 160-160zM448 512v416l-160-160-192 192-96-96 192-192-160-160z" />
<glyph unicode="&#xe992;" glyph-name="equalizer" d="M448 832v16c0 26.4-21.6 48-48 48h-160c-26.4 0-48-21.6-48-48v-16h-192v-128h192v-16c0-26.4 21.6-48 48-48h160c26.4 0 48 21.6 48 48v16h576v128h-576zM256 704v128h128v-128h-128zM832 528c0 26.4-21.6 48-48 48h-160c-26.4 0-48-21.6-48-48v-16h-576v-128h576v-16c0-26.4 21.6-48 48-48h160c26.4 0 48 21.6 48 48v16h192v128h-192v16zM640 384v128h128v-128h-128zM448 208c0 26.4-21.6 48-48 48h-160c-26.4 0-48-21.6-48-48v-16h-192v-128h192v-16c0-26.4 21.6-48 48-48h160c26.4 0 48 21.6 48 48v16h576v128h-576v16zM256 64v128h128v-128h-128z" />
<glyph unicode="&#xe9b4;" glyph-name="shield" d="M960 960l-448-128-448 128c0 0-4.5-51.698 0-128l448-140.090 448 140.090c4.498 76.302 0 128 0 128zM72.19 764.894c23.986-250.696 113.49-672.234 439.81-828.894 326.32 156.66 415.824 578.198 439.81 828.894l-439.81-165.358-439.81 165.358z" />
<glyph unicode="&#xe9ba;" glyph-name="list" d="M0 960h256v-256h-256zM384 896h640v-128h-640zM0 576h256v-256h-256zM384 512h640v-128h-640zM0 192h256v-256h-256zM384 128h640v-128h-640z" />
<glyph unicode="&#xe9bc;" glyph-name="tree" d="M976 192h-16v208c0 61.756-50.242 112-112 112h-272v128h16c26.4 0 48 21.6 48 48v160c0 26.4-21.6 48-48 48h-160c-26.4 0-48-21.6-48-48v-160c0-26.4 21.6-48 48-48h16v-128h-272c-61.756 0-112-50.244-112-112v-208h-16c-26.4 0-48-21.6-48-48v-160c0-26.4 21.6-48 48-48h160c26.4 0 48 21.6 48 48v160c0 26.4-21.6 48-48 48h-16v192h256v-192h-16c-26.4 0-48-21.6-48-48v-160c0-26.4 21.6-48 48-48h160c26.4 0 48 21.6 48 48v160c0 26.4-21.6 48-48 48h-16v192h256v-192h-16c-26.4 0-48-21.6-48-48v-160c0-26.4 21.6-48 48-48h160c26.4 0 48 21.6 48 48v160c0 26.4-21.6 48-48 48zM192 0h-128v128h128v-128zM576 0h-128v128h128v-128zM448 704v128h128v-128h-128zM960 0h-128v128h128v-128z" />
<glyph unicode="&#xe9c1;" glyph-name="cloud" d="M1024 302.458c0 82.090-56.678 150.9-132.996 169.48-3.242 128.7-108.458 232.062-237.862 232.062-75.792 0-143.266-35.494-186.854-90.732-24.442 31.598-62.69 51.96-105.708 51.96-73.81 0-133.642-59.874-133.642-133.722 0-6.436 0.48-12.76 1.364-18.954-11.222 2.024-22.766 3.138-34.57 3.138-106.998 0.002-193.732-86.786-193.732-193.842 0-107.062 86.734-193.848 193.73-193.848l656.262 0.012c96.138 0.184 174.008 78.212 174.008 174.446z" />
<glyph unicode="&#xe9c7;" glyph-name="download3" d="M736 512l-256-256-256 256h160v384h192v-384zM480 256h-480v-256h960v256h-480zM896 128h-128v64h128v-64z" />
<glyph unicode="&#xe9c8;" glyph-name="upload3" d="M480 256h-480v-256h960v256h-480zM896 128h-128v64h128v-64zM224 640l256 256 256-256h-160v-320h-192v320z" />
<glyph unicode="&#xe9cb;" glyph-name="link" d="M440.236 324.234c-13.31 0-26.616 5.076-36.77 15.23-95.134 95.136-95.134 249.934 0 345.070l192 192c46.088 46.086 107.36 71.466 172.534 71.466s126.448-25.38 172.536-71.464c95.132-95.136 95.132-249.934 0-345.070l-87.766-87.766c-20.308-20.308-53.23-20.308-73.54 0-20.306 20.306-20.306 53.232 0 73.54l87.766 87.766c54.584 54.586 54.584 143.404 0 197.99-26.442 26.442-61.6 41.004-98.996 41.004s-72.552-14.562-98.996-41.006l-192-191.998c-54.586-54.586-54.586-143.406 0-197.992 20.308-20.306 20.306-53.232 0-73.54-10.15-10.152-23.462-15.23-36.768-15.23zM256-52c-65.176 0-126.45 25.38-172.534 71.464-95.134 95.136-95.134 249.934 0 345.070l87.764 87.764c20.308 20.306 53.234 20.306 73.54 0 20.308-20.306 20.308-53.232 0-73.54l-87.764-87.764c-54.586-54.586-54.586-143.406 0-197.992 26.44-26.44 61.598-41.002 98.994-41.002s72.552 14.562 98.998 41.006l192 191.998c54.584 54.586 54.584 143.406 0 197.992-20.308 20.308-20.306 53.232 0 73.54 20.306 20.306 53.232 20.306 73.54-0.002 95.132-95.134 95.132-249.932 0.002-345.068l-192.002-192c-46.090-46.088-107.364-71.466-172.538-71.466z" />
<glyph unicode="&#xea0a;" glyph-name="plus" d="M992 576h-352v352c0 17.672-14.328 32-32 32h-192c-17.672 0-32-14.328-32-32v-352h-352c-17.672 0-32-14.328-32-32v-192c0-17.672 14.328-32 32-32h352v-352c0-17.672 14.328-32 32-32h192c17.672 0 32 14.328 32 32v352h352c17.672 0 32 14.328 32 32v192c0 17.672-14.328 32-32 32z" />
<glyph unicode="&#xea0b;" glyph-name="minus" d="M0 544v-192c0-17.672 14.328-32 32-32h960c17.672 0 32 14.328 32 32v192c0 17.672-14.328 32-32 32h-960c-17.672 0-32-14.328-32-32z" />
<glyph unicode="&#xea0f;" glyph-name="cross" d="M1014.662 137.34c-0.004 0.004-0.008 0.008-0.012 0.010l-310.644 310.65 310.644 310.65c0.004 0.004 0.008 0.006 0.012 0.010 3.344 3.346 5.762 7.254 7.312 11.416 4.246 11.376 1.824 24.682-7.324 33.83l-146.746 146.746c-9.148 9.146-22.45 11.566-33.828 7.32-4.16-1.55-8.070-3.968-11.418-7.31 0-0.004-0.004-0.006-0.008-0.010l-310.648-310.652-310.648 310.65c-0.004 0.004-0.006 0.006-0.010 0.010-3.346 3.342-7.254 5.76-11.414 7.31-11.38 4.248-24.682 1.826-33.83-7.32l-146.748-146.748c-9.148-9.148-11.568-22.452-7.322-33.828 1.552-4.16 3.97-8.072 7.312-11.416 0.004-0.002 0.006-0.006 0.010-0.010l310.65-310.648-310.65-310.652c-0.002-0.004-0.006-0.006-0.008-0.010-3.342-3.346-5.76-7.254-7.314-11.414-4.248-11.376-1.826-24.682 7.322-33.83l146.748-146.746c9.15-9.148 22.452-11.568 33.83-7.322 4.16 1.552 8.070 3.97 11.416 7.312 0.002 0.004 0.006 0.006 0.010 0.010l310.648 310.65 310.648-310.65c0.004-0.002 0.008-0.006 0.012-0.008 3.348-3.344 7.254-5.762 11.414-7.314 11.378-4.246 24.684-1.826 33.828 7.322l146.746 146.748c9.148 9.148 11.57 22.454 7.324 33.83-1.552 4.16-3.97 8.068-7.314 11.414z" />
<glyph unicode="&#xea10;" glyph-name="checkmark" d="M864 832l-480-480-224 224-160-160 384-384 640 640z" />
<glyph unicode="&#xea30;" glyph-name="shuffle" d="M768 256h-101.49l-160 160 160 160h101.49v-160l224 224-224 224v-160h-128c-16.974 0-33.252-6.744-45.254-18.746l-178.746-178.744-178.746 178.746c-12 12-28.28 18.744-45.254 18.744h-192v-128h165.49l160-160-160-160h-165.49v-128h192c16.974 0 33.252 6.742 45.254 18.746l178.746 178.744 178.746-178.744c12.002-12.004 28.28-18.746 45.254-18.746h128v-160l224 224-224 224v-160z" />
<glyph unicode="&#xea41;" glyph-name="circle-up" d="M0 448c0-282.77 229.23-512 512-512s512 229.23 512 512-229.23 512-512 512-512-229.23-512-512zM928 448c0-229.75-186.25-416-416-416s-416 186.25-416 416 186.25 416 416 416 416-186.25 416-416zM706.744 290.744l90.512 90.512-285.256 285.254-285.254-285.256 90.508-90.508 194.746 194.744z" />
<glyph unicode="&#xea42;" glyph-name="circle-right" d="M512 960c-282.77 0-512-229.23-512-512s229.23-512 512-512 512 229.23 512 512-229.23 512-512 512zM512 32c-229.75 0-416 186.25-416 416s186.25 416 416 416 416-186.25 416-416-186.25-416-416-416zM354.744 253.256l90.512-90.512 285.254 285.256-285.256 285.254-90.508-90.508 194.744-194.746z" />
<glyph unicode="&#xea43;" glyph-name="circle-down" d="M1024 448c0 282.77-229.23 512-512 512s-512-229.23-512-512 229.23-512 512-512 512 229.23 512 512zM96 448c0 229.75 186.25 416 416 416s416-186.25 416-416-186.25-416-416-416-416 186.25-416 416zM317.256 605.256l-90.512-90.512 285.256-285.254 285.254 285.256-90.508 90.508-194.746-194.744z" />
<glyph unicode="&#xea44;" glyph-name="circle-left" d="M512-64c282.77 0 512 229.23 512 512s-229.23 512-512 512-512-229.23-512-512 229.23-512 512-512zM512 864c229.75 0 416-186.25 416-416s-186.25-416-416-416-416 186.25-416 416 186.25 416 416 416zM669.256 642.744l-90.512 90.512-285.254-285.256 285.256-285.254 90.508 90.508-194.744 194.746z" />
<glyph unicode="&#xea45;" glyph-name="tab" d="M960 960h64v-512h-64v512zM0 448h64v-512h-64v512zM320 256h704v-128h-704v-160l-224 224 224 224v-160zM704 640h-704v128h704v160l224-224-224-224z" />
<glyph unicode="&#xea78;" glyph-name="paragraph-center" d="M0 896h1024v-128h-1024zM192 704h640v-128h-640zM192 320h640v-128h-640zM0 512h1024v-128h-1024zM0 128h1024v-128h-1024z" />
<glyph unicode="&#xea82;" glyph-name="share2" d="M864 256c-45.16 0-85.92-18.738-115.012-48.83l-431.004 215.502c1.314 8.252 2.016 16.706 2.016 25.328s-0.702 17.076-2.016 25.326l431.004 215.502c29.092-30.090 69.852-48.828 115.012-48.828 88.366 0 160 71.634 160 160s-71.634 160-160 160-160-71.634-160-160c0-8.622 0.704-17.076 2.016-25.326l-431.004-215.504c-29.092 30.090-69.852 48.83-115.012 48.83-88.366 0-160-71.636-160-160 0-88.368 71.634-160 160-160 45.16 0 85.92 18.738 115.012 48.828l431.004-215.502c-1.312-8.25-2.016-16.704-2.016-25.326 0-88.368 71.634-160 160-160s160 71.632 160 160c0 88.364-71.634 160-160 160z" />
<glyph unicode="&#xeaa4;" glyph-name="picassa" d="M704 565.74l-364.456 364.456c53.89 19.276 111.94 29.804 172.456 29.804 67.904 0 132.704-13.25 192-37.256v-357.004zM768 256v635.486c153.034-88.528 256-253.978 256-443.486 0-67.904-13.25-132.704-37.256-192h-218.744zM320 192h635.486c-88.528-153.034-253.978-256-443.486-256-67.904 0-132.704 13.25-192 37.256v218.744zM426.26 736l-411.282-411.282c-9.764 39.49-14.978 80.774-14.978 123.282 0 193.382 107.226 361.702 265.452 448.808l160.808-160.808zM256 458.26v-453.746c-94.596 54.722-170.036 138.848-213.874 239.872l213.874 213.874z" />
</font>
</defs>
</svg>
