<?xml version="1.0" standalone="no"?>
<!DOCTYPE svg PUBLIC "-//W3C//DTD SVG 1.1//EN" "http://www.w3.org/Graphics/SVG/1.1/DTD/svg11.dtd" >
<svg>
<metadata>
Created by FontForge 20090622 at Fri Nov 13 10:18:09 2015
 By deploy user
Copyright (c) 2001 Agfa Monotype Corporation. All rights reserved. ITC Officina is a registered trademark of International Typeface Corporation. ITC Officina was designed by Erik Spiekermann and Ole Schaefer.
</metadata>
<defs>
<font id="OfficinaSerifITCTTBold" horiz-adv-x="1024" >
  <font-face 
    font-family="Officina Serif ITC TT"
    font-weight="700"
    font-stretch="normal"
    units-per-em="2048"
    panose-1="0 0 7 0 0 0 0 0 0 0"
    ascent="1569"
    descent="-479"
    x-height="1012"
    cap-height="1405"
    bbox="-168 -539 2339 1956"
    underline-thickness="162"
    underline-position="-130"
    unicode-range="U+0020-U+F002"
  />
<missing-glyph 
d="M128 0v1569h768v-1569h-768zM256 128h512v1313h-512v-1313z" />
    <glyph glyph-name=".notdef" 
d="M128 0v1569h768v-1569h-768zM256 128h512v1313h-512v-1313z" />
    <glyph glyph-name=".null" horiz-adv-x="0" 
 />
    <glyph glyph-name="nonmarkingreturn" horiz-adv-x="422" 
 />
    <glyph glyph-name="space" unicode=" " horiz-adv-x="422" 
 />
    <glyph glyph-name="exclam" unicode="!" horiz-adv-x="721" 
d="M510 1403l-2 -19l-45 -825q-2 -27 -9.5 -34t-33.5 -7h-123q-28 0 -34.5 6.5t-8.5 34.5l-47 840q0 19 11 24q8 4 30 4h219q46 0 43 -24zM535 117q0 -71 -51 -121.5t-122 -50.5q-72 0 -123 51t-51 123t51.5 122t125.5 50q69 0 119.5 -52t50.5 -122z" />
    <glyph glyph-name="quotedbl" unicode="&#x22;" horiz-adv-x="1100" 
d="M870 1360l-43 -473q-3 -39 -43 -39h-86q-26 0 -33 6.5t-10 32.5l-43 473q-2 10 -2 20q0 25 43 25h176q41 0 41 -27v-18zM492 1378q0 -4 -3 -18l-40 -473q-4 -39 -43 -39h-87q-26 0 -33 6.5t-10 32.5l-43 473q-2 8 -2 18q0 27 41 27h179q41 0 41 -27z" />
    <glyph glyph-name="numbersign" unicode="#" horiz-adv-x="1100" 
d="M1008 817q0 -33 -17 -38q-9 -3 -26 -3h-123l-37 -344h104q37 0 41 -19q2 -8 2 -24v-108q0 -37 -18 -41q-8 -2 -25 -2h-123l-38 -363q-5 -39 -43 -39h-99q-23 0 -32 6t-9 27v12l39 357h-207l-39 -363q-4 -39 -43 -39h-98q-41 0 -41 27q0 4 2 18l37 357h-80q-29 0 -36 6.5
t-7 36.5v108q0 36 19 41q8 2 24 2h101l36 344h-82q-28 0 -35.5 7t-7.5 34v117q0 34 17 38q9 3 26 3h103l35 334q4 39 43 39h98q32 0 38 -12q3 -6 3 -17v-16l-35 -328h205l37 334q4 39 43 39h96q46 0 43 -27l-2 -18l-35 -328h103q36 0 41 -18q2 -8 2 -23v-117zM659 776h-204
l-37 -344h207z" />
    <glyph glyph-name="dollar" unicode="$" horiz-adv-x="1100" 
d="M975 379q0 -160 -96.5 -267.5t-264.5 -134.5v-90q0 -36 -18 -41q-8 -2 -25 -2h-41q-36 0 -41 19q-2 8 -2 24v86q-132 10 -244 45.5t-112 69.5l2 18l62 173q5 16 18 16q11 0 43 -16q132 -67 231 -76v399q-186 81 -245 131q-115 98 -115 266q0 335 360 385v105q0 36 19 41
q8 2 24 2h41q37 0 41 -19q2 -8 2 -24v-100q116 -7 219 -44.5t103 -72.5q0 -17 -6 -23l-64 -139q-7 -16 -18 -16q-8 0 -41 18q-90 50 -193 59v-376q193 -90 260 -160q101 -104 101 -256zM502 842v334q-142 -34 -142 -160q0 -108 142 -174zM739 367q0 118 -139 188v-358
q139 32 139 170z" />
    <glyph glyph-name="percent" unicode="%" horiz-adv-x="1706" 
d="M1612 340q0 -174 -85.5 -272.5t-236.5 -98.5q-141 0 -223 95t-82 258q0 172 86.5 273t235.5 101q138 0 221.5 -97.5t83.5 -258.5zM1237 1360q0 -10 -6 -25l-578 -1380q-15 -37 -47 -37h-104q-43 0 -43 23q0 9 8 28l577 1387q13 30 48 30h104q41 0 41 -26zM723 999
q0 -173 -85.5 -271.5t-236.5 -98.5q-141 0 -223 95t-82 259q0 172 87 273.5t235 101.5q138 0 221.5 -98t83.5 -261zM1417 326q0 219 -121 219q-112 0 -112 -209q0 -215 116 -215q117 0 117 205zM528 987q0 219 -120 219q-113 0 -113 -207q0 -219 117 -219q116 0 116 207z
" />
    <glyph glyph-name="ampersand" unicode="&#x26;" horiz-adv-x="1251" 
d="M1239 80q0 -12 -20 -29l-105 -88q-14 -12 -29 -12q-12 0 -30 20l-113 127q-163 -151 -395 -151q-214 0 -339.5 105t-125.5 286q0 127 64 215t233 195q-111 130 -150 202.5t-39 149.5q0 146 117 247t285 101q163 0 264.5 -90.5t101.5 -235.5q0 -110 -57 -197.5
t-203 -199.5l220 -260q51 97 65 252q2 22 18 22q6 0 21 -4l152 -41q24 -6 24 -30q0 -66 -36.5 -178.5t-86.5 -198.5l146 -176q18 -23 18 -31zM713 1106q0 145 -135 145q-63 0 -104.5 -41t-41.5 -104q0 -57 39 -116q10 -15 80 -97l22 -27q140 123 140 240zM788 274l-278 328
q-156 -102 -156 -233q0 -88 60 -146.5t149 -58.5q127 0 225 110z" />
    <glyph glyph-name="quotesingle" unicode="'" horiz-adv-x="721" 
d="M492 1378q0 -4 -3 -18l-40 -473q-4 -39 -43 -39h-87q-26 0 -33 6.5t-10 32.5l-43 473q-2 8 -2 18q0 27 41 27h179q41 0 41 -27z" />
    <glyph glyph-name="parenleft" unicode="(" horiz-adv-x="911" 
d="M831 -440q0 -17 -16 -27l-106 -65q-10 -7 -23 -7q-34 0 -190 236q-256 387 -256 803q0 234 68.5 434t228.5 430q120 174 149 174q18 0 94 -49q51 -33 51 -49q0 -14 -16 -37q-132 -189 -205 -361q-102 -242 -102 -542q0 -250 72 -462t235 -441q16 -24 16 -37z" />
    <glyph glyph-name="parenright" unicode=")" horiz-adv-x="911" 
d="M672 500q0 -234 -69 -434t-228 -431q-121 -174 -150 -174q-20 0 -94 50q-51 34 -51 49q0 14 16 37q126 171 205 360q102 245 102 543q0 335 -131 608q-81 169 -179 300q-13 17 -13 32q0 13 16 26l109 66q10 6 20 6q35 0 191 -235q256 -387 256 -803z" />
    <glyph glyph-name="asterisk" unicode="*" horiz-adv-x="1100" 
d="M940 1051q0 -20 -39 -25l-254 -35l182 -180q19 -18 19 -29q0 -14 -23 -30l-106 -78q-20 -15 -31 -15q-13 0 -26 29l-113 232l-115 -230q-14 -28 -26 -28t-31 14l-107 78q-22 16 -22 28q0 13 18 31l185 178l-254 37q-37 5 -37 25q0 8 6 26l41 125q11 35 26 35q6 0 29 -12
l225 -121l-43 264q-2 4 -2 12q0 23 43 23h131q41 0 41 -25l-2 -22l-45 -252l228 119q19 10 28 10q16 0 27 -33l41 -125q6 -18 6 -26z" />
    <glyph glyph-name="plus" unicode="+" 
d="M979 610q0 -24 -8 -29.5t-27 -5.5h-326v-327q0 -24 -8 -29.5t-26 -5.5h-140q-24 0 -29 8t-5 27v327h-328q-19 0 -26 5q-11 6 -11 30v140q0 24 8 29t27 5h328v326q0 24 8 29.5t26 5.5h140q24 0 29 -8t5 -27v-326h326q19 0 26 -4q11 -6 11 -30v-140z" />
    <glyph glyph-name="comma" unicode="," horiz-adv-x="608" 
d="M506 233q0 -13 -10 -28l-244 -459q-15 -29 -29 -29q-6 0 -24 7l-78 26q-33 11 -33 29q0 4 6 24l127 418q11 35 47 35h197q41 0 41 -23z" />
    <glyph glyph-name="hyphen" unicode="-" horiz-adv-x="760" 
d="M678 442q0 -27 -7 -34t-36 -7h-512q-29 0 -36 7.5t-7 33.5v162q0 28 7 34.5t36 6.5h512q36 0 41 -18q2 -7 2 -23v-162z" />
    <glyph glyph-name="hyphen" unicode="&#x2010;" horiz-adv-x="760" 
d="M678 442q0 -27 -7 -34t-36 -7h-512q-29 0 -36 7.5t-7 33.5v162q0 28 7 34.5t36 6.5h512q36 0 41 -18q2 -7 2 -23v-162z" />
    <glyph glyph-name="period" unicode="." horiz-adv-x="606" 
d="M498 162q0 -82 -56.5 -138.5t-138.5 -56.5q-81 0 -137.5 57t-56.5 140q0 80 57.5 136t140.5 56q79 0 135 -57t56 -137z" />
    <glyph glyph-name="slash" unicode="/" horiz-adv-x="911" 
d="M829 1503q0 -8 -6 -26l-665 -1979q-13 -37 -56 -37h-118q-23 0 -32 4.5t-9 22.5q0 4 6 23l667 1980q13 37 56 37h121q36 0 36 -25z" />
    <glyph glyph-name="zero" unicode="0" horiz-adv-x="1100" 
d="M1036 694q0 -391 -129 -565q-121 -164 -362 -164q-234 0 -358 182.5t-124 526.5q0 403 158 581q132 150 350 150q200 0 318 -141q147 -178 147 -570zM772 645q0 320 -49.5 430.5t-169.5 110.5q-225 0 -225 -504q0 -260 53 -379t170 -119q125 0 178 121q43 98 43 340z" />
    <glyph glyph-name="one" unicode="1" horiz-adv-x="1100" 
d="M915 43q0 -29 -6.5 -36t-36.5 -7h-600q-27 0 -35 7t-8 36v104q0 37 19 41q8 2 24 2h195v871l-158 -96q-17 -11 -30 -11q-11 0 -27 27l-53 90q-9 14 -9 29q0 14 23 30l328 240h141q36 0 41 -19q2 -8 2 -24v-1137h147q37 0 41 -18q2 -8 2 -25v-104z" />
    <glyph glyph-name="two" unicode="2" horiz-adv-x="1100" 
d="M971 1014q0 -195 -121 -328q-55 -60 -268 -225q-143 -110 -146 -232h479q37 0 41 -18q2 -8 2 -25v-143q0 -36 -18 -41q-8 -2 -25 -2h-737q-28 0 -28 29v16q0 225 63 340q45 81 104.5 140.5t223.5 185.5q104 80 144 144t40 151q0 172 -168 172q-75 0 -120 -38.5
t-87 -135.5q-13 -31 -31 -31q-11 0 -22 4l-131 49q-25 9 -25 31q0 35 34 102t75 113q118 133 332 133q184 0 286.5 -103t102.5 -288z" />
    <glyph glyph-name="three" unicode="3" horiz-adv-x="1100" 
d="M950 387q0 -192 -145 -313q-130 -109 -324 -109q-179 0 -329 68q-60 27 -60 45q0 6 4 20l41 148q5 18 23 18q7 0 20 -6q157 -76 279 -76q227 0 227 219q0 205 -258 205h-61q-37 0 -41 19q-2 8 -2 24v135q0 37 18 41q8 2 25 2h65q102 0 150 35q71 53 71 158
q0 77 -46 123.5t-122 46.5q-102 0 -184 -105q-16 -20 -27 -20q-9 0 -18 8l-113 103q-10 9 -10 20q0 23 43 70q128 139 324 139q181 0 292 -101t111 -264q0 -210 -194 -305q241 -77 241 -348z" />
    <glyph glyph-name="four" unicode="4" horiz-adv-x="1100" 
d="M1022 311q0 -33 -17 -38q-8 -3 -26 -3h-117v-266q0 -28 -7 -34.5t-36 -6.5h-170q-29 0 -36 6.5t-7 34.5v266h-502q-29 0 -36 7t-7 34v215l510 852q17 27 27 27q9 0 29 -8l123 -51q30 -13 30 -29q0 -8 -12 -29l-477 -811h319l27 330q2 26 9.5 32.5t33.5 6.5h139
q29 0 36 -7t7 -36v-332h117q29 0 36 -7.5t7 -41.5v-111z" />
    <glyph glyph-name="five" unicode="5" horiz-adv-x="1100" 
d="M995 465q0 -226 -145.5 -363t-386.5 -137q-156 0 -301 53q-37 14 -37 39q0 12 2 23l29 149q3 19 18 19q5 0 16 -4q146 -54 261 -54q138 0 221.5 74t83.5 197q0 217 -205 217q-126 0 -205 -94q-15 -19 -29 -19l-20 4l-123 39q-33 11 -33 29q0 10 2 20l64 674q2 27 9 33
t34 6h600q28 0 35.5 -7t7.5 -36v-133q0 -27 -7.5 -34t-35.5 -7h-422l-37 -324q88 60 211 60q175 0 284 -117.5t109 -306.5z" />
    <glyph glyph-name="six" unicode="6" horiz-adv-x="1100" 
d="M999 483q0 -242 -117 -380t-323 -138q-214 0 -326 155t-112 449q0 381 163.5 608.5t438.5 227.5q79 0 146 -21.5t67 -46.5q0 -8 -4 -18l-43 -143q-3 -17 -17 -17q-3 0 -14 4q-72 27 -131 27q-263 0 -342 -338q107 106 240 106q113 0 202 -62t132 -167q40 -101 40 -246z
M752 473q0 270 -179 270q-182 0 -182 -274q0 -279 174 -279q88 0 137.5 75t49.5 208z" />
    <glyph glyph-name="seven" unicode="7" horiz-adv-x="1100" 
d="M950 1247l-456 -1249q-12 -31 -31 -31q-10 0 -21 2l-170 33q-43 8 -43 25q0 4 7 28l434 1082h-502q-29 0 -36 7t-7 34v149q0 36 19 41q8 2 24 2h739q37 0 41 -19q2 -8 2 -24v-80z" />
    <glyph glyph-name="eight" unicode="8" horiz-adv-x="1100" 
d="M1026 362q0 -135 -96 -245q-132 -152 -389 -152q-216 0 -336 96q-139 112 -139 295q0 258 290 365q-239 104 -239 326q0 152 124 255t308 103q183 0 304.5 -102.5t121.5 -255.5q0 -196 -234 -322q285 -124 285 -363zM717 1018q0 78 -47.5 127t-124.5 49q-74 0 -122 -48.5
t-48 -123.5q0 -71 40 -116.5t140 -88.5q162 69 162 201zM768 371q0 124 -113 192q-38 23 -120 60q-211 -100 -211 -252q0 -89 60.5 -142t160.5 -53q98 0 160.5 54.5t62.5 140.5z" />
    <glyph glyph-name="nine" unicode="9" horiz-adv-x="1100" 
d="M977 801q0 -387 -164 -611.5t-448 -224.5q-80 0 -136.5 16t-56.5 37v21l29 143q4 21 20 21q8 0 23 -4q67 -19 131 -19q261 0 342 352q-110 -120 -246 -120q-139 0 -240 94q-133 124 -133 395q0 230 119.5 367t321.5 137q213 0 325.5 -155.5t112.5 -448.5zM707 901
q0 279 -179 279q-84 0 -133 -75t-49 -204q0 -274 180 -274q181 0 181 274z" />
    <glyph glyph-name="colon" unicode=":" horiz-adv-x="606" 
d="M498 838q0 -82 -56.5 -138.5t-138.5 -56.5q-81 0 -137.5 57t-56.5 140q0 80 57.5 136t140.5 56q79 0 135 -57t56 -137zM498 162q0 -82 -56.5 -138.5t-138.5 -56.5q-81 0 -137.5 57t-56.5 140q0 80 57.5 136t140.5 56q79 0 135 -57t56 -137z" />
    <glyph glyph-name="semicolon" unicode=";" horiz-adv-x="606" 
d="M539 838q0 -82 -57 -138.5t-138 -56.5t-137.5 57t-56.5 140q0 80 57.5 136t140.5 56q78 0 134.5 -57t56.5 -137zM506 233q0 -13 -10 -28l-244 -459q-15 -29 -29 -29q-6 0 -24 7l-78 26q-33 11 -33 29q0 4 6 24l127 418q11 35 47 35h197q41 0 41 -23z" />
    <glyph glyph-name="less" unicode="&#x3c;" 
d="M969 94l-914 469v240l914 467v-281l-613 -307l613 -307v-281z" />
    <glyph glyph-name="equal" unicode="=" 
d="M977 774q0 -24 -8 -29.5t-27 -5.5h-862q-24 0 -30 10q-5 7 -5 25v137q0 25 8 30t27 5h862q24 0 29.5 -8t5.5 -27v-137zM979 451q0 -25 -8 -30t-27 -5h-864q-24 0 -29.5 8t-5.5 27v137q0 24 8 29.5t27 5.5h864q24 0 29.5 -8.5t5.5 -26.5v-137z" />
    <glyph glyph-name="greater" unicode="&#x3e;" 
d="M969 561l-914 -469v281l613 307l-613 307v281l914 -467v-240z" />
    <glyph glyph-name="question" unicode="?" horiz-adv-x="911" 
d="M825 1067q0 -195 -155 -297q-58 -38 -178 -78v-139q0 -36 -18 -41q-8 -2 -23 -2h-146q-36 0 -41 19q-2 8 -2 24v256q0 36 43 47q246 66 246 213q0 141 -172 141q-95 0 -221 -53q-25 -10 -35 -10q-13 0 -21 20l-53 140q-4 10 -4 22q0 37 131 79t248 42q181 0 291 -105
t110 -278zM559 117q0 -71 -50.5 -121.5t-121.5 -50.5q-72 0 -123 51t-51 123t51 122t125 50q70 0 120 -51t50 -123z" />
    <glyph glyph-name="at" unicode="@" horiz-adv-x="2048" 
d="M1884 731q0 -267 -163.5 -449t-403.5 -182q-164 0 -191 142q-103 -142 -239 -142q-189 0 -189 244q0 272 170 449q85 88 203 88q96 0 160 -70l10 23q10 22 31 22h137q25 0 25 -20l-2 -21l-95 -438q-4 -19 -4 -53q0 -62 72 -62q93 0 170 80q58 60 94.5 164.5t36.5 212.5
q0 226 -147 355.5t-402 129.5q-340 0 -549 -215q-110 -114 -173.5 -277t-63.5 -333q0 -279 174 -440q159 -148 454 -148q337 0 594 137q23 13 39 13q13 0 19 -15l35 -84q6 -21 6 -24q0 -14 -31 -33q-108 -66 -289.5 -105.5t-374.5 -39.5q-395 0 -594 194q-217 212 -217 553
q0 199 80 387t221 322q276 260 680 260q366 0 555 -197q162 -168 162 -428zM1186 684q-46 49 -99 49q-60 0 -98 -78q-26 -53 -46.5 -149t-20.5 -166q0 -80 51 -80q66 0 119 74q27 38 45 121z" />
    <glyph glyph-name="A" unicode="A" horiz-adv-x="1176" 
d="M1202 35q0 -24 -8 -29.5t-27 -5.5h-442q-24 0 -29.5 8t-5.5 27v127q0 24 10 30q7 5 25 5h76l-45 176h-359l-45 -176h78q24 0 29.5 -8.5t5.5 -26.5v-127q0 -24 -8 -29.5t-27 -5.5h-422q-24 0 -29.5 8t-5.5 27v127q0 24 10 30q7 5 25 5h70l358 1173q8 25 14.5 30t30.5 5
h213q25 0 31.5 -5t13.5 -30l351 -1173h77q25 0 30 -8.5t5 -26.5v-127zM705 561l-87 352q-13 56 -26 140l-23 145q-16 -105 -51 -285l-90 -352h277z" />
    <glyph glyph-name="B" unicode="B" horiz-adv-x="1176" 
d="M1098 397q0 -103 -47.5 -197t-122.5 -141q-97 -59 -338 -59h-484q-29 0 -36 7t-7 36v111q0 36 19 41q8 2 24 2h105v1011h-105q-36 0 -41 19q-2 8 -2 24v111q0 29 8 36t35 7h465q131 0 182 -7q102 -14 167 -65q127 -99 127 -289q0 -212 -205 -309q121 -32 188.5 -121
t67.5 -217zM776 1018q0 102 -65 151q-44 33 -140 33h-100v-383h80q115 0 164 39q61 50 61 160zM819 414q0 107 -58.5 152.5t-197.5 45.5h-92v-391h88q141 0 200.5 44t59.5 149z" />
    <glyph glyph-name="C" unicode="C" 
d="M993 84q0 -28 -24 -43q-127 -76 -332 -76q-260 0 -381 135q-172 192 -172 596q0 361 142 552.5t409 191.5q183 0 313 -84q29 -19 29 -51v-277q0 -24 -8 -29.5t-27 -5.5h-154q-20 0 -26 7t-6 28v162q-55 16 -113 16q-127 0 -178 -67q-92 -121 -92 -394q0 -298 76 -440
q57 -106 225 -106q52 0 98 10v172q0 24 8 29.5t27 5.5h151q25 0 30 -8.5t5 -26.5v-297z" />
    <glyph glyph-name="D" unicode="D" horiz-adv-x="1251" 
d="M1171 705q0 -482 -245 -633q-117 -72 -357 -72h-463q-29 0 -36 7t-7 36v111q0 36 19 41q8 2 24 2h105v1011h-105q-36 0 -41 19q-2 8 -2 24v111q0 29 8 36t35 7h469q197 0 277 -27q319 -106 319 -673zM883 707q0 336 -123 430q-65 49 -197 49h-78v-967h78
q183 0 251.5 104.5t68.5 383.5z" />
    <glyph glyph-name="E" unicode="E" horiz-adv-x="1063" 
d="M967 43q0 -29 -7 -36t-34 -7h-820q-29 0 -36 7t-7 36v111q0 36 19 41q8 2 24 2h105v1011h-105q-36 0 -41 19q-2 8 -2 24v111q0 29 8 36t35 7h820q24 0 29.5 -8t5.5 -27v-321q0 -25 -8.5 -30t-26.5 -5h-142q-24 0 -29 8t-5 27v137h-265v-342h349q29 0 36 -6.5t7 -34.5
v-135q0 -37 -19 -41q-8 -2 -24 -2h-349v-406h273v154q0 24 8 29.5t27 5.5h141q33 0 33 -35v-330z" />
    <glyph glyph-name="F" unicode="F" horiz-adv-x="987" 
d="M961 1049q0 -25 -8.5 -30t-26.5 -5h-142q-24 0 -29 8t-5 27v137h-265v-342h349q29 0 36 -6.5t7 -34.5v-135q0 -37 -19 -41q-8 -2 -24 -2h-349v-428h136q36 0 41 -19q2 -8 2 -24v-111q0 -29 -7 -36t-36 -7h-515q-29 0 -36 7t-7 36v111q0 36 19 41q8 2 24 2h105v1011h-105
q-36 0 -41 19q-2 8 -2 24v111q0 29 8 36t35 7h820q24 0 29.5 -8t5.5 -27v-321z" />
    <glyph glyph-name="G" unicode="G" horiz-adv-x="1214" 
d="M1182 575q0 -24 -8.5 -29t-26.5 -5h-107v-416q0 -38 -32 -59q-155 -101 -383 -101q-543 0 -543 735q0 363 140 551.5t409 188.5q201 0 344 -88q33 -21 33 -54v-266q0 -24 -8.5 -29.5t-26.5 -5.5h-152q-24 0 -30 10q-5 7 -5 25v162q-80 29 -139 29q-130 0 -190 -93
q-86 -131 -86 -421q0 -274 65 -402q60 -117 209 -117q76 0 148 33v318h-154q-36 0 -41 18q-2 8 -2 25v110q0 29 7.5 36t35.5 7h508q24 0 29.5 -8t5.5 -27v-127z" />
    <glyph glyph-name="H" unicode="H" horiz-adv-x="1366" 
d="M1303 43q0 -36 -19 -41q-8 -2 -24 -2h-480q-41 0 -41 23v151q0 23 41 23h101v419h-396v-419h101q33 0 38 -17q3 -9 3 -26v-111q0 -29 -7 -36t-34 -7h-480q-29 0 -36 7t-7 36v111q0 36 19 41q8 2 24 2h105v1011h-105q-36 0 -41 19q-2 8 -2 24v111q0 29 8 36t35 7h480
q27 0 34 -7t7 -36v-111q0 -36 -18 -41q-8 -2 -23 -2h-101v-372h396v372h-99q-36 0 -41 19q-2 8 -2 24v111q0 36 19 41q8 2 24 2h478q36 0 41 -19q2 -8 2 -24v-111q0 -36 -19 -41q-8 -2 -24 -2h-105v-1011h105q36 0 41 -19q2 -8 2 -24v-111z" />
    <glyph glyph-name="I" unicode="I" horiz-adv-x="721" 
d="M655 43q0 -36 -18 -41q-8 -2 -25 -2h-501q-28 0 -35.5 7t-7.5 36v111q0 36 18 41q8 2 25 2h112v1011h-112q-37 0 -41 19q-2 8 -2 24v111q0 29 7.5 36t35.5 7h501q37 0 41 -19q2 -8 2 -24v-111q0 -36 -18 -41q-8 -2 -25 -2h-114v-1011h114q37 0 41 -19q2 -8 2 -24v-111z
" />
    <glyph glyph-name="J" unicode="J" horiz-adv-x="911" 
d="M774 432q0 -247 -94 -352q-102 -115 -299 -115q-180 0 -275.5 109t-95.5 313q0 27 19 27h204q23 0 23 -29v-27q0 -170 129 -170q72 0 94 52q21 36 21 153v815h-285q-34 0 -39 17q-2 9 -2 26v111q0 36 18 41q8 2 23 2h516q36 0 41 -19q2 -8 2 -24v-930z" />
    <glyph glyph-name="K" unicode="K" horiz-adv-x="1251" 
d="M1253 35q0 -24 -8 -29.5t-26 -5.5h-230q-30 0 -53 31l-451 592v-426h99q33 0 38 -17q3 -9 3 -26v-111q0 -29 -7.5 -36t-33.5 -7h-478q-29 0 -36 7t-7 36v111q0 36 19 41q8 2 24 2h105v1011h-105q-36 0 -41 19q-2 8 -2 24v111q0 29 8 36t35 7h478q27 0 34 -7t7 -36v-111
q0 -36 -18 -41q-8 -2 -23 -2h-99v-426l439 600q16 23 43 23h227q24 0 29.5 -8t5.5 -27v-127q0 -24 -8.5 -29.5t-26.5 -5.5h-96l-371 -489l422 -522h70q24 0 29 -8.5t5 -26.5v-127z" />
    <glyph glyph-name="L" unicode="L" horiz-adv-x="1061" 
d="M1049 354q0 -8 -5 -26l-65 -291q-8 -37 -45 -37h-828q-29 0 -36 7t-7 36v111q0 36 19 41q8 2 24 2h105v1011h-105q-36 0 -41 19q-2 8 -2 24v111q0 29 8 36t35 7h490q36 0 41 -19q2 -8 2 -24v-111q0 -36 -19 -41q-8 -2 -24 -2h-111v-989h299l37 160q9 37 25 37q4 0 33 -6
l135 -29q35 -7 35 -27z" />
    <glyph glyph-name="M" unicode="M" horiz-adv-x="1518" 
d="M1468 35q0 -24 -8 -29.5t-26 -5.5h-459q-24 0 -29.5 8t-5.5 27v127q0 24 8 29.5t27 5.5h96l-8 870q-44 -183 -82 -303l-135 -422q-8 -23 -14.5 -28t-32.5 -5h-117q-25 0 -31.5 5t-13.5 30l-117 399q-26 90 -78 324l-2 -78v-176l-2 -76l-12 -540h96q25 0 30 -8.5t5 -26.5
v-127q0 -24 -8 -29.5t-27 -5.5h-438q-24 0 -29.5 8t-5.5 27v127q0 24 8 29.5t27 5.5h102l45 1011h-106q-24 0 -30 10q-5 7 -5 25v127q0 24 8 29.5t27 5.5h354q35 0 45 -33l166 -518q34 -105 60 -248l30 127q13 54 37 123l178 516q8 23 14.5 28t30.5 5h355q24 0 29.5 -8
t5.5 -27v-127q0 -24 -8.5 -29.5t-26.5 -5.5h-115l51 -1011h103q24 0 29 -8.5t5 -26.5v-127z" />
    <glyph glyph-name="N" unicode="N" horiz-adv-x="1327" 
d="M1305 1251q0 -36 -19 -41q-8 -2 -24 -2h-105v-1165q0 -36 -19 -41q-8 -2 -24 -2h-135q-32 0 -47 29l-377 700q-82 153 -125 279q8 -164 8 -265v-546h105q36 0 41 -19q2 -8 2 -24v-111q0 -36 -19 -41q-8 -2 -24 -2h-443q-29 0 -36 7t-7 36v111q0 36 19 41q8 2 24 2h105
v1011h-105q-36 0 -41 19q-2 8 -2 24v111q0 29 8 36t35 7h316q31 0 47 -29l340 -635q84 -156 127 -297q-6 152 -6 267v497h-105q-36 0 -41 19q-2 8 -2 24v111q0 36 19 41q8 2 24 2h443q27 0 35 -7t8 -36v-111z" />
    <glyph glyph-name="O" unicode="O" horiz-adv-x="1176" 
d="M1096 719q0 -754 -514 -754q-500 0 -500 744q0 429 180 604q131 127 336 127q219 0 346 -146q152 -174 152 -575zM807 698q0 525 -221 525q-215 0 -215 -523q0 -518 217 -518q219 0 219 516z" />
    <glyph glyph-name="P" unicode="P" horiz-adv-x="1100" 
d="M1063 1020q0 -209 -127.5 -334t-339.5 -125h-111v-364h138q33 0 38 -17q3 -9 3 -26v-111q0 -29 -7.5 -36t-33.5 -7h-517q-29 0 -36 7t-7 36v111q0 36 19 41q8 2 24 2h105v1011h-105q-36 0 -41 19q-2 8 -2 24v111q0 29 8 36t35 7h480q225 0 321 -57q156 -93 156 -328z
M797 1004q0 110 -49 153t-177 43h-86v-412h66q135 0 190.5 48.5t55.5 167.5z" />
    <glyph glyph-name="Q" unicode="Q" horiz-adv-x="1176" 
d="M1159 -39q0 -6 -8 -14l-160 -113q-8 -4 -18 -4q-58 0 -211 164q-78 -29 -172 -29q-508 0 -508 746q0 420 176 602q123 127 328 127q510 0 510 -709q0 -431 -142 -604q70 -63 181 -137q24 -17 24 -29zM807 700q0 523 -221 523q-215 0 -215 -527q0 -514 217 -514
q219 0 219 518z" />
    <glyph glyph-name="R" unicode="R" horiz-adv-x="1176" 
d="M1217 35q0 -24 -8.5 -29.5t-26.5 -5.5h-271q-24 0 -30 3.5t-17 25.5l-276 551h-111v-383h111q36 0 41 -19q2 -8 2 -24v-111q0 -28 -7 -35.5t-36 -7.5h-482q-29 0 -36 7t-7 36v111q0 36 19 41q8 2 24 2h105v1011h-105q-36 0 -41 19q-2 8 -2 24v111q0 29 8 36t35 7h482
q206 0 301 -53q176 -99 176 -344q0 -140 -54.5 -229t-179.5 -150l248 -432h103q24 0 29.5 -8.5t5.5 -26.5v-127zM791 1004q0 110 -49.5 153t-178.5 43h-86v-416h66q137 0 192.5 49t55.5 171z" />
    <glyph glyph-name="S" unicode="S" 
d="M946 397q0 -189 -122 -307.5t-318 -118.5q-97 0 -211.5 24.5t-179.5 57.5q-31 16 -31 51v310q0 24 8 29.5t27 5.5h151q25 0 30 -8.5t5 -26.5v-172q114 -41 193 -41q186 0 186 174q0 76 -45 121q-38 38 -238 133q-169 80 -227 141q-88 92 -88 252q0 190 120.5 301
t328.5 111q196 0 337 -80q31 -18 31 -49v-279q0 -24 -8 -29.5t-27 -5.5h-151q-25 0 -31 10q-4 7 -4 25v160q-79 24 -137 24q-193 0 -193 -153q0 -57 36 -93t147 -92q237 -118 301 -188q110 -121 110 -287z" />
    <glyph glyph-name="T" unicode="T" horiz-adv-x="948" 
d="M958 985q0 -24 -8 -29.5t-26 -5.5h-121q-24 0 -30 10q-5 7 -5 25v199h-150v-987h140q33 0 38 -17q3 -9 3 -26v-111q0 -29 -7 -36t-34 -7h-555q-28 0 -34.5 7t-6.5 36v111q0 36 18 41q7 2 23 2h141v987h-151v-199q0 -24 -8.5 -29.5t-26.5 -5.5h-121q-24 0 -30 10
q-5 7 -5 25v385q0 24 8 29.5t27 5.5h887q24 0 29 -8t5 -27v-385z" />
    <glyph glyph-name="U" unicode="U" horiz-adv-x="1366" 
d="M1327 1251q0 -36 -18 -41q-7 -2 -23 -2h-106v-733q0 -139 -28 -221.5t-97 -151.5q-139 -137 -391 -137q-276 0 -392 162q-79 111 -79 348v733h-105q-36 0 -41 19q-2 8 -2 24v111q0 29 7.5 36t35.5 7h485q34 0 39 -17q2 -8 2 -26v-111q0 -36 -17 -41q-8 -2 -24 -2h-106
v-733q0 -171 49 -225q58 -64 166 -64q124 0 178.5 67t54.5 218v737h-104q-36 0 -41 19q-2 8 -2 24v111q0 36 19 41q8 2 24 2h475q28 0 34.5 -7t6.5 -36v-111z" />
    <glyph glyph-name="V" unicode="V" horiz-adv-x="1100" 
d="M1159 1243q0 -24 -8 -29.5t-27 -5.5h-82l-337 -1202q-10 -35 -48 -35h-229q-25 0 -31.5 5.5t-13.5 29.5l-328 1202h-80q-24 0 -30 10q-4 7 -4 25v127q0 24 8 29.5t26 5.5h299q31 0 37 -29l181 -819q8 -39 24 -133l29 -180q35 197 63 313l199 819q7 29 37 29h280
q25 0 30 -8t5 -27v-127z" />
    <glyph glyph-name="W" unicode="W" horiz-adv-x="1593" 
d="M1636 1243q0 -24 -8 -29.5t-26 -5.5h-76l-275 -1196q-8 -37 -45 -37h-176q-24 0 -31 6.5t-12 32.5l-137 693q-40 201 -49 354q-21 -199 -58 -356l-161 -693q-6 -26 -12.5 -31.5t-32.5 -5.5h-177q-26 0 -32.5 5.5t-12.5 31.5l-247 1196h-74q-24 0 -30 10q-5 7 -5 25v127
q0 24 8 29.5t27 5.5h270q29 0 35 -31l127 -674q15 -79 33 -270l8 -88l10 59l12 86q15 100 29 162l166 713q7 31 13.5 37t31.5 6h158q26 0 32 -6t13 -37l143 -645q24 -109 60 -385q21 237 49 385l123 657q5 31 36 31h259q24 0 29 -8t5 -27v-127z" />
    <glyph glyph-name="X" unicode="X" horiz-adv-x="1139" 
d="M1159 35q0 -24 -7.5 -29.5t-25.5 -5.5h-270q-24 0 -30 3.5t-17 25.5l-176 342q-31 60 -64 141q-16 -42 -63 -141l-182 -342q-16 -29 -48 -29h-276q-24 0 -29.5 8t-5.5 27v127q0 24 10 30q7 5 25 5h109l313 546l-277 465h-112q-25 0 -31 10q-4 7 -4 25v127q0 24 8 29.5
t27 5.5h282q23 0 28.5 -3.5t16.5 -25.5l146 -282q30 -59 65 -160q35 108 60 162l131 278q14 31 47 31h283q24 0 29 -8t5 -27v-127q0 -24 -8 -29.5t-26 -5.5h-117l-262 -469l313 -542h100q21 0 27 -7t6 -28v-127z" />
    <glyph glyph-name="Y" unicode="Y" 
d="M1069 1243q0 -24 -8 -29.5t-27 -5.5h-61l-316 -633v-378h140q36 0 41 -19q2 -8 2 -24v-111q0 -36 -19 -41q-8 -2 -24 -2h-553q-29 0 -36 7t-7 36v111q0 36 18 41q8 2 25 2h139v381l-326 630h-53q-24 0 -30 10q-5 7 -5 25v127q0 24 10 30q7 5 25 5h234q24 0 30 -4t17 -27
l157 -327q27 -56 86 -234q42 143 93 248l151 315q10 22 16 25.5t31 3.5h215q25 0 30 -8t5 -27v-127z" />
    <glyph glyph-name="Z" unicode="Z" 
d="M995 354q0 -6 -4 -24l-65 -293q-6 -26 -13 -31.5t-34 -5.5h-773q-24 0 -29 8t-5 27v170l571 983h-338v-170q0 -24 -8 -29.5t-27 -5.5h-145q-24 0 -29.5 8t-5.5 27v352q0 24 8 29.5t27 5.5h760q29 0 36 -7t7 -36v-184l-563 -951h368l35 160q6 29 25 29q5 0 24 -4l150 -33
q28 -6 28 -25z" />
    <glyph glyph-name="bracketleft" unicode="[" horiz-adv-x="909" 
d="M793 -377q0 -29 -7 -36t-34 -7h-402q-36 0 -41 19q-2 8 -2 24v1798q0 29 7 36t36 7h402q33 0 38 -17q3 -8 3 -26v-125q0 -36 -18 -41q-8 -2 -23 -2h-185v-1462h185q33 0 38 -17q3 -8 3 -26v-125z" />
    <glyph glyph-name="backslash" unicode="\" horiz-adv-x="911" 
d="M969 -514q0 -25 -37 -25h-121q-41 0 -53 37l-670 1981q-6 18 -6 22q0 27 41 27h119q43 0 55 -37l666 -1978q6 -19 6 -27z" />
    <glyph glyph-name="bracketright" unicode="]" horiz-adv-x="909" 
d="M604 -377q0 -29 -7 -36t-36 -7h-401q-29 0 -36 7t-7 36v125q0 36 18 41q8 2 25 2h184v1462h-184q-29 0 -36 7t-7 36v125q0 29 7 36t36 7h401q29 0 36 -7t7 -36v-1798z" />
    <glyph glyph-name="asciicircum" unicode="^" 
d="M999 750h-251l-236 471l-236 -471h-251l329 661h316z" />
    <glyph glyph-name="underscore" unicode="_" horiz-adv-x="1053" 
d="M1053 -293h-1053v162h1053v-162z" />
    <glyph glyph-name="grave" unicode="`" 
d="M616 1247q0 -7 -10 -28l-31 -64q-14 -31 -28 -31q-6 0 -27 9l-362 143q-33 13 -33 29q0 8 10 28l64 123q14 29 28 29q12 0 29 -10l334 -199q26 -16 26 -29z" />
    <glyph glyph-name="a" unicode="a" 
d="M989 29q0 -29 -28 -29h-259q-31 0 -45 30q-4 8 -16 58q-117 -117 -264 -117q-142 0 -224.5 84t-82.5 228q0 269 305 329q68 14 229 17v63q0 88 -31 121t-112 33q-92 0 -234 -55q-16 -5 -22 -5q-14 0 -21 21l-41 119q-6 18 -6 26q0 33 117.5 64t243.5 31q207 0 295 -113
q55 -71 55 -215v-357q0 -92 20 -172h93q28 0 28 -28v-133zM604 233v226q-139 -3 -186 -21q-101 -38 -101 -143q0 -60 38 -100.5t94 -40.5q81 0 155 79z" />
    <glyph glyph-name="b" unicode="b" horiz-adv-x="1100" 
d="M1034 532q0 -271 -116 -419t-308 -148q-123 0 -219 90q-31 -84 -59 -84q-12 0 -29 4l-166 41q-20 5 -20 17q0 5 6 18q41 87 41 215v1012h-113q-28 0 -28 29v133q0 28 28 28h344q29 0 29 -28v-484q131 91 254 91q356 0 356 -515zM774 520q0 145 -37 225q-43 95 -147 95
q-74 0 -166 -66v-567q57 -43 127 -43q223 0 223 356z" />
    <glyph glyph-name="c" unicode="c" horiz-adv-x="834" 
d="M805 49q0 -30 -92 -57t-195 -27q-218 0 -335 135t-117 385q0 265 126.5 413.5t352.5 148.5q51 0 128 -15q93 -18 119 -43q9 -8 9 -31v-276q0 -29 -29 -29h-151q-29 0 -29 29v154q-21 4 -49 4q-207 0 -207 -344q0 -171 50.5 -247.5t162.5 -76.5q80 0 162 37q13 6 20 6
q10 0 14 -10l54 -135q6 -16 6 -21z" />
    <glyph glyph-name="d" unicode="d" horiz-adv-x="1100" 
d="M1071 29q0 -29 -29 -29h-276q-26 0 -35 11t-24 65q-140 -111 -287 -111q-157 0 -240 105q-112 143 -112 417q0 290 120 437q102 123 273 123q113 0 209 -58v289h-111q-23 0 -27 13q-2 6 -2 16v133q0 28 29 28h342q29 0 29 -28v-1078q0 -101 20 -172h92q29 0 29 -28v-133z
M670 238v565q-71 37 -152 37q-109 0 -149.5 -73t-40.5 -265q0 -184 38 -259t132 -75q99 0 172 70z" />
    <glyph glyph-name="e" unicode="e" horiz-adv-x="987" 
d="M922 485q0 -49 -45 -49h-551q6 -258 227 -258q115 0 233 64q16 8 27 8q15 0 23 -19l51 -122q6 -15 6 -23q0 -27 -84 -63q-134 -58 -283 -58q-195 0 -305 101q-153 140 -153 432q0 248 122.5 398.5t325.5 150.5q406 0 406 -562zM649 627q-3 127 -37 180t-112 53
q-91 0 -132 -77q-27 -50 -38 -156h319z" />
    <glyph glyph-name="f" unicode="f" horiz-adv-x="760" 
d="M813 1409q0 -1 -4 -16l-37 -146q-7 -18 -18 -18q-7 0 -21 6q-64 29 -123 29q-86 0 -106 -63q-8 -25 -8 -103v-86h233q35 0 35 -21q0 -3 -4 -20l-29 -119q-7 -31 -39 -31h-196v-631h153q29 0 29 -28v-133q0 -29 -29 -29h-555q-28 0 -28 29v133q0 28 28 28h142v631h-156
q-26 0 -30.5 6.5t-4.5 42.5v113q0 29 35 29h156v86q0 205 88 295t239 90q94 0 172 -23t78 -51z" />
    <glyph glyph-name="g" unicode="g" horiz-adv-x="1061" 
d="M969 971q0 -8 -13 -37q-45 -108 -45 -232v-303q0 -184 7 -333q4 -100 4 -127q0 -367 -396 -367q-137 0 -280.5 38t-143.5 75q0 12 4 20l44 141q3 21 20 21q7 0 20 -6q166 -76 314 -76q93 0 129.5 38t36.5 136q0 -14 -4 129q-114 -76 -250 -76q-166 0 -258 131t-92 367
q0 252 102.5 394.5t284.5 142.5q133 0 243 -95q44 101 72 101q16 0 20 -4l162 -58q19 -9 19 -20zM659 289v483q-78 59 -153 59q-180 0 -180 -311q0 -148 43 -229q38 -72 120 -72q104 0 170 70z" />
    <glyph glyph-name="h" unicode="h" horiz-adv-x="1176" 
d="M1126 29q0 -29 -28 -29h-330q-35 0 -35 35v631q0 93 -25.5 132.5t-86.5 39.5q-84 0 -177 -84v-564h105q29 0 29 -28v-133q0 -29 -29 -29h-469q-29 0 -29 29v133q0 28 29 28h104v1088h-112q-29 0 -29 29v133q0 28 29 28h344q28 0 28 -28v-512q122 119 281 119
q162 0 227 -111q41 -69 41 -211v-535h105q28 0 28 -28v-133z" />
    <glyph glyph-name="i" unicode="i" horiz-adv-x="645" 
d="M518 1315q0 -71 -49.5 -120.5t-120.5 -49.5q-69 0 -118.5 49.5t-49.5 120.5q0 70 50 119t122 49q68 0 117 -50t49 -118zM643 29q0 -29 -29 -29h-526q-29 0 -29 29v133q0 28 29 28h133v631h-127q-35 0 -35 35v121q0 35 35 35h352q35 0 35 -35v-787h133q29 0 29 -28v-133z
" />
    <glyph glyph-name="j" unicode="j" horiz-adv-x="606" 
d="M502 1315q0 -71 -49.5 -120.5t-118.5 -49.5q-71 0 -120.5 49.5t-49.5 120.5q0 70 50 119t122 49q68 0 117 -49.5t49 -118.5zM469 20q0 -259 -47 -352q-77 -151 -303 -151q-86 0 -157 17.5t-71 39.5q0 7 5 20l45 154q4 14 18 14l16 -4q60 -26 115 -26q89 0 111 100
q8 39 8 188v801h-156q-35 0 -35 35v121q0 35 35 35h381q35 0 35 -35v-957z" />
    <glyph glyph-name="k" unicode="k" horiz-adv-x="1139" 
d="M1118 29q0 -29 -26 -29h-254q-26 0 -41 20l-353 480v-310h95q28 0 28 -28v-133q0 -29 -28 -29h-459q-29 0 -29 29v133q0 28 29 28h104v1088h-112q-29 0 -29 29v133q0 28 29 28h344q28 0 28 -28v-832l261 219h-93q-28 0 -28 29v127q0 29 28 29h455q29 0 29 -29v-133
q0 -29 -29 -29h-106l-291 -246l319 -385h103q26 0 26 -28v-133z" />
    <glyph glyph-name="l" unicode="l" horiz-adv-x="606" 
d="M608 23q0 -20 -66.5 -39t-138.5 -19q-169 0 -225 121q-28 62 -28 274v918h-113q-29 0 -29 29v133q0 28 29 28h344q29 0 29 -28v-1061q0 -109 4 -129q9 -45 51 -45q15 0 41.5 7t40.5 7q13 0 16 -12l43 -176q2 -4 2 -8z" />
    <glyph glyph-name="m" unicode="m" horiz-adv-x="1706" 
d="M1657 29q0 -29 -35 -29h-319q-35 0 -35 35v649q0 84 -21 118t-73 34q-80 0 -175 -86v-560h107q29 0 29 -34v-127q0 -29 -29 -29h-328q-35 0 -35 35v629q0 84 -9 114q-19 58 -83 58q-71 0 -172 -86v-560h105q28 0 28 -28v-133q0 -29 -28 -29h-467q-29 0 -29 29v133
q0 28 29 28h104v457q0 100 -20 174h-99q-28 0 -28 29v133q0 29 28 29h285q34 0 50 -39q3 -6 18 -70q151 144 299 144q157 0 223 -144q154 144 315 144q150 0 202 -116q30 -66 30 -222v-519h104q29 0 29 -28v-133z" />
    <glyph glyph-name="n" unicode="n" horiz-adv-x="1214" 
d="M1165 29q0 -29 -28 -29h-332q-35 0 -35 35v631q0 170 -113 170q-83 0 -176 -84v-562h105q28 0 28 -28v-133q0 -29 -28 -29h-469q-29 0 -29 29v133q0 28 29 28h104v457q0 100 -20 174h-99q-28 0 -28 29v133q0 29 28 29h285q33 0 49 -39q2 -6 17 -68q155 142 313 142
q264 0 264 -324v-533h107q28 0 28 -28v-133z" />
    <glyph glyph-name="o" unicode="o" 
d="M958 508q0 -251 -119 -397t-325 -146q-210 0 -328 143t-118 398q0 249 118 391q125 150 336 150q202 0 319 -145t117 -394zM682 504q0 181 -40 258.5t-132 77.5q-88 0 -127 -79t-39 -255q0 -178 39.5 -256t128.5 -78q90 0 130 78t40 254z" />
    <glyph glyph-name="p" unicode="p" horiz-adv-x="1100" 
d="M1032 522q0 -313 -125 -461q-81 -96 -252 -96q-112 0 -211 53v-241h111q29 0 29 -29v-133q0 -29 -29 -29h-475q-29 0 -29 29v133q0 29 29 29h104v870q0 104 -20 174h-98q-29 0 -29 29v133q0 29 29 29h284q25 0 33.5 -10.5t22.5 -57.5q145 103 270 103q356 0 356 -525z
M772 514q0 326 -166 326q-80 0 -162 -76v-563q73 -39 144 -39q97 0 133 57q51 82 51 295z" />
    <glyph glyph-name="q" unicode="q" horiz-adv-x="1061" 
d="M1059 -385q0 -29 -29 -29h-477q-29 0 -29 29v133q0 29 29 29h113v268q-100 -80 -236 -80q-362 0 -362 527q0 262 100.5 408.5t282.5 146.5q140 0 249 -95q50 99 78 99q14 0 31 -7l149 -53q25 -6 25 -22q0 -13 -8 -27q-49 -101 -49 -240v-925h104q29 0 29 -35v-127z
M666 242v522q-73 61 -158 61q-97 0 -138.5 -79.5t-41.5 -262.5q0 -321 174 -321q92 0 164 80z" />
    <glyph glyph-name="r" unicode="r" horiz-adv-x="797" 
d="M815 999q0 -12 -4 -20l-61 -166q-7 -18 -19 -18q-6 1 -12 4q-46 16 -84 16q-61 0 -154 -98v-527h111q29 0 29 -28v-133q0 -29 -29 -29h-475q-29 0 -29 29v133q0 28 29 28h104v459q0 98 -20 172h-101q-26 -15 -26 29v133q0 29 28 29h267q35 0 54 -48q2 -5 21 -77
q82 96 132 128t122 32q46 0 81.5 -14.5t35.5 -33.5z" />
    <glyph glyph-name="s" unicode="s" horiz-adv-x="872" 
d="M805 297q0 -140 -94 -238q-91 -94 -254 -94q-167 0 -332 76q-31 14 -31 43v223q0 29 29 29h139q29 0 29 -35v-106q94 -29 143 -29q127 0 127 106q0 45 -29 69.5t-129 61.5q-172 65 -219 109q-82 76 -82 201q0 145 102 239.5t259 94.5q145 0 258 -52q29 -13 29 -41v-213
q0 -28 -29 -28h-139q-29 0 -29 28v103q-57 8 -80 8q-131 0 -131 -104q0 -51 45 -80q17 -11 92 -39q185 -71 240 -123q86 -83 86 -209z" />
    <glyph glyph-name="t" unicode="t" horiz-adv-x="682" 
d="M707 45q0 -25 -64 -45q-108 -35 -205 -35q-180 0 -248 129q-30 59 -30 193v534h-142q-34 0 -34 35v121q0 35 34 35h142v258q0 32 33 37l188 26h18q21 0 21 -33v-288h233q35 0 35 -21q0 -12 -2 -18l-27 -121q-6 -31 -36 -31h-203v-497q0 -80 12 -101q18 -30 64 -30
q47 0 135 34q10 4 18 4q14 0 21 -20l32 -143q5 -18 5 -23z" />
    <glyph glyph-name="u" unicode="u" horiz-adv-x="1176" 
d="M1126 29q0 -29 -28 -29h-275q-26 0 -36 14.5t-25 75.5q-76 -71 -137 -98t-150 -27q-211 0 -270 162q-23 62 -23 238v456h-104q-29 0 -29 29v133q0 29 29 29h332q32 0 32 -33v-602q0 -114 19 -150q28 -55 100 -55q82 0 164 76v573h-107q-26 0 -26 29v133q0 29 26 29h334
q33 0 33 -33v-617q0 -100 21 -172h92q28 0 28 -28v-133z" />
    <glyph glyph-name="v" unicode="v" horiz-adv-x="948" 
d="M983 850q0 -29 -29 -29h-69l-289 -833q-9 -27 -39 -27h-170q-30 0 -39 27l-287 833h-67q-29 0 -29 29v133q0 29 29 29h254q31 0 39 -29l129 -455q29 -104 65 -297q44 207 72 297l139 455q9 29 39 29h223q29 0 29 -29v-133z" />
    <glyph glyph-name="w" unicode="w" horiz-adv-x="1403" 
d="M1419 850q0 -29 -28 -29h-70l-242 -809q-8 -28 -39 -28h-170q-30 0 -36 32l-97 519q-17 93 -24 180l-4 49q-18 -141 -39 -234l-119 -516q-7 -30 -39 -30h-166q-31 0 -39 30l-209 807h-65q-29 0 -29 29v133q0 29 29 29h241q31 0 37 -31l95 -453q22 -107 40 -321
q25 215 41 295l99 479q6 31 39 31h182q33 0 39 -31l90 -461q17 -85 41 -313q25 245 47 340l100 434q7 31 37 31h230q28 0 28 -29v-133z" />
    <glyph glyph-name="x" unicode="x" horiz-adv-x="987" 
d="M973 29q0 -19 -7.5 -24t-23.5 -5h-207q-29 0 -45 25l-121 184l-77 125q-37 -65 -78 -125l-125 -184q-17 -25 -47 -25h-203q-22 0 -25 11q-2 5 -2 18v133q0 28 27 28h74l231 320l-213 311h-80q-28 0 -28 35v127q0 29 28 29h213q29 0 45 -27l105 -170q7 -13 22 -37
q8 -16 19 -33l30 -57q32 51 84 127l119 172q17 25 45 25h201q29 0 29 -29v-133q0 -29 -29 -29h-70l-223 -311l223 -320h78q31 0 31 -28v-133z" />
    <glyph glyph-name="y" unicode="y" horiz-adv-x="948" 
d="M997 850q0 -29 -28 -29h-72l-166 -608l-90 -336q-51 -195 -139 -266q-81 -66 -207 -66q-88 0 -184.5 33t-96.5 64q0 10 9 22l63 131q7 15 18 15q5 0 17 -7q90 -45 155 -45q66 0 99 33t61 123l27 86h-86q-30 0 -39 27l-275 794h-65q-29 0 -29 29v133q0 29 29 29h258
q29 0 37 -29l133 -489q33 -120 78 -355q5 25 14 74q8 53 29 162q7 34 26 119l111 487q7 31 39 31h246q28 0 28 -29v-133z" />
    <glyph glyph-name="z" unicode="z" horiz-adv-x="911" 
d="M889 258q0 -8 -6 -22l-90 -209q-1 -2 -2 -3q-11 -24 -37 -24h-656q-35 0 -35 35v139l474 627h-240v-84q0 -29 -29 -29h-133q-29 0 -29 29v266q0 29 29 29h651q25 0 30 -8.5t5 -26.5v-146l-465 -616h297l45 109q7 16 21 16q8 0 22 -6l129 -55q19 -8 19 -21z" />
    <glyph glyph-name="braceleft" unicode="{" horiz-adv-x="911" 
d="M797 -377q0 -26 -7 -34.5t-28 -8.5q-208 0 -309 92t-101 285v330q0 145 -143 145h-35q-36 0 -41 18q-2 8 -2 23v141q0 28 7 34.5t36 6.5h35q143 0 143 146v286q0 377 408 377q26 0 33 -13q4 -9 4 -28v-133q0 -26 -7.5 -33.5t-35.5 -7.5h-9q-139 0 -139 -143v-315
q0 -99 -32 -152.5t-115 -93.5q84 -41 115.5 -95t31.5 -153v-358q0 -142 139 -142h9q36 0 41 -18q2 -8 2 -25v-131z" />
    <glyph glyph-name="bar" unicode="|" horiz-adv-x="823" 
d="M516 -350h-209v1755h209v-1755z" />
    <glyph glyph-name="braceright" unicode="}" horiz-adv-x="911" 
d="M780 432q0 -36 -18 -41q-8 -2 -25 -2h-35q-78 0 -110.5 -33.5t-32.5 -111.5v-287q0 -377 -407 -377q-27 0 -34 14q-3 8 -3 27v133q0 28 7 34.5t36 6.5h8q139 0 139 144v315q0 99 32 153t116 95q-83 41 -115.5 95t-32.5 153v358q0 141 -139 141h-8q-29 0 -36 7t-7 36v131
q0 27 6.5 35t28.5 8q208 0 308.5 -91.5t100.5 -284.5v-330q0 -79 32.5 -112.5t110.5 -33.5h35q37 0 41 -18q2 -8 2 -25v-139z" />
    <glyph glyph-name="asciitilde" unicode="~" 
d="M1020 764q-120 -279 -305 -279q-61 0 -221 70q-146 63 -193 63q-81 0 -158 -137l-139 117q117 276 305 276q73 0 234 -71q131 -60 180 -60q82 0 158 136z" />
    <glyph glyph-name="Adieresis" unicode="&#xc4;" horiz-adv-x="1176" 
d="M922 1681q0 -61 -43 -104t-103 -43q-61 0 -104 43t-43 104t43.5 103.5t105.5 42.5q58 0 101 -43.5t43 -102.5zM547 1679q0 -60 -43 -102.5t-103 -42.5q-61 0 -103 43t-42 104q0 60 43 102t104 42q59 0 101.5 -43t42.5 -103zM1202 35q0 -24 -8 -29.5t-27 -5.5h-442
q-24 0 -29.5 8t-5.5 27v127q0 24 10 30q7 5 25 5h76l-45 176h-359l-45 -176h78q24 0 29.5 -8.5t5.5 -26.5v-127q0 -24 -8 -29.5t-27 -5.5h-422q-24 0 -29.5 8t-5.5 27v127q0 24 10 30q7 5 25 5h70l358 1173q8 25 14.5 30t30.5 5h213q25 0 31.5 -5t13.5 -30l351 -1173h77
q25 0 30 -8.5t5 -26.5v-127zM705 561l-87 352q-13 56 -26 140l-23 145q-16 -105 -51 -285l-90 -352h277z" />
    <glyph glyph-name="Aring" unicode="&#xc5;" horiz-adv-x="1176" 
d="M823 1735q0 -91 -65 -156.5t-156 -65.5q-92 0 -156.5 64.5t-64.5 157.5q0 92 65 156.5t158 64.5q91 0 155 -65.5t64 -155.5zM1202 35q0 -24 -8 -29.5t-27 -5.5h-442q-24 0 -29.5 8t-5.5 27v127q0 24 10 30q7 5 25 5h76l-45 176h-359l-45 -176h78q24 0 29.5 -8.5
t5.5 -26.5v-127q0 -24 -8 -29.5t-27 -5.5h-422q-24 0 -29.5 8t-5.5 27v127q0 24 10 30q7 5 25 5h70l358 1173q8 25 14.5 30t30.5 5h213q25 0 31.5 -5t13.5 -30l351 -1173h77q25 0 30 -8.5t5 -26.5v-127zM690 1735q0 37 -26.5 63.5t-63.5 26.5q-35 0 -61.5 -27t-26.5 -63
q0 -37 26.5 -63.5t63.5 -26.5t62.5 26.5t25.5 63.5zM705 561l-87 352q-13 56 -26 140l-23 145q-16 -105 -51 -285l-90 -352h277z" />
    <glyph glyph-name="Ccedilla" unicode="&#xc7;" 
d="M993 82q0 -29 -51 -55q-107 -56 -256 -62l-6 -80q149 -18 149 -153q0 -85 -62 -136t-165 -51q-158 0 -158 39q0 4 5 17l18 88q0 10 8 10t12 -2q34 -12 80 -12q62 0 62 47t-82 49q-45 1 -45 20v17l16 155q-172 25 -262 127q-172 196 -172 596q0 360 142 552t409 192
q183 0 313 -84q29 -19 29 -51v-277q0 -24 -8 -29.5t-27 -5.5h-154q-20 0 -26 7t-6 28v162q-55 16 -111 16q-128 0 -180 -67q-92 -119 -92 -396q0 -296 76 -438q57 -106 225 -106q52 0 98 10v172q0 24 8 29.5t27 5.5h151q25 0 30 -8.5t5 -26.5v-299z" />
    <glyph glyph-name="Eacute" unicode="&#xc9;" horiz-adv-x="1063" 
d="M874 1657q0 -17 -34 -27l-385 -108q-22 -6 -25 -6q-19 0 -31 30l-26 68q-8 21 -8 28q0 13 30 27l359 168q17 8 30 8q14 0 27 -30l55 -129q8 -20 8 -29zM967 43q0 -29 -7 -36t-34 -7h-820q-29 0 -36 7t-7 36v111q0 36 19 41q8 2 24 2h105v1011h-105q-36 0 -41 19
q-2 8 -2 24v111q0 29 8 36t35 7h820q24 0 29.5 -8t5.5 -27v-321q0 -25 -8.5 -30t-26.5 -5h-142q-24 0 -29 8t-5 27v137h-265v-342h349q29 0 36 -6.5t7 -34.5v-135q0 -37 -19 -41q-8 -2 -24 -2h-349v-406h273v154q0 24 8 29.5t27 5.5h141q33 0 33 -35v-330z" />
    <glyph glyph-name="Ntilde" unicode="&#xd1;" horiz-adv-x="1327" 
d="M1036 1743q0 -22 -43 -84q-76 -111 -178 -111q-59 0 -141 54q-35 22 -62 22q-42 0 -77 -59q-10 -17 -19 -17q-6 0 -18 6l-99 50q-16 5 -16 16q0 22 47 92q68 100 170 100q65 0 150 -49q42 -24 67 -24q35 0 74 63q6 10 16 10l13 -2l100 -49q16 -8 16 -18zM1305 1251
q0 -36 -19 -41q-8 -2 -24 -2h-105v-1165q0 -36 -19 -41q-8 -2 -24 -2h-135q-32 0 -47 29l-377 700q-82 153 -125 279q8 -164 8 -265v-546h105q36 0 41 -19q2 -8 2 -24v-111q0 -36 -19 -41q-8 -2 -24 -2h-443q-29 0 -36 7t-7 36v111q0 36 19 41q8 2 24 2h105v1011h-105
q-36 0 -41 19q-2 8 -2 24v111q0 29 8 36t35 7h316q31 0 47 -29l340 -635q84 -156 127 -297q-6 152 -6 267v497h-105q-36 0 -41 19q-2 8 -2 24v111q0 36 19 41q8 2 24 2h443q27 0 35 -7t8 -36v-111z" />
    <glyph glyph-name="Odieresis" unicode="&#xd6;" horiz-adv-x="1176" 
d="M922 1681q0 -61 -43 -104t-103 -43q-61 0 -104 43t-43 104t43.5 103.5t105.5 42.5q58 0 101 -43.5t43 -102.5zM547 1679q0 -60 -43 -102.5t-103 -42.5q-61 0 -103 43t-42 104q0 60 43 102t104 42q59 0 101.5 -43t42.5 -103zM1096 719q0 -754 -514 -754q-500 0 -500 744
q0 429 180 604q131 127 336 127q219 0 346 -146q152 -174 152 -575zM807 698q0 525 -221 525q-215 0 -215 -523q0 -518 217 -518q219 0 219 516z" />
    <glyph glyph-name="Udieresis" unicode="&#xdc;" horiz-adv-x="1366" 
d="M1020 1681q0 -61 -42.5 -104t-103.5 -43t-104 43t-43 104t43.5 103.5t106.5 42.5q58 0 100.5 -43.5t42.5 -102.5zM645 1679q0 -60 -42.5 -102.5t-102.5 -42.5q-62 0 -104 43t-42 104q0 60 43 102t105 42q58 0 100.5 -43t42.5 -103zM1327 1251q0 -36 -18 -41q-7 -2 -23 -2
h-106v-733q0 -139 -28 -221.5t-97 -151.5q-139 -137 -391 -137q-276 0 -392 162q-79 111 -79 348v733h-105q-36 0 -41 19q-2 8 -2 24v111q0 29 7.5 36t35.5 7h485q34 0 39 -17q2 -8 2 -26v-111q0 -36 -17 -41q-8 -2 -24 -2h-106v-733q0 -171 49 -225q58 -64 166 -64
q124 0 178.5 67t54.5 218v737h-104q-36 0 -41 19q-2 8 -2 24v111q0 36 19 41q8 2 24 2h475q28 0 34.5 -7t6.5 -36v-111z" />
    <glyph glyph-name="aacute" unicode="&#xe1;" 
d="M829 1348q0 -17 -30 -29l-363 -143q-20 -9 -28 -9q-11 0 -27 31l-33 64q-10 19 -10 28q0 13 27 29l333 199q18 10 31 10q12 0 27 -29l63 -123q10 -20 10 -28zM989 29q0 -29 -28 -29h-259q-31 0 -45 30q-4 8 -16 58q-117 -117 -264 -117q-142 0 -224.5 84t-82.5 228
q0 269 305 329q68 14 229 17v63q0 88 -31 121t-112 33q-92 0 -234 -55q-16 -5 -22 -5q-14 0 -21 21l-41 119q-6 18 -6 26q0 33 117.5 64t243.5 31q207 0 295 -113q55 -71 55 -215v-357q0 -92 20 -172h93q28 0 28 -28v-133zM604 233v226q-139 -3 -186 -21q-101 -38 -101 -143
q0 -60 38 -100.5t94 -40.5q81 0 155 79z" />
    <glyph glyph-name="agrave" unicode="&#xe0;" 
d="M688 1290q0 -7 -10 -28l-31 -64q-15 -31 -29 -31q-5 0 -26 9l-363 143q-32 13 -32 29q0 8 10 28l63 123q15 29 29 29q11 0 29 -10l334 -199q26 -16 26 -29zM989 29q0 -29 -28 -29h-259q-31 0 -45 30q-4 8 -16 58q-117 -117 -264 -117q-142 0 -224.5 84t-82.5 228
q0 269 305 329q68 14 229 17v63q0 88 -31 121t-112 33q-92 0 -234 -55q-16 -5 -22 -5q-14 0 -21 21l-41 119q-6 18 -6 26q0 33 117.5 64t243.5 31q207 0 295 -113q55 -71 55 -215v-357q0 -92 20 -172h93q28 0 28 -28v-133zM604 233v226q-139 -3 -186 -21q-101 -38 -101 -143
q0 -60 38 -100.5t94 -40.5q81 0 155 79z" />
    <glyph glyph-name="acircumflex" unicode="&#xe2;" 
d="M780 1249q0 -6 -12 -26l-39 -64q-17 -26 -31 -26q-5 0 -26 12l-174 100l-176 -100q-22 -12 -27 -12q-15 0 -31 26l-37 64q-12 21 -12 26q0 13 23 31l231 182q21 17 29 17q10 0 30 -17l230 -182q22 -18 22 -31zM989 29q0 -29 -28 -29h-259q-31 0 -45 30q-4 8 -16 58
q-117 -117 -264 -117q-142 0 -224.5 84t-82.5 228q0 269 305 329q68 14 229 17v63q0 88 -31 121t-112 33q-92 0 -234 -55q-16 -5 -22 -5q-14 0 -21 21l-41 119q-6 18 -6 26q0 33 117.5 64t243.5 31q207 0 295 -113q55 -71 55 -215v-357q0 -92 20 -172h93q28 0 28 -28v-133z
M604 233v226q-139 -3 -186 -21q-101 -38 -101 -143q0 -60 38 -100.5t94 -40.5q81 0 155 79z" />
    <glyph glyph-name="adieresis" unicode="&#xe4;" 
d="M809 1305q0 -59 -41.5 -100.5t-99.5 -41.5q-59 0 -100.5 41.5t-41.5 100.5t42 100t102 41q57 0 98 -41.5t41 -99.5zM446 1305q0 -59 -41 -100.5t-100 -41.5q-58 0 -99.5 41.5t-41.5 100.5t41.5 100t101.5 41q57 0 98 -41.5t41 -99.5zM989 29q0 -29 -28 -29h-259
q-31 0 -45 30q-4 8 -16 58q-117 -117 -264 -117q-142 0 -224.5 84t-82.5 228q0 269 305 329q68 14 229 17v63q0 88 -31 121t-112 33q-92 0 -234 -55q-16 -5 -22 -5q-14 0 -21 21l-41 119q-6 18 -6 26q0 33 117.5 64t243.5 31q207 0 295 -113q55 -71 55 -215v-357
q0 -92 20 -172h93q28 0 28 -28v-133zM604 233v226q-139 -3 -186 -21q-101 -38 -101 -143q0 -60 38 -100.5t94 -40.5q81 0 155 79z" />
    <glyph glyph-name="atilde" unicode="&#xe3;" 
d="M829 1366q0 -16 -43 -82q-72 -110 -174 -110q-52 0 -110.5 37.5t-83.5 37.5q-43 0 -76 -59q-9 -16 -18 -16q-6 0 -19 6l-96 47q-14 7 -14 18q0 25 45 92q67 101 166 101q62 0 145 -49q41 -25 65 -25q33 0 72 63q5 11 17 11q8 0 12 -4l96 -48q16 -8 16 -20zM989 29
q0 -29 -28 -29h-259q-31 0 -45 30q-4 8 -16 58q-117 -117 -264 -117q-142 0 -224.5 84t-82.5 228q0 269 305 329q68 14 229 17v63q0 88 -31 121t-112 33q-92 0 -234 -55q-16 -5 -22 -5q-14 0 -21 21l-41 119q-6 18 -6 26q0 33 117.5 64t243.5 31q207 0 295 -113
q55 -71 55 -215v-357q0 -92 20 -172h93q28 0 28 -28v-133zM604 233v226q-139 -3 -186 -21q-101 -38 -101 -143q0 -60 38 -100.5t94 -40.5q81 0 155 79z" />
    <glyph glyph-name="aring" unicode="&#xe5;" 
d="M715 1360q0 -89 -63 -152t-152 -63q-88 0 -150.5 63t-62.5 152q0 90 63 152.5t154 62.5q86 0 148.5 -64t62.5 -151zM989 29q0 -29 -28 -29h-259q-31 0 -45 30q-4 8 -16 58q-117 -117 -264 -117q-142 0 -224.5 84t-82.5 228q0 269 305 329q68 14 229 17v63q0 88 -31 121
t-112 33q-92 0 -234 -55q-16 -5 -22 -5q-14 0 -21 21l-41 119q-6 18 -6 26q0 33 117.5 64t243.5 31q207 0 295 -113q55 -71 55 -215v-357q0 -92 20 -172h93q28 0 28 -28v-133zM586 1358q0 37 -25.5 62.5t-60.5 25.5q-36 0 -61 -25.5t-25 -62.5q0 -36 25 -61t61 -25
q35 0 60.5 25t25.5 61zM604 233v226q-139 -3 -186 -21q-101 -38 -101 -143q0 -60 38 -100.5t94 -40.5q81 0 155 79z" />
    <glyph glyph-name="ccedilla" unicode="&#xe7;" horiz-adv-x="834" 
d="M805 49q0 -26 -72.5 -51t-167.5 -33l-6 -78q148 -15 148 -147q0 -84 -60.5 -133t-163.5 -49q-151 0 -151 39q0 4 4 16l16 86q4 8 10 8q4 0 11 -2q37 -12 80 -12q59 0 59 45q0 47 -80 49q-45 1 -45 20v15l16 153q-127 28 -200 103q-137 139 -137 407q0 265 126.5 413.5
t352.5 148.5q51 0 128 -15q93 -18 119 -43q9 -8 9 -31v-276q0 -29 -29 -29h-151q-29 0 -29 29v154q-21 4 -49 4q-207 0 -207 -344q0 -171 50 -248.5t161 -77.5q83 0 164 39q12 6 20 6q10 0 14 -10l54 -135q6 -16 6 -21z" />
    <glyph glyph-name="eacute" unicode="&#xe9;" horiz-adv-x="987" 
d="M881 1305q0 -17 -31 -29l-363 -143q-20 -9 -28 -9q-11 0 -27 31l-33 64q-10 19 -10 28q0 13 27 29l334 199q17 10 30 10q12 0 27 -29l63 -123q11 -20 11 -28zM922 485q0 -49 -45 -49h-551q6 -258 227 -258q115 0 233 64q16 8 27 8q15 0 23 -19l51 -122q6 -15 6 -23
q0 -27 -84 -63q-134 -58 -283 -58q-195 0 -305 101q-153 140 -153 432q0 248 122.5 398.5t325.5 150.5q406 0 406 -562zM649 627q-3 127 -37 180t-112 53q-91 0 -132 -77q-27 -50 -38 -156h319z" />
    <glyph glyph-name="egrave" unicode="&#xe8;" horiz-adv-x="987" 
d="M670 1247q0 -7 -11 -28l-30 -64q-15 -31 -29 -31q-6 0 -27 9l-362 143q-33 13 -33 29q0 8 10 28l64 123q15 29 29 29q11 0 28 -10l334 -199q27 -16 27 -29zM922 485q0 -49 -45 -49h-551q6 -258 227 -258q115 0 233 64q16 8 27 8q15 0 23 -19l51 -122q6 -15 6 -23
q0 -27 -84 -63q-134 -58 -283 -58q-195 0 -305 101q-153 140 -153 432q0 248 122.5 398.5t325.5 150.5q406 0 406 -562zM649 627q-3 127 -37 180t-112 53q-91 0 -132 -77q-27 -50 -38 -156h319z" />
    <glyph glyph-name="ecircumflex" unicode="&#xea;" horiz-adv-x="987" 
d="M803 1249q0 -6 -12 -26l-39 -64q-17 -26 -31 -26q-5 0 -27 12l-174 100l-176 -100q-22 -12 -27 -12q-15 0 -30 26l-37 64q-12 21 -12 26q0 13 22 31l232 182q20 17 28 17q10 0 31 -17l229 -182q23 -18 23 -31zM922 485q0 -49 -45 -49h-551q6 -258 227 -258q115 0 233 64
q16 8 27 8q15 0 23 -19l51 -122q6 -15 6 -23q0 -27 -84 -63q-134 -58 -283 -58q-195 0 -305 101q-153 140 -153 432q0 248 122.5 398.5t325.5 150.5q406 0 406 -562zM649 627q-3 127 -37 180t-112 53q-91 0 -132 -77q-27 -50 -38 -156h319z" />
    <glyph glyph-name="edieresis" unicode="&#xeb;" horiz-adv-x="987" 
d="M815 1305q0 -59 -41.5 -100.5t-99.5 -41.5q-59 0 -100.5 41.5t-41.5 100.5t42 100t102 41q57 0 98 -41.5t41 -99.5zM453 1305q0 -59 -41.5 -100.5t-100.5 -41.5q-58 0 -99.5 41.5t-41.5 100.5t41.5 100t101.5 41q57 0 98.5 -41.5t41.5 -99.5zM922 485q0 -49 -45 -49h-551
q6 -258 227 -258q115 0 233 64q16 8 27 8q15 0 23 -19l51 -122q6 -15 6 -23q0 -27 -84 -63q-134 -58 -283 -58q-195 0 -305 101q-153 140 -153 432q0 248 122.5 398.5t325.5 150.5q406 0 406 -562zM649 627q-3 127 -37 180t-112 53q-91 0 -132 -77q-27 -50 -38 -156h319z
" />
    <glyph glyph-name="iacute" unicode="&#xed;" horiz-adv-x="645" 
d="M684 1348q0 -17 -31 -29l-362 -143q-21 -9 -29 -9q-11 0 -26 31l-33 64q-10 19 -10 28q0 13 26 29l334 199q17 10 31 10q11 0 26 -29l64 -123q10 -20 10 -28zM643 29q0 -29 -29 -29h-526q-29 0 -29 29v133q0 28 29 28h133v631h-127q-35 0 -35 35v121q0 35 35 35h352
q35 0 35 -35v-787h133q29 0 29 -28v-133z" />
    <glyph glyph-name="igrave" unicode="&#xec;" horiz-adv-x="645" 
d="M455 1247q0 -7 -11 -28l-30 -64q-15 -31 -29 -31q-6 0 -27 9l-362 143q-33 13 -33 29q0 8 10 28l64 123q15 29 29 29q11 0 28 -10l334 -199q27 -16 27 -29zM643 29q0 -29 -29 -29h-526q-29 0 -29 29v133q0 28 29 28h133v631h-127q-35 0 -35 35v121q0 35 35 35h352
q35 0 35 -35v-787h133q29 0 29 -28v-133z" />
    <glyph glyph-name="icircumflex" unicode="&#xee;" horiz-adv-x="645" 
d="M604 1249q0 -6 -12 -26l-39 -64q-17 -26 -31 -26q-5 0 -26 12l-174 100l-177 -100q-21 -12 -26 -12q-15 0 -31 26l-37 64q-12 21 -12 26q0 13 22 31l232 182q21 17 29 17q10 0 30 -17l230 -182q22 -18 22 -31zM643 29q0 -29 -29 -29h-526q-29 0 -29 29v133q0 28 29 28
h133v631h-127q-35 0 -35 35v121q0 35 35 35h352q35 0 35 -35v-787h133q29 0 29 -28v-133z" />
    <glyph glyph-name="idieresis" unicode="&#xef;" horiz-adv-x="645" 
d="M637 1305q0 -59 -41.5 -100.5t-99.5 -41.5q-59 0 -100.5 41.5t-41.5 100.5t42 100t102 41q57 0 98 -41.5t41 -99.5zM289 1305q0 -59 -41.5 -100.5t-100.5 -41.5q-58 0 -99.5 41.5t-41.5 100.5t41.5 100t102.5 41q56 0 97.5 -41.5t41.5 -99.5zM643 29q0 -29 -29 -29h-526
q-29 0 -29 29v133q0 28 29 28h133v631h-127q-35 0 -35 35v121q0 35 35 35h352q35 0 35 -35v-787h133q29 0 29 -28v-133z" />
    <glyph glyph-name="ntilde" unicode="&#xf1;" horiz-adv-x="1214" 
d="M961 1366q0 -16 -43 -82q-73 -110 -175 -110q-52 0 -110.5 37.5t-83.5 37.5q-43 0 -76 -59q-9 -16 -18 -16q-6 0 -19 6l-96 47q-14 7 -14 18q0 25 45 92q67 101 166 101q62 0 145 -49q41 -25 66 -25q32 0 71 63q5 11 17 11q8 0 12 -4l96 -48q17 -8 17 -20zM1165 29
q0 -29 -28 -29h-332q-35 0 -35 35v631q0 170 -113 170q-83 0 -176 -84v-562h105q28 0 28 -28v-133q0 -29 -28 -29h-469q-29 0 -29 29v133q0 28 29 28h104v457q0 100 -20 174h-99q-28 0 -28 29v133q0 29 28 29h285q33 0 49 -39q2 -6 17 -68q155 142 313 142q264 0 264 -324
v-533h107q28 0 28 -28v-133z" />
    <glyph glyph-name="oacute" unicode="&#xf3;" 
d="M899 1305q0 -17 -31 -29l-362 -143q-21 -9 -29 -9q-11 0 -26 31l-33 64q-10 19 -10 28q0 13 26 29l334 199q17 10 31 10q12 0 26 -29l64 -123q10 -20 10 -28zM958 508q0 -251 -119 -397t-325 -146q-210 0 -328 143t-118 398q0 249 118 391q125 150 336 150
q202 0 319 -145t117 -394zM682 504q0 181 -40 258.5t-132 77.5q-88 0 -127 -79t-39 -255q0 -178 39.5 -256t128.5 -78q90 0 130 78t40 254z" />
    <glyph glyph-name="ograve" unicode="&#xf2;" 
d="M659 1247q0 -7 -10 -28l-31 -64q-14 -31 -28 -31q-6 0 -27 9l-362 143q-33 13 -33 29q0 8 10 28l64 123q14 29 28 29q12 0 29 -10l334 -199q26 -16 26 -29zM958 508q0 -251 -119 -397t-325 -146q-210 0 -328 143t-118 398q0 249 118 391q125 150 336 150q202 0 319 -145
t117 -394zM682 504q0 181 -40 258.5t-132 77.5q-88 0 -127 -79t-39 -255q0 -178 39.5 -256t128.5 -78q90 0 130 78t40 254z" />
    <glyph glyph-name="ocircumflex" unicode="&#xf4;" 
d="M795 1249q0 -6 -13 -26l-39 -64q-16 -26 -30 -26q-6 0 -27 12l-174 100l-176 -100q-22 -12 -27 -12q-15 0 -30 26l-37 64q-13 21 -13 26q0 13 23 31l231 182q21 17 29 17q10 0 31 -17l229 -182q23 -18 23 -31zM958 508q0 -251 -119 -397t-325 -146q-210 0 -328 143
t-118 398q0 249 118 391q125 150 336 150q202 0 319 -145t117 -394zM682 504q0 181 -40 258.5t-132 77.5q-88 0 -127 -79t-39 -255q0 -178 39.5 -256t128.5 -78q90 0 130 78t40 254z" />
    <glyph glyph-name="odieresis" unicode="&#xf6;" 
d="M836 1305q0 -59 -41.5 -100.5t-100.5 -41.5q-58 0 -99.5 41.5t-41.5 100.5t41.5 100t101.5 41q57 0 98.5 -41.5t41.5 -99.5zM473 1305q0 -59 -41.5 -100.5t-99.5 -41.5q-59 0 -100.5 41.5t-41.5 100.5t42 100t102 41q57 0 98 -41.5t41 -99.5zM958 508q0 -251 -119 -397
t-325 -146q-210 0 -328 143t-118 398q0 249 118 391q125 150 336 150q202 0 319 -145t117 -394zM682 504q0 181 -40 258.5t-132 77.5q-88 0 -127 -79t-39 -255q0 -178 39.5 -256t128.5 -78q90 0 130 78t40 254z" />
    <glyph glyph-name="otilde" unicode="&#xf5;" 
d="M829 1366q0 -16 -43 -82q-72 -110 -174 -110q-52 0 -110.5 37.5t-83.5 37.5q-43 0 -76 -59q-9 -16 -18 -16q-6 0 -19 6l-96 47q-14 7 -14 18q0 25 45 92q67 101 166 101q62 0 145 -49q41 -25 65 -25q33 0 72 63q5 11 17 11q8 0 12 -4l96 -48q16 -8 16 -20zM958 508
q0 -251 -119 -397t-325 -146q-210 0 -328 143t-118 398q0 249 118 391q125 150 336 150q202 0 319 -145t117 -394zM682 504q0 181 -40 258.5t-132 77.5q-88 0 -127 -79t-39 -255q0 -178 39.5 -256t128.5 -78q90 0 130 78t40 254z" />
    <glyph glyph-name="uacute" unicode="&#xfa;" horiz-adv-x="1176" 
d="M991 1305q0 -17 -30 -29l-363 -143q-21 -9 -29 -9q-10 0 -26 31l-33 64q-10 19 -10 28q0 13 26 29l334 199q17 10 31 10q12 0 27 -29l63 -123q10 -20 10 -28zM1126 29q0 -29 -28 -29h-275q-26 0 -36 14.5t-25 75.5q-76 -71 -137 -98t-150 -27q-211 0 -270 162
q-23 62 -23 238v456h-104q-29 0 -29 29v133q0 29 29 29h332q32 0 32 -33v-602q0 -114 19 -150q28 -55 100 -55q82 0 164 76v573h-107q-26 0 -26 29v133q0 29 26 29h334q33 0 33 -33v-617q0 -100 21 -172h92q28 0 28 -28v-133z" />
    <glyph glyph-name="ugrave" unicode="&#xf9;" horiz-adv-x="1176" 
d="M694 1247q0 -7 -10 -28l-31 -64q-15 -31 -28 -31q-6 0 -27 9l-362 143q-33 13 -33 29q0 8 10 28l63 123q15 29 29 29q12 0 29 -10l334 -199q26 -16 26 -29zM1126 29q0 -29 -28 -29h-275q-26 0 -36 14.5t-25 75.5q-76 -71 -137 -98t-150 -27q-211 0 -270 162
q-23 62 -23 238v456h-104q-29 0 -29 29v133q0 29 29 29h332q32 0 32 -33v-602q0 -114 19 -150q28 -55 100 -55q82 0 164 76v573h-107q-26 0 -26 29v133q0 29 26 29h334q33 0 33 -33v-617q0 -100 21 -172h92q28 0 28 -28v-133z" />
    <glyph glyph-name="ucircumflex" unicode="&#xfb;" horiz-adv-x="1176" 
d="M870 1249q0 -6 -12 -26l-39 -64q-16 -26 -31 -26q-5 0 -26 12l-174 100l-176 -100q-22 -12 -27 -12q-15 0 -31 26l-37 64q-12 21 -12 26q0 13 23 31l231 182q21 17 29 17q10 0 30 -17l230 -182q22 -18 22 -31zM1126 29q0 -29 -28 -29h-275q-26 0 -36 14.5t-25 75.5
q-76 -71 -137 -98t-150 -27q-211 0 -270 162q-23 62 -23 238v456h-104q-29 0 -29 29v133q0 29 29 29h332q32 0 32 -33v-602q0 -114 19 -150q28 -55 100 -55q82 0 164 76v573h-107q-26 0 -26 29v133q0 29 26 29h334q33 0 33 -33v-617q0 -100 21 -172h92q28 0 28 -28v-133z
" />
    <glyph glyph-name="udieresis" unicode="&#xfc;" horiz-adv-x="1176" 
d="M928 1305q0 -59 -41.5 -100.5t-100.5 -41.5q-58 0 -99.5 41.5t-41.5 100.5t41.5 100t101.5 41q57 0 98.5 -41.5t41.5 -99.5zM565 1305q0 -59 -41.5 -100.5t-99.5 -41.5t-99.5 41.5t-41.5 100.5t41.5 100t101.5 41q57 0 98 -41.5t41 -99.5zM1126 29q0 -29 -28 -29h-275
q-26 0 -36 14.5t-25 75.5q-76 -71 -137 -98t-150 -27q-211 0 -270 162q-23 62 -23 238v456h-104q-29 0 -29 29v133q0 29 29 29h332q32 0 32 -33v-602q0 -114 19 -150q28 -55 100 -55q82 0 164 76v573h-107q-26 0 -26 29v133q0 29 26 29h334q33 0 33 -33v-617q0 -100 21 -172
h92q28 0 28 -28v-133z" />
    <glyph glyph-name="dagger" unicode="&#x2020;" horiz-adv-x="1100" 
d="M946 823q0 -36 -18 -41q-8 -2 -25 -2h-239v-1171q0 -36 -19 -41q-8 -2 -24 -2h-142q-27 0 -34 7t-7 36v1171h-239q-30 0 -36.5 7t-6.5 36v111q0 36 18 41q8 2 25 2h239v385q0 36 18 41q8 2 23 2h142q36 0 41 -19q2 -8 2 -24v-385h239q36 0 41 -19q2 -8 2 -24v-111z" />
    <glyph glyph-name="degree" unicode="&#xb0;" horiz-adv-x="1100" 
d="M872 1116q0 -134 -94 -227.5t-229 -93.5q-133 0 -227.5 94t-94.5 227q0 136 95 230t233 94q130 0 223.5 -95.5t93.5 -228.5zM702 1116q0 65 -44.5 109.5t-108.5 44.5q-63 0 -107.5 -45.5t-44.5 -108.5q0 -64 44.5 -108.5t107.5 -44.5q64 0 108.5 44.5t44.5 108.5z" />
    <glyph glyph-name="cent" unicode="&#xa2;" horiz-adv-x="1100" 
d="M973 1133q0 -7 -6 -19l-76 -141q-7 -10 -12 -10q-7 0 -17 6q-71 44 -121 53v-662q47 3 117 39q12 4 14 4q11 0 15 -10l57 -143q6 -16 6 -21q0 -24 -64.5 -50t-144.5 -34v-106q0 -28 -6.5 -34.5t-36.5 -6.5h-36q-37 0 -41 18q-3 7 -3 23v102q-133 8 -219 72
q-190 141 -190 457q0 241 107 385.5t302 167.5v108q0 28 7.5 35.5t36.5 7.5h36q37 0 41 -18q2 -8 2 -25v-108q90 -10 161 -37t71 -53zM618 358v668q-153 -41 -153 -344q0 -284 153 -324z" />
    <glyph glyph-name="sterling" unicode="&#xa3;" horiz-adv-x="1100" 
d="M1118 201q0 -9 -4 -25l-37 -141q-9 -35 -45 -35h-891q-29 0 -36 7t-7 36v139q0 37 19 41q8 2 24 2h144q22 96 22 174q0 77 -26 205h-162q-37 0 -41 19q-2 8 -2 24v103q0 36 18 41q8 2 25 2h125q-29 99 -29 194q0 197 125 305q130 113 340 113q122 0 243 -41.5t121 -83.5
q0 -9 -6 -20l-67 -127q-11 -21 -25 -21q-11 0 -49 18q-117 58 -213 58q-103 0 -161 -58t-58 -161q0 -78 29 -172h282q34 0 39 -17q2 -9 2 -26v-107q0 -29 -6.5 -36t-34.5 -7h-248q31 -120 31 -203q0 -76 -20 -176h538q41 0 41 -24z" />
    <glyph glyph-name="section" unicode="&#xa7;" horiz-adv-x="1100" 
d="M963 463q0 -195 -205 -297q160 -89 160 -254q0 -143 -112.5 -244.5t-268.5 -101.5q-119 0 -256.5 50.5t-137.5 94.5q0 14 7 23l63 125q8 16 18 16t23 -8q158 -103 289 -103q121 0 121 107q0 47 -41.5 81t-178.5 99q-170 81 -231 142q-76 74 -76 200q0 210 215 301
q-155 87 -155 240q0 140 106 229.5t270 89.5q163 0 297 -86q29 -18 29 -37q0 -11 -8 -22l-60 -115q-7 -14 -22 -14q-10 0 -25 8q-131 72 -215 72q-135 0 -135 -90q0 -37 29 -58.5t200.5 -108t227.5 -147.5q72 -78 72 -192zM711 432q0 46 -33.5 78t-136.5 88
q-154 -81 -154 -170q0 -46 37 -79t149 -87q138 80 138 170z" />
    <glyph glyph-name="bullet" unicode="&#x2022;" 
d="M804 713q0 -120 -85.5 -205.5t-205.5 -85.5q-121 0 -207 85.5t-86 205.5q0 123 85.5 208t209.5 85q119 0 204 -86t85 -207z" />
    <glyph glyph-name="paragraph" unicode="&#xb6;" horiz-adv-x="1442" 
d="M1358 1264q0 -30 -6.5 -36.5t-34.5 -6.5h-115v-1559q0 -26 -8.5 -35.5t-34.5 -9.5h-125q-24 0 -32.5 8.5t-8.5 34.5v1561h-137v-1559q0 -36 -19 -41q-8 -2 -24 -2h-125q-28 0 -34.5 7t-6.5 36v668q-74 -15 -123 -15q-201 0 -323.5 133.5t-122.5 409.5q0 375 223 494
q100 53 334 53h682q28 0 34.5 -7t6.5 -36v-98zM647 514v707q-178 0 -246.5 -72.5t-68.5 -261.5q0 -206 54.5 -294.5t180.5 -88.5q37 0 80 10z" />
    <glyph glyph-name="germandbls" unicode="&#xdf;" horiz-adv-x="1290" 
d="M1217 305q0 -161 -95 -250.5t-264 -89.5q-134 0 -244 47q-28 13 -28 29l2 22l35 134q3 14 18 14q13 0 27 -8q105 -49 190 -49q121 0 121 120q0 54 -28 91.5t-128 115.5q-124 98 -159 148q-48 66 -48 145q0 110 119 232q78 80 78 147q0 131 -162 131q-153 0 -186 -110
q-10 -35 -10 -136v-1003q0 -35 -35 -35h-330q-29 0 -29 29v133q0 28 29 28h105v826q0 232 100 338q124 131 358 131q187 0 295.5 -80t108.5 -217q0 -73 -29.5 -124.5t-120.5 -139.5q-57 -56 -57 -97q0 -36 20.5 -59t145.5 -123q118 -95 159.5 -165t41.5 -175z" />
    <glyph glyph-name="registered" unicode="&#xae;" horiz-adv-x="907" 
d="M872 1167q0 -183 -122 -312.5t-295 -129.5q-174 0 -296 129.5t-122 310.5q0 187 122.5 316t299.5 129q170 0 291.5 -130.5t121.5 -312.5zM760 1165q0 149 -90 251t-219 102q-124 0 -214 -103.5t-90 -247.5q0 -145 90.5 -248.5t217.5 -103.5q126 0 215.5 103t89.5 247z
M672 952q0 -24 -25 -24h-92q-18 0 -29 16l-92 172h-22v-98h20q29 0 29 -27v-37q0 -26 -29 -26h-162q-26 0 -26 26v37q0 27 26 27h25v299h-25q-26 0 -26 26v37q0 25 26 25h168q180 0 180 -139q0 -87 -75 -127l73 -121h31q25 0 25 -25v-41zM500 1264q0 51 -72 51h-16v-109h8
q80 0 80 58z" />
    <glyph glyph-name="copyright" unicode="&#xa9;" horiz-adv-x="1513" 
d="M1444 702q0 -301 -201 -515t-485 -214t-486 214t-202 513q0 307 202 519.5t494 212.5q278 0 478 -215.5t200 -514.5zM1276 700q0 251 -152.5 423.5t-371.5 172.5q-211 0 -362.5 -175t-151.5 -419q0 -245 152.5 -419t367.5 -174q213 0 365.5 173.5t152.5 417.5zM1016 344
q0 -25 -23 -37q-83 -45 -215 -45q-170 0 -252 82q-112 113 -112 354q0 215 93 331t265 116q122 0 209 -51q25 -15 25 -43v-158q0 -35 -37 -35h-97q-34 0 -34 35v82q-37 6 -60 6q-71 0 -100 -35q-55 -65 -55 -217q0 -168 47 -248q32 -55 131 -55q26 0 47 2v88q0 35 37 35h96
q35 0 35 -35v-172z" />
    <glyph glyph-name="trademark" unicode="&#x2122;" horiz-adv-x="1554" 
d="M1479 635q0 -31 -31 -31h-270q-31 0 -31 31v70q0 30 31 30h45l-6 320q0 32 2 69l-23 -90l-76 -231q-8 -27 -39 -27h-73q-29 0 -37 27l-66 221q-7 26 -22 100l2 -100l-6 -289h43q30 0 30 -30v-70q0 -31 -30 -31h-256q-33 0 -33 31v70q0 30 33 30h47l26 539h-51
q-31 0 -31 31v69q0 31 31 31h207q28 0 37 -27l96 -284q7 -22 23 -111q14 71 28 111l101 284q9 27 37 27h206q33 0 33 -31v-69q0 -31 -33 -31h-53l29 -539h49q31 0 31 -30v-70zM596 1161q0 -31 -31 -31h-65q-33 0 -33 31v94h-68v-520h72q35 0 35 -35v-61q0 -35 -35 -35h-326
q-36 0 -36 35v61q0 35 36 35h70v520h-68v-94q0 -31 -32 -31h-66q-31 0 -31 31v213q0 31 31 31h516q31 0 31 -31v-213z" />
    <glyph glyph-name="acute" unicode="&#xb4;" 
d="M899 1305q0 -17 -31 -29l-362 -143q-21 -9 -29 -9q-11 0 -26 31l-33 64q-10 19 -10 28q0 13 26 29l334 199q17 10 31 10q12 0 26 -29l64 -123q10 -20 10 -28z" />
    <glyph glyph-name="dieresis" unicode="&#xa8;" 
d="M834 1305q0 -59 -41.5 -100.5t-100.5 -41.5q-58 0 -99.5 41.5t-41.5 100.5t41.5 100t101.5 41q57 0 98.5 -41.5t41.5 -99.5zM471 1305q0 -59 -41.5 -100.5t-99.5 -41.5q-59 0 -100.5 41.5t-41.5 100.5t42 100t102 41q57 0 98 -41.5t41 -99.5z" />
    <glyph glyph-name="notequal" unicode="&#x2260;" horiz-adv-x="1124" 
d="M1106 279h-621l-184 -330l-100 57l151 273h-321v112h385l157 285h-542v112h606l186 336l101 -57l-156 -279h338v-112h-399l-160 -285h559v-112z" />
    <glyph glyph-name="AE" unicode="&#xc6;" horiz-adv-x="1554" 
d="M1460 43q0 -29 -6.5 -36t-34.5 -7h-803q-29 0 -36 7t-7 36v104q0 37 19 41q8 2 24 2h99v197h-344l-76 -197h121q24 0 29.5 -8t5.5 -26v-121q0 -24 -8.5 -29.5t-26.5 -5.5h-459q-24 0 -29.5 8t-5.5 27v127q0 24 10 30q7 5 25 5h70l503 1177q10 23 15.5 27t29.5 4h844
q25 0 30 -8t5 -27v-321q0 -25 -8 -30t-27 -5h-141q-24 0 -29.5 8t-5.5 27v137h-262v-342h346q36 0 41 -18q2 -8 2 -23v-135q0 -37 -19 -41q-8 -2 -24 -2h-346v-406h270v154q0 24 10 30q7 5 25 5h139q35 0 35 -35v-330zM717 1284q-63 -176 -115 -299l-172 -412h285v416
q0 242 2 295z" />
    <glyph glyph-name="Oslash" unicode="&#xd8;" horiz-adv-x="1176" 
d="M1094 700q0 -735 -510 -735q-161 0 -275 76l-84 -158q-15 -28 -26 -28t-31 10l-64 33q-28 14 -28 28q0 10 10 29l111 209q-117 198 -117 536q0 402 164 590q130 150 340 150q140 0 252 -62l63 121q15 29 29 29q9 0 28 -10l64 -33q29 -15 29 -27q0 -11 -11 -31l-80 -153
q136 -194 136 -574zM723 1165q-56 68 -139 68q-117 0 -180.5 -137t-63.5 -389q0 -151 25 -301zM834 702q0 159 -27 330l-367 -778q62 -82 152 -82q242 0 242 530z" />
    <glyph glyph-name="infinity" unicode="&#x221e;" horiz-adv-x="1460" 
d="M1411 545q0 -114 -81.5 -202.5t-194.5 -88.5q-171 0 -334 152l-70 67l-69 -67q-164 -152 -334 -152q-114 0 -195.5 88.5t-81.5 202.5q0 115 87.5 198.5t203.5 83.5q101 0 212 -73q59 -39 177 -146q119 107 177 146q111 73 212 73q117 0 204 -83.5t87 -198.5zM1307 530
q0 77 -54.5 134t-130.5 57q-78 0 -175 -63q-39 -26 -148 -117q99 -97 141 -127q87 -62 174 -62q75 0 132 51q61 53 61 127zM664 541q-108 89 -150 117q-97 63 -174 63q-76 0 -130 -57t-54 -134q0 -74 60 -127q57 -51 132 -51q87 0 175 62q41 30 141 127z" />
    <glyph glyph-name="plusminus" unicode="&#xb1;" 
d="M979 610q0 -24 -8 -29.5t-27 -5.5h-326v-229q0 -24 -8 -29.5t-26 -5.5h-140q-24 0 -30 10q-4 7 -4 25v229h-328q-19 0 -26 5q-11 6 -11 30v140q0 24 8 29t27 5h328v326q0 24 8 29.5t26 5.5h140q24 0 29 -8t5 -27v-326h326q19 0 26 -4q11 -6 11 -30v-140zM979 61
q0 -24 -8 -29t-27 -5h-862q-19 0 -26 4q-11 6 -11 30v138q0 24 8 29t27 5h862q19 0 26 -4q11 -6 11 -30v-138z" />
    <glyph glyph-name="lessequal" unicode="&#x2264;" horiz-adv-x="1124" 
d="M1077 240l-1018 471v127l1018 471v-127l-887 -408l887 -407v-127zM1077 0h-1018v113h1018v-113z" />
    <glyph glyph-name="greaterequal" unicode="&#x2265;" horiz-adv-x="1124" 
d="M1077 711l-1018 -471v127l887 407l-887 408v127l1018 -471v-127zM1077 0h-1018v113h1018v-113z" />
    <glyph glyph-name="yen" unicode="&#xa5;" horiz-adv-x="1100" 
d="M1073 1243q0 -24 -8 -29.5t-27 -5.5h-59l-182 -387h217q36 0 41 -18q2 -8 2 -25v-20q0 -37 -19 -41q-8 -2 -24 -2h-269l-49 -105h318q36 0 41 -18q2 -8 2 -25v-20q0 -37 -19 -41q-8 -2 -24 -2h-334v-307h127q34 0 38 -17q3 -9 3 -26v-111q0 -29 -6.5 -36t-34.5 -7h-494
q-29 0 -36 7t-7 36v111q0 36 19 41q8 2 24 2h127v307h-352q-36 0 -41 18q-2 8 -2 25v20q0 37 19 41q8 2 24 2h336l-53 105h-283q-36 0 -41 18q-2 8 -2 25v20q0 37 19 41q8 2 24 2h229l-188 387h-53q-25 0 -31 10q-4 7 -4 25v127q0 24 8 29.5t27 5.5h209q34 0 47 -31
l137 -327q44 -106 100 -297q42 154 105 311l127 315q11 29 47 29h190q25 0 30 -8t5 -27v-127z" />
    <glyph glyph-name="mu" unicode="&#xb5;" horiz-adv-x="1176" 
d="M1126 29q0 -29 -28 -29h-275q-26 0 -36 14.5t-25 75.5q-105 -125 -211 -125q-48 0 -109 29v-373q0 -35 -34 -35h-191q-35 0 -35 35v1356q0 35 35 35h191q34 0 34 -35v-600q0 -115 19 -150q29 -55 100 -55q79 0 164 76v729q0 35 35 35h190q35 0 35 -35v-615
q0 -100 21 -172h92q28 0 28 -28v-133z" />
    <glyph glyph-name="mu" unicode="&#x3bc;" horiz-adv-x="1176" 
d="M1126 29q0 -29 -28 -29h-275q-26 0 -36 14.5t-25 75.5q-105 -125 -211 -125q-48 0 -109 29v-373q0 -35 -34 -35h-191q-35 0 -35 35v1356q0 35 35 35h191q34 0 34 -35v-600q0 -115 19 -150q29 -55 100 -55q79 0 164 76v729q0 35 35 35h190q35 0 35 -35v-615
q0 -100 21 -172h92q28 0 28 -28v-133z" />
    <glyph glyph-name="partialdiff" unicode="&#x2202;" horiz-adv-x="1012" 
d="M946 805q0 -94 -22 -234q-31 -187 -84 -303q-49 -104 -85 -152q-49 -66 -128 -110q-89 -49 -187 -49q-118 0 -213 66q-156 107 -172 296q-1 20 -1 40q0 179 114 319q124 151 291 145q94 -3 164 -39q43 -22 143 -100q19 102 22 238q4 159 -65 325q-25 60 -76 109
q-69 67 -153 74q-37 3 -64 3q-58 0 -105 -18l-112 -49l-80 102q135 59 268 59q55 0 103 -11q218 -53 344 -275q98 -173 98 -436zM750 612q-69 76 -80 85q-62 48 -142 46q-117 -2 -196 -110q-103 -140 -103 -330q0 -194 95 -256q44 -29 90 -29q37 0 80 19q106 47 165 190
q61 147 91 385z" />
    <glyph glyph-name="summation" unicode="&#x2211;" horiz-adv-x="1460" 
d="M1423 238q-41 -168 -53 -230q-16 -80 -35 -229q-146 22 -157 22h-1031q-20 0 -59 -3t-59 -3l714 815l-710 930q243 -14 213 -14h1018l12 -326h-41q-41 133 -74 167q-65 67 -239 67h-539l559 -734l-602 -694h760q117 0 171 48q50 43 105 184h47z" />
    <glyph glyph-name="product" unicode="&#x220f;" horiz-adv-x="1686" 
d="M1645 -207h-627v47q100 0 143 29q53 37 53 137v1419h-733v-1419q0 -100 54 -137q43 -29 145 -29v-47h-629v47q103 0 146 29q53 37 53 137v1282q0 203 -195 203v47h1583v-47q-192 0 -192 -203v-1282q0 -100 54 -137q43 -29 145 -29v-47z" />
    <glyph glyph-name="pi" unicode="&#x3c0;" horiz-adv-x="1124" 
d="M1085 309q-2 -125 -54 -216q-40 -69 -93 -99q-46 -27 -97 -27q-44 0 -75 23q-66 47 -100 151q-39 117 -15 351l35 329h-231q-41 -471 -95 -719q-25 -117 -112 -139q-11 -2 -21 -2q-36 0 -67.5 24.5t-38.5 55.5q-4 16 -4 31q0 37 51 104l59 72q36 50 43 104l60 469h-97
q-90 0 -135 -65l-43 -64h-35l27 78q27 67 66 121q75 106 192 106h764v-176h-258q-25 -239 -25 -481q0 -102 52 -150q37 -34 81 -34q36 0 69 25.5t45 67.5q5 30 9 60h43z" />
    <glyph glyph-name="integral" unicode="&#x222b;" horiz-adv-x="561" 
d="M578 1710q-32 -38 -87 -38q-36 0 -59 24.5t-44 24.5q-35 0 -38 -46q20 -198 39 -676l-2 -442q-2 -362 -70 -600q-22 -79 -59 -125q-12 -15 -49 -32q-43 -19 -82 -19q-28 0 -49 10q-47 23 -68 80q-6 17 -6 33q0 51 55 80q19 9 36 9q34 0 81 -50q15 -16 28 -16q28 0 43 74
q14 64 11 151q-12 411 -12 643v295q0 242 4 319q10 184 49 315q27 93 92 134q29 18 66 18q51 0 95 -29.5t44 -86.5q0 -28 -18 -50z" />
    <glyph glyph-name="ordfeminine" unicode="&#xaa;" horiz-adv-x="645" 
d="M643 573q0 -26 -29 -26h-163q-33 0 -45 45q-82 -62 -164 -62q-94 0 -150.5 52.5t-56.5 138.5q0 112 79 162t263 55v29q0 77 -82 77q-62 0 -141 -28q-13 -6 -25 -6q-14 0 -20 18l-25 66q-6 16 -6 24q0 23 76 43.5t163 20.5q236 0 236 -201v-211q0 -59 10 -92h51
q29 0 29 -27v-78zM377 700v131q-164 0 -164 -96q0 -78 74 -78q47 0 90 43z" />
    <glyph glyph-name="ordmasculine" unicode="&#xba;" horiz-adv-x="682" 
d="M637 856q0 -152 -79 -240t-216 -88q-140 0 -217.5 86.5t-77.5 241.5q0 152 80 239t221 87q134 0 211.5 -87.5t77.5 -238.5zM440 854q0 102 -22.5 144t-77.5 42q-96 0 -96 -184q0 -186 98 -186t98 184z" />
    <glyph glyph-name="Omega" unicode="&#x3a9;" horiz-adv-x="1573" 
d="M1507 0h-604l33 311q90 40 115 59q75 56 127 175q49 114 49 279q0 271 -142 413q-106 106 -297 106q-190 0 -296 -106q-142 -142 -142 -413q0 -165 49 -279q52 -119 127 -175q25 -19 115 -59l33 -311h-604v332h30q19 -76 45 -100.5t91 -24.5h323l-4 57
q-239 71 -341.5 222.5t-102.5 329.5q0 150 69 276q74 133 234 227q153 90 374 90q222 0 375 -90q77 -45 107 -70q73 -61 127 -157q69 -126 69 -276q0 -178 -103 -329.5t-341 -222.5l-4 -57h323q65 0 91 24.5t45 100.5h30v-332z" />
    <glyph glyph-name="Omega" unicode="&#x2126;" horiz-adv-x="1573" 
d="M1507 0h-604l33 311q90 40 115 59q75 56 127 175q49 114 49 279q0 271 -142 413q-106 106 -297 106q-190 0 -296 -106q-142 -142 -142 -413q0 -165 49 -279q52 -119 127 -175q25 -19 115 -59l33 -311h-604v332h30q19 -76 45 -100.5t91 -24.5h323l-4 57
q-239 71 -341.5 222.5t-102.5 329.5q0 150 69 276q74 133 234 227q153 90 374 90q222 0 375 -90q77 -45 107 -70q73 -61 127 -157q69 -126 69 -276q0 -178 -103 -329.5t-341 -222.5l-4 -57h323q65 0 91 24.5t45 100.5h30v-332z" />
    <glyph glyph-name="ae" unicode="&#xe6;" horiz-adv-x="1479" 
d="M1415 496q0 -60 -39 -60h-536q9 -258 207 -258q96 0 235 64q13 6 25 6t20 -19l53 -123q4 -9 4 -22q0 -37 -121.5 -78t-232.5 -41q-210 0 -330 135q-140 -129 -327 -129q-142 0 -222.5 81t-80.5 222q0 183 122 265t402 88v86q0 133 -125 133q-103 0 -238 -53
q-12 -7 -22 -7q-17 0 -25 23l-41 121q-4 12 -4 20q0 24 62 47q130 50 266 50q198 0 270 -136q107 136 287 136q248 0 342 -232q49 -121 49 -319zM1151 627q-6 233 -143 233q-145 0 -168 -233h311zM594 229v230q-144 -3 -193 -25q-90 -40 -90 -145q0 -59 35.5 -97t89.5 -38
q88 0 158 75z" />
    <glyph glyph-name="oslash" unicode="&#xf8;" 
d="M958 508q0 -251 -119 -397t-323 -146q-118 0 -211 45l-55 -98q-13 -23 -23 -23q-5 0 -24 9l-53 28q-23 12 -23 25q0 6 10 24l64 115q-133 154 -133 418q0 250 120 394.5t328 144.5q116 0 203 -46l51 91q14 24 23 24q5 0 24 -10l53 -29q23 -12 23 -22t-8 -25l-62 -108
q135 -156 135 -414zM610 811q-43 35 -100 35q-103 0 -149 -78.5t-46 -255.5q0 -107 21 -227zM711 496q0 118 -25 225l-270 -520q49 -35 96 -35q104 0 151.5 78t47.5 252z" />
    <glyph glyph-name="questiondown" unicode="&#xbf;" horiz-adv-x="911" 
d="M698 793q0 -71 -51 -121.5t-123 -50.5t-122 50.5t-50 123.5q0 72 51.5 122t124.5 50q70 0 120 -51.5t50 -122.5zM864 -418q0 -37 -132 -79t-249 -42q-179 0 -289 105.5t-110 277.5q0 143 78 230.5t256 144.5v139q0 37 18 41q7 2 23 2h145q36 0 41 -18q2 -8 2 -25v-256
q0 -35 -43 -47q-133 -37 -189.5 -85.5t-56.5 -127.5q0 -141 170 -141q88 0 224 53q26 10 34 10q13 0 21 -20l53 -139q4 -11 4 -23z" />
    <glyph glyph-name="exclamdown" unicode="&#xa1;" horiz-adv-x="721" 
d="M535 770q0 -71 -51 -121.5t-122 -50.5q-72 0 -123 51t-51 123t51.5 122t125.5 50q69 0 119.5 -51.5t50.5 -122.5zM516 -510q0 -29 -41 -29h-219q-46 0 -43 27l2 16l45 826q2 27 9.5 34t33.5 7h123q28 0 34.5 -7t8.5 -34z" />
    <glyph glyph-name="logicalnot" unicode="&#xac;" 
d="M979 410q0 -25 -8 -30t-27 -5h-147q-25 0 -30 8t-5 27v329h-682q-24 0 -30 10q-5 7 -5 25v137q0 25 8 30t27 5h864q24 0 29.5 -8t5.5 -27v-501z" />
    <glyph glyph-name="radical" unicode="&#x221a;" horiz-adv-x="1124" 
d="M1055 1868l-307 -1946l-498 1028l-197 -96l-33 68l299 147l404 -825l260 1634z" />
    <glyph glyph-name="florin" unicode="&#x192;" horiz-adv-x="1100" 
d="M1102 1415l-2 -16l-51 -148q-4 -10 -15 -10q-6 1 -12 4q-73 29 -111 29q-61 0 -89 -35.5t-50 -138.5l-18 -88h213q41 0 41 -23q0 -13 -4 -26l-31 -101q-10 -33 -47 -33h-211l-164 -843q-36 -187 -102 -271q-107 -135 -299 -135q-66 0 -150 17q-25 4 -25 20q0 6 5 14
l43 152q5 14 14 14q13 0 40.5 -5t43.5 -5q84 0 122.5 47.5t65.5 183.5l160 811h-125q-43 0 -41 23l2 25l19 98q6 37 45 37h143l27 131q33 164 82 223q87 107 276 107q73 0 139 -19t66 -39z" />
    <glyph glyph-name="approxequal" unicode="&#x2248;" horiz-adv-x="1124" 
d="M1079 758q-95 -162 -288 -162q-41 0 -76 10l-307 88q-50 15 -91 15q-69 0 -117 -35q-30 -22 -83 -88l-88 55q124 162 295 162q52 0 104 -15l309 -86q22 -6 51 -6q142 0 216 111zM1079 449q-95 -162 -288 -162q-41 0 -76 10l-307 88q-50 14 -91 14q-69 0 -117 -34
q-30 -22 -83 -89l-88 56q124 162 295 162q52 0 104 -15l309 -86q22 -6 51 -6q142 0 216 111z" />
    <glyph glyph-name="approxequal" unicode="&#x22f2;" horiz-adv-x="1124" 
d="M1079 758q-95 -162 -288 -162q-41 0 -76 10l-307 88q-50 15 -91 15q-69 0 -117 -35q-30 -22 -83 -88l-88 55q124 162 295 162q52 0 104 -15l309 -86q22 -6 51 -6q142 0 216 111zM1079 449q-95 -162 -288 -162q-41 0 -76 10l-307 88q-50 14 -91 14q-69 0 -117 -34
q-30 -22 -83 -89l-88 56q124 162 295 162q52 0 104 -15l309 -86q22 -6 51 -6q142 0 216 111z" />
    <glyph glyph-name="Delta" unicode="&#x394;" horiz-adv-x="1253" 
d="M1245 0h-1233l656 1409zM991 100l-397 959l-447 -959h844z" />
    <glyph glyph-name="Delta" unicode="&#x2206;" horiz-adv-x="1253" 
d="M1245 0h-1233l656 1409zM991 100l-397 959l-447 -959h844z" />
    <glyph glyph-name="guillemotleft" unicode="&#xab;" horiz-adv-x="1214" 
d="M1124 913q0 -8 -14 -30l-246 -383l246 -373q12 -19 12 -29q0 -14 -24 -30l-103 -64q-19 -12 -28 -12q-11 0 -29 24l-348 467q-15 20 -15 29q0 10 15 29l348 454q17 23 27 23q11 0 30 -12l103 -64q26 -16 26 -29zM639 98q0 -14 -27 -30l-100 -64q-19 -12 -29 -12t-28 24
l-349 467q-14 20 -14 29q0 10 14 29l349 454q18 25 26 25t31 -14l102 -64q25 -16 25 -29q0 -12 -12 -30l-254 -383l252 -373q14 -21 14 -29z" />
    <glyph glyph-name="guillemotright" unicode="&#xbb;" horiz-adv-x="1214" 
d="M1122 512q0 -12 -12 -29l-348 -467q-18 -24 -29 -24t-31 12l-100 64q-27 16 -27 30q0 7 15 29l246 373l-248 383q-13 19 -13 30q0 12 27 29l100 64q20 12 31 12q12 0 29 -23l348 -454q12 -16 12 -29zM639 512q0 -12 -12 -29l-348 -467q-19 -24 -29 -24q-11 0 -31 12
l-100 64q-27 16 -27 28q0 10 14 31l252 373l-252 383q-14 21 -14 30q0 12 27 29l100 64q23 14 31 14q10 0 29 -25l348 -454q12 -16 12 -29z" />
    <glyph glyph-name="ellipsis" unicode="&#x2026;" horiz-adv-x="1821" 
d="M1712 162q0 -82 -56.5 -138.5t-137.5 -56.5q-82 0 -138.5 57t-56.5 140q0 80 58 136t141 56q78 0 134 -57t56 -137zM1104 162q0 -82 -56.5 -138.5t-138.5 -56.5q-81 0 -137.5 57t-56.5 140q0 80 58 136t140 56q79 0 135 -57t56 -137zM498 162q0 -82 -56.5 -138.5
t-138.5 -56.5q-81 0 -137.5 57t-56.5 140q0 80 57.5 136t140.5 56q79 0 135 -57t56 -137z" />
    <glyph glyph-name="Agrave" unicode="&#xc0;" horiz-adv-x="1176" 
d="M774 1640q0 -5 -8 -26l-27 -68q-12 -30 -30 -30q-3 0 -25 6l-385 108q-35 10 -35 27q0 9 8 29l56 129q13 30 26 30q14 0 31 -8l358 -168q31 -14 31 -29zM1202 35q0 -24 -8 -29.5t-27 -5.5h-442q-24 0 -29.5 8t-5.5 27v127q0 24 10 30q7 5 25 5h76l-45 176h-359l-45 -176
h78q24 0 29.5 -8.5t5.5 -26.5v-127q0 -24 -8 -29.5t-27 -5.5h-422q-24 0 -29.5 8t-5.5 27v127q0 24 10 30q7 5 25 5h70l358 1173q8 25 14.5 30t30.5 5h213q25 0 31.5 -5t13.5 -30l351 -1173h77q25 0 30 -8.5t5 -26.5v-127zM705 561l-87 352q-13 56 -26 140l-23 145
q-16 -105 -51 -285l-90 -352h277z" />
    <glyph glyph-name="Atilde" unicode="&#xc3;" horiz-adv-x="1176" 
d="M913 1743q0 -22 -43 -84q-76 -111 -178 -111q-58 0 -141 54q-35 22 -62 22q-42 0 -77 -59q-10 -17 -19 -17q-6 0 -18 6l-99 50q-16 5 -16 16q0 22 47 92q68 100 170 100q65 0 150 -49q42 -24 67 -24q35 0 74 63q6 10 16 10l13 -2l100 -49q16 -8 16 -18zM1202 35
q0 -24 -8 -29.5t-27 -5.5h-442q-24 0 -29.5 8t-5.5 27v127q0 24 10 30q7 5 25 5h76l-45 176h-359l-45 -176h78q24 0 29.5 -8.5t5.5 -26.5v-127q0 -24 -8 -29.5t-27 -5.5h-422q-24 0 -29.5 8t-5.5 27v127q0 24 10 30q7 5 25 5h70l358 1173q8 25 14.5 30t30.5 5h213
q25 0 31.5 -5t13.5 -30l351 -1173h77q25 0 30 -8.5t5 -26.5v-127zM705 561l-87 352q-13 56 -26 140l-23 145q-16 -105 -51 -285l-90 -352h277z" />
    <glyph glyph-name="Otilde" unicode="&#xd5;" horiz-adv-x="1176" 
d="M915 1743q0 -22 -43 -84q-76 -111 -178 -111q-58 0 -141 54q-35 22 -61 22q-43 0 -78 -59q-10 -17 -19 -17q-6 0 -18 6l-98 50q-17 5 -17 16q0 22 47 92q68 100 170 100q65 0 150 -49q42 -24 67 -24q36 0 74 63q6 10 16 10l13 -2l100 -49q16 -8 16 -18zM1096 719
q0 -754 -514 -754q-500 0 -500 744q0 429 180 604q131 127 336 127q219 0 346 -146q152 -174 152 -575zM807 698q0 525 -221 525q-215 0 -215 -523q0 -518 217 -518q219 0 219 516z" />
    <glyph glyph-name="OE" unicode="&#x152;" horiz-adv-x="1632" 
d="M1538 43q0 -36 -19 -41q-8 -2 -24 -2h-680q-127 -35 -227 -35q-506 0 -506 744q0 731 508 731q103 0 213 -35h692q24 0 29.5 -8t5.5 -27v-321q0 -25 -8 -30t-27 -5h-141q-33 0 -33 35v137h-264v-342h346q36 0 41 -18q2 -8 2 -23v-135q0 -37 -19 -41q-8 -2 -24 -2h-346
v-406h270v154q0 24 8 29.5t27 5.5h141q25 0 30 -8.5t5 -26.5v-330zM791 229v947q-102 57 -183 57q-134 0 -182 -117q-55 -135 -55 -411q0 -272 59 -414q48 -115 191 -115q82 0 170 53z" />
    <glyph glyph-name="oe" unicode="&#x153;" horiz-adv-x="1554" 
d="M1491 500q0 -46 -14 -57q-8 -7 -25 -7h-551q9 -258 225 -258q106 0 234 66q15 6 24 6q13 0 17 -14l55 -130q6 -14 6 -22q0 -37 -121 -78t-231 -41q-230 0 -311 135q-103 -135 -281 -135q-209 0 -329.5 147.5t-120.5 403.5q0 243 123.5 387t332.5 144q169 0 281 -123
q123 123 291 123q395 0 395 -547zM1221 627q-5 130 -38 181.5t-110 51.5q-90 0 -130 -77q-26 -50 -38 -156h316zM670 506q0 181 -37 257.5t-125 76.5q-89 0 -127.5 -77.5t-38.5 -256.5q0 -334 164 -334t164 334z" />
    <glyph glyph-name="endash" unicode="&#x2013;" 
d="M950 457q0 -34 -17 -39q-8 -2 -26 -2h-792q-37 0 -41 18q-2 7 -2 23v139q0 28 7 34.5t36 6.5h792q37 0 41 -18q2 -8 2 -23v-139z" />
    <glyph glyph-name="emdash" unicode="&#x2014;" horiz-adv-x="1706" 
d="M1638 463q0 -34 -17 -39q-8 -2 -26 -2h-1484q-37 0 -41 18q-2 7 -2 23v127q0 29 6.5 36t36.5 7h1484q37 0 41 -19q2 -8 2 -24v-127z" />
    <glyph glyph-name="quotedblleft" unicode="&#x201c;" 
d="M924 1423q0 -6 -6 -26l-127 -418q-11 -35 -46 -35h-198q-41 0 -41 23q0 11 10 30l244 457q15 29 28 29q10 0 27 -6l76 -27q33 -12 33 -27zM506 1423q0 -13 -4 -26l-129 -418q-12 -35 -45 -35h-199q-41 0 -41 23q0 11 10 30l244 457q15 29 29 29q9 0 26 -6l76 -27
q33 -12 33 -27z" />
    <glyph glyph-name="quotedblright" unicode="&#x201d;" 
d="M936 1446q0 -10 -10 -29l-244 -459q-15 -28 -29 -28q-9 0 -26 6l-76 27q-33 11 -33 26q0 7 6 27l127 418q11 34 45 34h199q41 0 41 -22zM518 1446q0 -10 -10 -29l-244 -459q-15 -28 -26 -28q-9 0 -27 6l-78 27q-33 11 -33 26q0 7 6 27l127 418q11 34 48 34h196
q41 0 41 -22z" />
    <glyph glyph-name="quoteleft" unicode="&#x2018;" horiz-adv-x="606" 
d="M506 1423q0 -13 -4 -26l-129 -418q-12 -35 -45 -35h-199q-41 0 -41 23q0 11 10 30l244 457q15 29 29 29q9 0 26 -6l76 -27q33 -12 33 -27z" />
    <glyph glyph-name="quoteright" unicode="&#x2019;" horiz-adv-x="606" 
d="M518 1446q0 -10 -10 -29l-244 -459q-15 -28 -26 -28q-9 0 -27 6l-78 27q-33 11 -33 26q0 7 6 27l127 418q11 34 48 34h196q41 0 41 -22z" />
    <glyph glyph-name="divide" unicode="&#xf7;" 
d="M657 1032q0 -60 -41.5 -101.5t-101.5 -41.5t-103.5 42t-43.5 101q0 61 42.5 103.5t102.5 42.5q59 0 102 -43t43 -103zM979 610q0 -24 -8 -29.5t-27 -5.5h-862q-19 0 -26 5q-11 6 -11 30v140q0 24 8 29t27 5h862q19 0 26 -4q11 -6 11 -30v-140zM657 330q0 -60 -42 -103
t-101 -43q-60 0 -103.5 42.5t-43.5 101.5q0 61 42 103t103 42q60 0 101.5 -42.5t41.5 -100.5h2z" />
    <glyph glyph-name="lozenge" unicode="&#x25ca;" horiz-adv-x="1012" 
d="M954 772l-397 -772h-123l-397 772l397 754h123zM831 772l-335 643l-336 -643l336 -661z" />
    <glyph glyph-name="ydieresis" unicode="&#xff;" horiz-adv-x="948" 
d="M811 1305q0 -59 -41.5 -100.5t-99.5 -41.5q-59 0 -100.5 41.5t-41.5 100.5t42 100t102 41q57 0 98 -41.5t41 -99.5zM449 1305q0 -59 -41.5 -100.5t-100.5 -41.5q-58 0 -99.5 41.5t-41.5 100.5t41.5 100t101.5 41q57 0 98.5 -41.5t41.5 -99.5zM997 850q0 -29 -28 -29h-72
l-166 -608l-90 -336q-51 -195 -139 -266q-81 -66 -207 -66q-88 0 -184.5 33t-96.5 64q0 10 9 22l63 131q7 15 18 15q5 0 17 -7q90 -45 155 -45q66 0 99 33t61 123l27 86h-86q-30 0 -39 27l-275 794h-65q-29 0 -29 29v133q0 29 29 29h258q29 0 37 -29l133 -489
q33 -120 78 -355q5 25 14 74q8 53 29 162q7 34 26 119l111 487q7 31 39 31h246q28 0 28 -29v-133z" />
    <glyph glyph-name="Ydieresis" unicode="&#x178;" 
d="M858 1681q0 -61 -42.5 -104t-102.5 -43q-62 0 -105 43t-43 104t43.5 103.5t106.5 42.5q58 0 100.5 -43.5t42.5 -102.5zM483 1679q0 -60 -42.5 -102.5t-102.5 -42.5q-61 0 -103 43t-42 104q0 60 42.5 102t104.5 42q58 0 100.5 -43t42.5 -103zM1069 1243q0 -24 -8 -29.5
t-27 -5.5h-61l-316 -633v-378h140q36 0 41 -19q2 -8 2 -24v-111q0 -36 -19 -41q-8 -2 -24 -2h-553q-29 0 -36 7t-7 36v111q0 36 18 41q8 2 25 2h139v381l-326 630h-53q-24 0 -30 10q-5 7 -5 25v127q0 24 10 30q7 5 25 5h234q24 0 30 -4t17 -27l157 -327q27 -56 86 -234
q42 143 93 248l151 315q10 22 16 25.5t31 3.5h215q25 0 30 -8t5 -27v-127z" />
    <glyph glyph-name="fraction" unicode="&#x2044;" horiz-adv-x="492" 
d="M608 1362q0 -12 -6 -27l-575 -1380q-16 -37 -50 -37h-104q-41 0 -41 23q0 9 8 28l578 1387q13 30 45 30h106q39 0 39 -24z" />
    <glyph glyph-name="currency" unicode="&#xa4;" horiz-adv-x="1278" 
d="M1206 272q0 -12 -18 -30l-88 -88q-21 -21 -31 -21t-31 21l-90 90q-127 -74 -309 -74t-313 72l-88 -90q-18 -19 -31 -19q-10 0 -29 19l-90 90q-18 18 -18 30q0 11 18 29l86 86q-84 135 -84 326q0 182 82 309l-84 82q-18 18 -18 31q0 10 18 28l90 90q19 19 29 19
q12 0 31 -19l84 -84q130 82 319 82t317 -80l80 82q18 19 31 19t31 -19l88 -90q18 -19 18 -30q0 -10 -18 -29l-80 -82q78 -128 78 -313q0 -187 -86 -318l88 -90q18 -16 18 -29zM909 709q0 181 -63.5 258t-212.5 77q-142 0 -204 -79t-62 -258q0 -174 63.5 -252t206.5 -78
q144 0 208 78t64 254z" />
    <glyph glyph-name="guilsinglleft" unicode="&#x2039;" horiz-adv-x="721" 
d="M633 98q0 -13 -25 -28l-102 -64q-23 -14 -31 -14t-26 24l-349 455q-14 19 -14 29q0 9 14 28l349 467q18 25 28 25q6 0 29 -14l100 -64q27 -17 27 -29q0 -7 -15 -28l-251 -373l254 -385q12 -19 12 -29z" />
    <glyph glyph-name="guilsinglright" unicode="&#x203a;" horiz-adv-x="721" 
d="M633 512q0 -12 -12 -29l-349 -467q-18 -24 -28 -24q-12 0 -31 12l-100 64q-27 16 -27 28q0 10 14 31l252 373l-252 383q-14 21 -14 30q0 12 27 29l100 64q23 14 31 14q10 0 28 -25l349 -454q12 -16 12 -29z" />
    <glyph glyph-name="fi" unicode="&#xf001;" horiz-adv-x="1290" 
d="M1208 1317q0 -68 -48 -116t-116 -48q-67 0 -115 48.5t-48 117.5q0 67 48 114.5t118 47.5q66 0 113.5 -48.5t47.5 -115.5zM1286 29q0 -29 -29 -29h-499q-29 0 -29 29v133q0 28 29 28h106v631h-368v-631h106q27 0 27 -28v-133q0 -12 -2 -17q-4 -12 -25 -12h-508
q-28 0 -28 29v133q0 28 28 28h142v631h-156q-26 0 -30.5 6.5t-4.5 42.5v113q0 29 35 29h156v86q0 207 89 296t236 89q86 0 161 -23t75 -49q0 -11 -2 -18l-39 -146q-5 -18 -19 -18q-6 0 -20 6q-65 29 -111 29q-64 0 -90 -37q-20 -30 -20 -129v-86h594q24 0 29 -8.5t5 -26.5
v-787h133q29 0 29 -28v-133z" />
    <glyph glyph-name="fl" unicode="&#xf002;" horiz-adv-x="1327" 
d="M1327 23q0 -20 -66.5 -39t-138.5 -19q-169 0 -225 121q-29 62 -29 276v859q-135 59 -241 59q-79 0 -111 -43q-20 -28 -20 -139v-86h233q35 0 35 -21q0 -2 -4 -20l-29 -119q-7 -31 -39 -31h-196v-631h153q29 0 29 -28v-133q0 -29 -29 -29h-555q-28 0 -28 29v133
q0 28 28 28h142v631h-156q-26 0 -30.5 6.5t-4.5 42.5v113q0 29 35 29h156v86q0 205 88 295t249 90q151 0 310 -58l217 43q28 6 28 -28v-1059q0 -111 5 -131q9 -45 51 -45q31 0 67 14q6 2 15 2q13 0 16 -14l43 -176q2 -4 2 -8z" />
    <glyph glyph-name="daggerdbl" unicode="&#x2021;" horiz-adv-x="1100" 
d="M946 49q0 -36 -18 -41q-8 -2 -25 -2h-239v-397q0 -36 -19 -41q-8 -2 -24 -2h-142q-27 0 -34 7t-7 36v397h-239q-30 0 -36.5 7t-6.5 36v111q0 36 18 41q8 2 25 2h239v577h-239q-28 0 -35.5 7t-7.5 36v111q0 36 18 41q8 2 25 2h239v385q0 36 18 41q8 2 23 2h142
q36 0 41 -19q2 -8 2 -24v-385h239q36 0 41 -19q2 -8 2 -24v-111q0 -36 -18 -41q-8 -2 -25 -2h-239v-577h239q36 0 41 -19q2 -8 2 -24v-111z" />
    <glyph glyph-name="periodcentered" unicode="&#x2219;" 
d="M657 680q0 -60 -41.5 -101.5t-101.5 -41.5t-103.5 41.5t-43.5 101.5q0 61 42.5 103t102.5 42q59 0 102 -43t43 -102z" />
    <glyph glyph-name="quotesinglbase" unicode="&#x201a;" horiz-adv-x="606" 
d="M520 233q0 -5 -12 -28l-244 -459q-15 -29 -26 -29q-9 0 -27 7l-78 26q-33 11 -33 27q0 6 6 26l127 418q11 35 48 35h196q43 0 43 -23z" />
    <glyph glyph-name="quotedblbase" unicode="&#x201e;" 
d="M936 233q0 -13 -10 -28l-244 -459q-15 -29 -29 -29q-9 0 -26 7l-76 26q-33 12 -33 27q0 6 6 26l127 418q11 35 45 35h199q41 0 41 -23zM518 233q0 -9 -10 -28l-244 -459q-15 -29 -26 -29q-9 0 -27 7l-78 26q-33 11 -33 27q0 6 6 26l127 418q11 35 48 35h196q41 0 41 -23z
" />
    <glyph glyph-name="perthousand" unicode="&#x2030;" horiz-adv-x="2427" 
d="M2339 340q0 -174 -85.5 -272.5t-236.5 -98.5q-141 0 -223 94t-82 259q0 172 86 273t234 101q139 0 223 -97.5t84 -258.5zM1606 340q0 -174 -85.5 -272.5t-236.5 -98.5q-141 0 -223 95t-82 258q0 172 86.5 273t234.5 101q139 0 222.5 -97.5t83.5 -258.5zM1231 1360
q0 -10 -6 -25l-578 -1380q-15 -37 -47 -37h-104q-43 0 -43 23q0 9 8 28l577 1387q13 30 47 30h105q41 0 41 -26zM717 999q0 -173 -85.5 -271.5t-236.5 -98.5q-141 0 -223 95t-82 259q0 172 87 273.5t235 101.5q138 0 221.5 -98t83.5 -261zM2144 326q0 219 -121 219
q-112 0 -112 -205q0 -219 117 -219q116 0 116 205zM1411 326q0 219 -121 219q-112 0 -112 -209q0 -215 116 -215q117 0 117 205zM522 987q0 219 -121 219q-112 0 -112 -207q0 -219 117 -219q116 0 116 207z" />
    <glyph glyph-name="Acircumflex" unicode="&#xc2;" horiz-adv-x="1176" 
d="M907 1634q0 -9 -12 -28l-41 -66q-15 -24 -27 -24q-10 0 -32 10l-193 88l-194 -88q-23 -10 -31 -10q-13 0 -29 26l-39 64q-12 20 -12 28q0 14 22 29l254 172q16 10 31 10q14 0 29 -10l256 -176q18 -13 18 -25zM1202 35q0 -24 -8 -29.5t-27 -5.5h-442q-24 0 -29.5 8
t-5.5 27v127q0 24 10 30q7 5 25 5h76l-45 176h-359l-45 -176h78q24 0 29.5 -8.5t5.5 -26.5v-127q0 -24 -8 -29.5t-27 -5.5h-422q-24 0 -29.5 8t-5.5 27v127q0 24 10 30q7 5 25 5h70l358 1173q8 25 14.5 30t30.5 5h213q25 0 31.5 -5t13.5 -30l351 -1173h77q25 0 30 -8.5
t5 -26.5v-127zM705 561l-87 352q-13 56 -26 140l-23 145q-16 -105 -51 -285l-90 -352h277z" />
    <glyph glyph-name="Ecircumflex" unicode="&#xca;" horiz-adv-x="1063" 
d="M838 1634q0 -9 -13 -28l-41 -66q-15 -24 -26 -24t-33 10l-193 88l-194 -88q-23 -10 -31 -10q-12 0 -28 26l-39 64q-13 20 -13 28q0 14 23 29l254 172q15 10 31 10q13 0 28 -10l256 -176q19 -13 19 -25zM967 43q0 -29 -7 -36t-34 -7h-820q-29 0 -36 7t-7 36v111
q0 36 19 41q8 2 24 2h105v1011h-105q-36 0 -41 19q-2 8 -2 24v111q0 29 8 36t35 7h820q24 0 29.5 -8t5.5 -27v-321q0 -25 -8.5 -30t-26.5 -5h-142q-24 0 -29 8t-5 27v137h-265v-342h349q29 0 36 -6.5t7 -34.5v-135q0 -37 -19 -41q-8 -2 -24 -2h-349v-406h273v154
q0 24 8 29.5t27 5.5h141q33 0 33 -35v-330z" />
    <glyph glyph-name="Aacute" unicode="&#xc1;" horiz-adv-x="1176" 
d="M952 1657q0 -17 -34 -27l-386 -108q-21 -6 -24 -6q-19 0 -31 30l-26 68q-9 21 -9 28q0 13 31 27l358 168q18 8 31 8q14 0 27 -30l55 -129q8 -20 8 -29zM1202 35q0 -24 -8 -29.5t-27 -5.5h-442q-24 0 -29.5 8t-5.5 27v127q0 24 10 30q7 5 25 5h76l-45 176h-359l-45 -176
h78q24 0 29.5 -8.5t5.5 -26.5v-127q0 -24 -8 -29.5t-27 -5.5h-422q-24 0 -29.5 8t-5.5 27v127q0 24 10 30q7 5 25 5h70l358 1173q8 25 14.5 30t30.5 5h213q25 0 31.5 -5t13.5 -30l351 -1173h77q25 0 30 -8.5t5 -26.5v-127zM705 561l-87 352q-13 56 -26 140l-23 145
q-16 -105 -51 -285l-90 -352h277z" />
    <glyph glyph-name="Edieresis" unicode="&#xcb;" horiz-adv-x="1063" 
d="M864 1681q0 -61 -42.5 -104t-102.5 -43q-62 0 -105 43t-43 104t43.5 103.5t106.5 42.5q58 0 100.5 -43.5t42.5 -102.5zM489 1679q0 -60 -42.5 -102.5t-102.5 -42.5q-61 0 -103 43t-42 104q0 60 43 102t104 42q59 0 101 -43t42 -103zM967 43q0 -29 -7 -36t-34 -7h-820
q-29 0 -36 7t-7 36v111q0 36 19 41q8 2 24 2h105v1011h-105q-36 0 -41 19q-2 8 -2 24v111q0 29 8 36t35 7h820q24 0 29.5 -8t5.5 -27v-321q0 -25 -8.5 -30t-26.5 -5h-142q-24 0 -29 8t-5 27v137h-265v-342h349q29 0 36 -6.5t7 -34.5v-135q0 -37 -19 -41q-8 -2 -24 -2h-349
v-406h273v154q0 24 8 29.5t27 5.5h141q33 0 33 -35v-330z" />
    <glyph glyph-name="Egrave" unicode="&#xc8;" horiz-adv-x="1063" 
d="M684 1640q0 -5 -8 -26l-27 -68q-12 -30 -31 -30q-2 0 -24 6l-385 108q-35 10 -35 27q0 9 8 29l56 129q13 30 26 30t31 -8l358 -168q31 -14 31 -29zM967 43q0 -29 -7 -36t-34 -7h-820q-29 0 -36 7t-7 36v111q0 36 19 41q8 2 24 2h105v1011h-105q-36 0 -41 19q-2 8 -2 24
v111q0 29 8 36t35 7h820q24 0 29.5 -8t5.5 -27v-321q0 -25 -8.5 -30t-26.5 -5h-142q-24 0 -29 8t-5 27v137h-265v-342h349q29 0 36 -6.5t7 -34.5v-135q0 -37 -19 -41q-8 -2 -24 -2h-349v-406h273v154q0 24 8 29.5t27 5.5h141q33 0 33 -35v-330z" />
    <glyph glyph-name="Iacute" unicode="&#xcd;" horiz-adv-x="721" 
d="M727 1657q0 -17 -35 -27l-385 -108q-22 -6 -24 -6q-19 0 -31 30l-27 68q-8 21 -8 28q0 13 31 27l358 168q18 8 31 8t27 -30l55 -129q8 -20 8 -29zM655 43q0 -36 -18 -41q-8 -2 -25 -2h-501q-28 0 -35.5 7t-7.5 36v111q0 36 18 41q8 2 25 2h112v1011h-112q-37 0 -41 19
q-2 8 -2 24v111q0 29 7.5 36t35.5 7h501q37 0 41 -19q2 -8 2 -24v-111q0 -36 -18 -41q-8 -2 -25 -2h-114v-1011h114q37 0 41 -19q2 -8 2 -24v-111z" />
    <glyph glyph-name="Icircumflex" unicode="&#xce;" horiz-adv-x="721" 
d="M668 1634q0 -9 -13 -28l-41 -66q-15 -24 -26 -24t-33 10l-193 88l-194 -88q-23 -10 -31 -10q-12 0 -28 26l-39 64q-13 20 -13 28q0 14 23 29l254 172q15 10 31 10q13 0 28 -10l256 -176q19 -13 19 -25zM655 43q0 -36 -18 -41q-8 -2 -25 -2h-501q-28 0 -35.5 7t-7.5 36
v111q0 36 18 41q8 2 25 2h112v1011h-112q-37 0 -41 19q-2 8 -2 24v111q0 29 7.5 36t35.5 7h501q37 0 41 -19q2 -8 2 -24v-111q0 -36 -18 -41q-8 -2 -25 -2h-114v-1011h114q37 0 41 -19q2 -8 2 -24v-111z" />
    <glyph glyph-name="Idieresis" unicode="&#xcf;" horiz-adv-x="721" 
d="M686 1681q0 -61 -42.5 -104t-102.5 -43q-62 0 -105 43t-43 104t43.5 103.5t106.5 42.5q58 0 100.5 -43.5t42.5 -102.5zM326 1679q0 -60 -43 -102.5t-103 -42.5q-61 0 -103 43t-42 104q0 60 43 102t104 42q59 0 101.5 -43t42.5 -103zM655 43q0 -36 -18 -41q-8 -2 -25 -2
h-501q-28 0 -35.5 7t-7.5 36v111q0 36 18 41q8 2 25 2h112v1011h-112q-37 0 -41 19q-2 8 -2 24v111q0 29 7.5 36t35.5 7h501q37 0 41 -19q2 -8 2 -24v-111q0 -36 -18 -41q-8 -2 -25 -2h-114v-1011h114q37 0 41 -19q2 -8 2 -24v-111z" />
    <glyph glyph-name="Igrave" unicode="&#xcc;" horiz-adv-x="721" 
d="M506 1640q0 -5 -8 -26l-27 -68q-12 -30 -31 -30q-2 0 -24 6l-385 108q-35 10 -35 27q0 9 8 29l55 129q14 30 27 30t31 -8l358 -168q31 -14 31 -29zM655 43q0 -36 -18 -41q-8 -2 -25 -2h-501q-28 0 -35.5 7t-7.5 36v111q0 36 18 41q8 2 25 2h112v1011h-112q-37 0 -41 19
q-2 8 -2 24v111q0 29 7.5 36t35.5 7h501q37 0 41 -19q2 -8 2 -24v-111q0 -36 -18 -41q-8 -2 -25 -2h-114v-1011h114q37 0 41 -19q2 -8 2 -24v-111z" />
    <glyph glyph-name="Oacute" unicode="&#xd3;" horiz-adv-x="1176" 
d="M954 1657q0 -17 -34 -27l-385 -108q-22 -6 -25 -6q-19 0 -31 30l-26 68q-9 21 -9 28q0 13 31 27l359 168q17 8 30 8q14 0 27 -30l55 -129q8 -20 8 -29zM1096 719q0 -754 -514 -754q-500 0 -500 744q0 429 180 604q131 127 336 127q219 0 346 -146q152 -174 152 -575z
M807 698q0 525 -221 525q-215 0 -215 -523q0 -518 217 -518q219 0 219 516z" />
    <glyph glyph-name="Ocircumflex" unicode="&#xd4;" horiz-adv-x="1176" 
d="M895 1634q0 -9 -12 -28l-41 -66q-16 -24 -27 -24q-10 0 -33 10l-192 88l-195 -88q-22 -10 -30 -10q-13 0 -29 26l-39 64q-12 20 -12 28q0 14 22 29l254 172q15 10 31 10q14 0 29 -10l256 -176q18 -13 18 -25zM1096 719q0 -754 -514 -754q-500 0 -500 744q0 429 180 604
q131 127 336 127q219 0 346 -146q152 -174 152 -575zM807 698q0 525 -221 525q-215 0 -215 -523q0 -518 217 -518q219 0 219 516z" />
    <glyph glyph-name="Ograve" unicode="&#xd2;" horiz-adv-x="1176" 
d="M733 1640q0 -5 -8 -26l-27 -68q-12 -30 -30 -30q-3 0 -25 6l-385 108q-35 10 -35 27q0 9 8 29l56 129q13 30 26 30q14 0 31 -8l358 -168q31 -14 31 -29zM1096 719q0 -754 -514 -754q-500 0 -500 744q0 429 180 604q131 127 336 127q219 0 346 -146q152 -174 152 -575z
M807 698q0 525 -221 525q-215 0 -215 -523q0 -518 217 -518q219 0 219 516z" />
    <glyph glyph-name="Uacute" unicode="&#xda;" horiz-adv-x="1366" 
d="M1077 1657q0 -17 -35 -27l-385 -108q-21 -6 -24 -6q-19 0 -31 30l-27 68q-8 21 -8 28q0 13 31 27l358 168q18 8 31 8q14 0 27 -30l55 -129q8 -20 8 -29zM1327 1251q0 -36 -18 -41q-7 -2 -23 -2h-106v-733q0 -139 -28 -221.5t-97 -151.5q-139 -137 -391 -137
q-276 0 -392 162q-79 111 -79 348v733h-105q-36 0 -41 19q-2 8 -2 24v111q0 29 7.5 36t35.5 7h485q34 0 39 -17q2 -8 2 -26v-111q0 -36 -17 -41q-8 -2 -24 -2h-106v-733q0 -171 49 -225q58 -64 166 -64q124 0 178.5 67t54.5 218v737h-104q-36 0 -41 19q-2 8 -2 24v111
q0 36 19 41q8 2 24 2h475q28 0 34.5 -7t6.5 -36v-111z" />
    <glyph glyph-name="Ucircumflex" unicode="&#xdb;" horiz-adv-x="1366" 
d="M1004 1634q0 -9 -13 -28l-41 -66q-15 -24 -26 -24t-33 10l-193 88l-194 -88q-23 -10 -31 -10q-12 0 -29 26l-38 64q-13 20 -13 28q0 14 23 29l254 172q15 10 30 10q14 0 29 -10l256 -176q19 -13 19 -25zM1327 1251q0 -36 -18 -41q-7 -2 -23 -2h-106v-733
q0 -139 -28 -221.5t-97 -151.5q-139 -137 -391 -137q-276 0 -392 162q-79 111 -79 348v733h-105q-36 0 -41 19q-2 8 -2 24v111q0 29 7.5 36t35.5 7h485q34 0 39 -17q2 -8 2 -26v-111q0 -36 -17 -41q-8 -2 -24 -2h-106v-733q0 -171 49 -225q58 -64 166 -64q124 0 178.5 67
t54.5 218v737h-104q-36 0 -41 19q-2 8 -2 24v111q0 36 19 41q8 2 24 2h475q28 0 34.5 -7t6.5 -36v-111z" />
    <glyph glyph-name="Ugrave" unicode="&#xd9;" horiz-adv-x="1366" 
d="M829 1640q0 -5 -8 -26l-26 -68q-12 -30 -31 -30q-3 0 -25 6l-385 108q-35 10 -35 27q0 9 9 29l55 129q13 30 27 30q13 0 30 -8l359 -168q30 -14 30 -29zM1327 1251q0 -36 -18 -41q-7 -2 -23 -2h-106v-733q0 -139 -28 -221.5t-97 -151.5q-139 -137 -391 -137
q-276 0 -392 162q-79 111 -79 348v733h-105q-36 0 -41 19q-2 8 -2 24v111q0 29 7.5 36t35.5 7h485q34 0 39 -17q2 -8 2 -26v-111q0 -36 -17 -41q-8 -2 -24 -2h-106v-733q0 -171 49 -225q58 -64 166 -64q124 0 178.5 67t54.5 218v737h-104q-36 0 -41 19q-2 8 -2 24v111
q0 36 19 41q8 2 24 2h475q28 0 34.5 -7t6.5 -36v-111z" />
    <glyph glyph-name="dotlessi" unicode="&#x131;" horiz-adv-x="645" 
d="M643 29q0 -29 -29 -29h-526q-29 0 -29 29v133q0 28 29 28h133v631h-127q-35 0 -35 35v121q0 35 35 35h352q35 0 35 -35v-787h133q29 0 29 -28v-133z" />
    <glyph glyph-name="circumflex" unicode="&#x2c6;" 
d="M795 1249q0 -6 -13 -26l-39 -64q-16 -26 -30 -26q-6 0 -27 12l-174 100l-176 -100q-22 -12 -27 -12q-15 0 -30 26l-37 64q-13 21 -13 26q0 13 23 31l231 182q21 17 29 17q10 0 31 -17l229 -182q23 -18 23 -31z" />
    <glyph glyph-name="tilde" unicode="&#x2dc;" 
d="M829 1366q0 -16 -43 -82q-72 -110 -174 -110q-52 0 -110.5 37.5t-83.5 37.5q-43 0 -76 -59q-9 -16 -18 -16q-6 0 -19 6l-96 47q-14 7 -14 18q0 25 45 92q67 101 166 101q62 0 145 -49q41 -25 65 -25q33 0 72 63q5 11 17 11q8 0 12 -4l96 -48q16 -8 16 -20z" />
    <glyph glyph-name="macron" unicode="&#xaf;" 
d="M762 1260q0 -34 -17 -39q-7 -2 -24 -2h-418q-29 0 -36 6.5t-7 34.5v92q0 29 7 36t36 7h418q34 0 38 -17q3 -9 3 -26v-92z" />
    <glyph glyph-name="macron" unicode="&#x2c9;" 
d="M762 1260q0 -34 -17 -39q-7 -2 -24 -2h-418q-29 0 -36 6.5t-7 34.5v92q0 29 7 36t36 7h418q34 0 38 -17q3 -9 3 -26v-92z" />
    <glyph glyph-name="breve" unicode="&#x2d8;" 
d="M799 1407q0 -70 -51 -143q-73 -105 -234 -105q-185 0 -258 131q-33 59 -33 113q0 28 23 31l149 18q8 0 15 -35q18 -96 102 -96q83 0 100 96q7 38 15 35l12 -2l137 -16q23 -3 23 -27z" />
    <glyph glyph-name="dotaccent" unicode="&#x2d9;" 
d="M670 1305q0 -65 -46.5 -111.5t-111.5 -46.5q-67 0 -113.5 46.5t-46.5 113.5q0 66 47 111.5t115 45.5q63 0 109.5 -47t46.5 -112z" />
    <glyph glyph-name="ring" unicode="&#x2da;" 
d="M725 1360q0 -89 -63 -152t-152 -63q-88 0 -150.5 63t-62.5 152q0 90 63 152.5t154 62.5q86 0 148.5 -64t62.5 -151zM596 1358q0 37 -25.5 62.5t-60.5 25.5q-36 0 -61 -25.5t-25 -62.5q0 -36 25.5 -61t60.5 -25t60.5 25t25.5 61z" />
    <glyph glyph-name="cedilla" unicode="&#xb8;" 
d="M700 -262q0 -82 -61 -131t-162 -49q-151 0 -151 36l2 19l18 86q4 8 10 8q3 0 11 -2q36 -12 77 -12q62 0 62 47t-80 47q-39 0 -43 12q-2 4 -2 13v12l18 176h162l-8 -113q147 -15 147 -149z" />
    <glyph glyph-name="hungarumlaut" unicode="&#x2dd;" 
d="M995 1380q0 -14 -20 -32l-234 -213q-20 -19 -30 -19q-8 0 -29 19l-33 28q-20 18 -20 31q0 7 16 29l193 250q17 22 30 22q10 0 31 -18l76 -68q20 -18 20 -29zM676 1380q0 -14 -21 -32l-235 -213q-21 -19 -31 -19q-9 0 -29 19l-30 28q-21 19 -21 31q0 7 17 29l192 250
q18 22 31 22q7 0 29 -18l77 -68q21 -18 21 -29z" />
    <glyph glyph-name="ogonek" unicode="&#x2db;" 
d="M942 -340q0 -20 -62.5 -41.5t-119.5 -21.5q-91 0 -147 46.5t-56 123.5q0 154 180 264h162q-170 -151 -170 -228q0 -47 57 -47q46 0 88 23q17 8 21 8q11 0 14 -10l29 -94q4 -14 4 -23z" />
    <glyph glyph-name="caron" unicode="&#x2c7;" 
d="M795 1362q0 -13 -23 -31l-231 -182q-21 -16 -29 -16q-10 0 -31 16l-229 182q-23 18 -23 31q0 6 13 27l39 63q16 27 30 27q6 0 27 -13l174 -100l176 100q22 13 27 13q15 0 30 -27l37 -63q13 -22 13 -27z" />
    <glyph glyph-name="Lslash" unicode="&#x141;" horiz-adv-x="1061" 
d="M1049 354q0 -8 -5 -26l-65 -291q-8 -37 -45 -37h-825q-37 0 -41 19q-2 8 -2 24v111q0 36 18 41q8 2 25 2h104v342l-119 -74q-15 -6 -16 -6q-15 0 -15 22v137q0 20 19 31l131 82v477h-104q-37 0 -41 19q-2 8 -2 24v111q0 36 18 41q8 2 25 2h489q27 0 34 -7.5t7 -35.5v-111
q0 -36 -18 -41q-8 -2 -23 -2h-111v-319l295 182q11 8 17 8q12 0 12 -24v-135q0 -23 -20 -35l-304 -189v-477h297l37 160q9 37 27 37q2 0 31 -6l135 -29q35 -7 35 -27z" />
    <glyph glyph-name="lslash" unicode="&#x142;" horiz-adv-x="645" 
d="M651 23q0 -20 -66.5 -39t-138.5 -19q-183 0 -233 148q-18 54 -18 249v222l-127 -84q-16 -11 -27 -11q-16 0 -16 29v115q0 22 18 35l152 102v508h-113q-29 0 -29 29v133q0 28 29 28h344q29 0 29 -28v-504l133 90q20 10 28 10q17 0 17 -16v-123q0 -25 -21 -39l-157 -106
v-371q0 -111 4 -131q9 -45 53 -45q19 0 44.5 7t35.5 7q13 0 16 -12l41 -168z" />
    <glyph glyph-name="Scaron" unicode="&#x160;" 
d="M846 1726q0 -11 -25 -28l-252 -172q-15 -10 -30 -10q-14 0 -29 10l-258 176q-16 11 -16 24q0 8 12 29l39 66q14 24 28 24q8 0 31 -10l195 -88l194 88q23 10 31 10q10 0 29 -24l39 -66q12 -21 12 -29zM946 397q0 -189 -122 -307.5t-318 -118.5q-97 0 -211.5 24.5
t-179.5 57.5q-31 16 -31 51v310q0 24 8 29.5t27 5.5h151q25 0 30 -8.5t5 -26.5v-172q114 -41 193 -41q186 0 186 174q0 76 -45 121q-38 38 -238 133q-169 80 -227 141q-88 92 -88 252q0 190 120.5 301t328.5 111q196 0 337 -80q31 -18 31 -49v-279q0 -24 -8 -29.5t-27 -5.5
h-151q-25 0 -31 10q-4 7 -4 25v160q-79 24 -137 24q-193 0 -193 -153q0 -57 36 -93t147 -92q237 -118 301 -188q110 -121 110 -287z" />
    <glyph glyph-name="scaron" unicode="&#x161;" horiz-adv-x="872" 
d="M745 1362q0 -13 -22 -31l-231 -182q-21 -16 -29 -16q-10 0 -31 16l-229 182q-23 18 -23 31q0 6 13 27l38 63q17 27 31 27q5 0 27 -13l174 -100l176 100q22 13 27 13q15 0 30 -27l37 -63q12 -22 12 -27zM805 297q0 -140 -94 -238q-91 -94 -254 -94q-167 0 -332 76
q-31 14 -31 43v223q0 29 29 29h139q29 0 29 -35v-106q94 -29 143 -29q127 0 127 106q0 45 -29 69.5t-129 61.5q-172 65 -219 109q-82 76 -82 201q0 145 102 239.5t259 94.5q145 0 258 -52q29 -13 29 -41v-213q0 -28 -29 -28h-139q-29 0 -29 28v103q-57 8 -80 8
q-131 0 -131 -104q0 -51 45 -80q17 -11 92 -39q185 -71 240 -123q86 -83 86 -209z" />
    <glyph glyph-name="Zcaron" unicode="&#x17d;" 
d="M817 1726q0 -11 -24 -28l-252 -172q-15 -10 -31 -10q-14 0 -29 10l-258 176q-16 11 -16 24q0 8 12 29l39 66q15 24 29 24q8 0 30 -10l195 -88l195 88q22 10 30 10q11 0 29 -24l39 -66q12 -21 12 -29zM995 354q0 -6 -4 -24l-65 -293q-6 -26 -13 -31.5t-34 -5.5h-773
q-24 0 -29 8t-5 27v170l571 983h-338v-170q0 -24 -8 -29.5t-27 -5.5h-145q-24 0 -29.5 8t-5.5 27v352q0 24 8 29.5t27 5.5h760q29 0 36 -7t7 -36v-184l-563 -951h368l35 160q6 29 25 29q5 0 24 -4l150 -33q28 -6 28 -25z" />
    <glyph glyph-name="zcaron" unicode="&#x17e;" horiz-adv-x="911" 
d="M752 1362q0 -13 -23 -31l-231 -182q-21 -16 -29 -16q-10 0 -31 16l-229 182q-23 18 -23 31q0 6 13 27l39 63q16 27 30 27q6 0 27 -13l174 -100l176 100q22 13 27 13q15 0 30 -27l37 -63q13 -22 13 -27zM889 258q0 -8 -6 -22l-90 -209q-1 -2 -2 -3q-11 -24 -37 -24h-656
q-35 0 -35 35v139l474 627h-240v-84q0 -29 -29 -29h-133q-29 0 -29 29v266q0 29 29 29h651q25 0 30 -8.5t5 -26.5v-146l-465 -616h297l45 109q7 16 21 16q8 0 22 -6l129 -55q19 -8 19 -21z" />
    <glyph glyph-name="brokenbar" unicode="&#xa6;" horiz-adv-x="823" 
d="M516 651h-209v733h209v-733zM516 -371h-209v674h209v-674z" />
    <glyph glyph-name="Eth" unicode="&#xd0;" horiz-adv-x="1251" 
d="M1169 707q0 -567 -332 -679q-84 -28 -262 -28h-469q-36 0 -41 19q-2 8 -2 24v111q0 36 19 41q8 2 24 2h105v442h-102q-27 0 -34 7t-7 36v96q0 37 17 41q8 2 24 2h102v387h-105q-36 0 -41 19q-2 8 -2 24v111q0 36 19 41q8 2 24 2h469q196 0 275 -27q319 -107 319 -671z
M889 709q0 264 -73 370.5t-253 106.5h-78v-365h211q28 0 34.5 -7t6.5 -36v-96q0 -29 -6.5 -36t-34.5 -7h-211v-420h78q52 0 133 19q102 22 147.5 134t45.5 337z" />
    <glyph glyph-name="eth" unicode="&#xf0;" 
d="M958 500q0 -244 -120.5 -389.5t-323.5 -145.5q-212 0 -329 143.5t-117 401.5q0 242 118 387q124 152 295 152q60 0 127 -37q-50 122 -98 198l-186 -88q-13 -6 -19 -6q-7 0 -16 17l-35 75q-6 14 -6 21q0 8 16 16l180 82q-35 65 -84 125q-14 18 -14 27q0 19 27 22l125 17
q8 2 20 2q34 0 113 -107l190 88q13 4 17 4q7 0 16 -18l31 -66q10 -22 10 -24q0 -7 -25 -19l-172 -82q260 -439 260 -796zM696 504q0 181 -43 259.5t-141 78.5q-89 0 -128.5 -79t-39.5 -257t40 -256t132 -78q180 0 180 332z" />
    <glyph glyph-name="Yacute" unicode="&#xdd;" 
d="M942 1657q0 -17 -35 -27l-385 -108q-22 -6 -24 -6q-19 0 -31 30l-27 68q-8 21 -8 28q0 13 31 27l358 168q18 8 31 8t27 -30l55 -129q8 -20 8 -29zM1069 1243q0 -24 -8 -29.5t-27 -5.5h-61l-316 -633v-378h140q36 0 41 -19q2 -8 2 -24v-111q0 -36 -19 -41q-8 -2 -24 -2
h-553q-29 0 -36 7t-7 36v111q0 36 18 41q8 2 25 2h139v381l-326 630h-53q-24 0 -30 10q-5 7 -5 25v127q0 24 10 30q7 5 25 5h234q24 0 30 -4t17 -27l157 -327q27 -56 86 -234q42 143 93 248l151 315q10 22 16 25.5t31 3.5h215q25 0 30 -8t5 -27v-127z" />
    <glyph glyph-name="yacute" unicode="&#xfd;" horiz-adv-x="948" 
d="M924 1305q0 -17 -31 -29l-363 -143q-20 -9 -28 -9q-11 0 -27 31l-33 64q-10 19 -10 28q0 13 27 29l334 199q17 10 30 10q12 0 27 -29l63 -123q11 -20 11 -28zM997 850q0 -29 -28 -29h-72l-166 -608l-90 -336q-51 -195 -139 -266q-81 -66 -207 -66q-88 0 -184.5 33
t-96.5 64q0 10 9 22l63 131q7 15 18 15q5 0 17 -7q90 -45 155 -45q66 0 99 33t61 123l27 86h-86q-30 0 -39 27l-275 794h-65q-29 0 -29 29v133q0 29 29 29h258q29 0 37 -29l133 -489q33 -120 78 -355q5 25 14 74q8 53 29 162q7 34 26 119l111 487q7 31 39 31h246
q28 0 28 -29v-133z" />
    <glyph glyph-name="Thorn" unicode="&#xde;" horiz-adv-x="1100" 
d="M1063 754q0 -199 -127 -317t-340 -118h-115v-122h137q28 0 34.5 -7t6.5 -36v-111q0 -29 -6.5 -36t-34.5 -7h-512q-29 0 -36 7t-7 36v111q0 36 19 41q8 2 24 2h105v1011h-105q-29 0 -36 7t-7 34v113q0 29 8 36t35 7h486q36 0 41 -19q2 -8 2 -24v-111q0 -36 -19 -41
q-8 -2 -24 -2h-111v-84h105q223 0 321 -59q156 -95 156 -311zM801 743q0 126 -92 164q-44 19 -138 19h-79v-385h59q131 0 184 41q66 50 66 161z" />
    <glyph glyph-name="thorn" unicode="&#xfe;" horiz-adv-x="1100" 
d="M1032 522q0 -312 -125 -459q-83 -98 -266 -98q-121 0 -217 53v-241h111q28 0 28 -29v-133q0 -29 -28 -29h-476q-23 0 -27 14q-1 5 -1 15v133q0 29 28 29h105v1501h-113q-28 0 -28 29v133q0 28 28 28h344q29 0 29 -28v-477q101 84 238 84q370 0 370 -525zM772 512
q0 178 -40.5 253t-137.5 75q-88 0 -170 -74v-565q73 -39 154 -39q107 0 143 57q51 81 51 293z" />
    <glyph glyph-name="minus" unicode="&#xad;" 
d="M979 610q0 -24 -8 -29.5t-27 -5.5h-862q-19 0 -26 5q-11 6 -11 30v140q0 24 8 29t27 5h862q19 0 26 -4q11 -6 11 -30v-140z" />
    <glyph glyph-name="minus" unicode="&#x2212;" 
d="M979 610q0 -24 -8 -29.5t-27 -5.5h-862q-19 0 -26 5q-11 6 -11 30v140q0 24 8 29t27 5h862q19 0 26 -4q11 -6 11 -30v-140z" />
    <glyph glyph-name="multiply" unicode="&#xd7;" 
d="M905 422q0 -11 -14 -25l-98 -96q-17 -16 -25 -16t-25 16l-231 236l-231 -236q-17 -16 -25 -16q-11 0 -25 16l-98 96q-14 18 -14 25q0 10 14 24l236 234l-236 231q-14 14 -14 25q0 7 14 25l98 96q14 16 25 16q8 0 25 -16l231 -236l231 236q17 16 25 16t25 -16l98 -96
q14 -15 14 -25q0 -11 -14 -25l-236 -231l236 -234q14 -11 14 -24z" />
    <glyph glyph-name="onesuperior" unicode="&#xb9;" horiz-adv-x="758" 
d="M625 586q0 -28 -13 -34q-7 -3 -26 -3h-383q-18 0 -26 3q-13 6 -13 34v61q0 25 14 32q8 3 25 3h112v473l-106 -53q-16 -8 -25 -8q-14 0 -26 20l-33 53q-10 13 -10 25q0 11 20 25l236 153h94q17 0 26 -3q13 -6 13 -34v-651h82q30 0 36 -13q3 -7 3 -22v-61z" />
    <glyph glyph-name="twosuperior" unicode="&#xb2;" horiz-adv-x="760" 
d="M662 1151q0 -121 -80 -199q-38 -36 -174 -133q-85 -60 -89 -114h295q19 0 29 -5.5t10 -29.5v-86q0 -25 -14 -32q-8 -3 -25 -3h-473q-28 0 -28 29v8q0 130 43 202q45 77 213 195q112 79 112 162q0 90 -96 90q-77 0 -123 -96q-12 -25 -31 -25q-4 0 -22 6l-78 27
q-25 8 -25 27q0 59 74 135q80 82 219 82q123 0 193 -64t70 -176z" />
    <glyph glyph-name="threesuperior" unicode="&#xb3;" horiz-adv-x="758" 
d="M647 784q0 -113 -87.5 -185.5t-225.5 -72.5q-86 0 -173 25.5t-87 50.5q0 5 6 25l24 78q7 20 23 20q8 0 47 -16q78 -33 145 -33q136 0 136 117q0 108 -154 108h-39q-39 0 -39 37v80q0 25 14 32q8 3 25 3h41q131 0 131 102q0 88 -96 88q-58 0 -111 -57q-15 -17 -24 -17
q-11 0 -21 9l-69 57q-13 12 -13 22q0 17 31 48q86 86 215 86q122 0 196 -62t74 -164q0 -108 -104 -176q135 -62 135 -205z" />
    <glyph glyph-name="onehalf" unicode="&#xbd;" horiz-adv-x="1784" 
d="M1657 602q0 -120 -80 -199q-37 -36 -174 -133q-85 -60 -88 -114h295q18 0 28.5 -5.5t10.5 -29.5v-86q0 -25 -14 -32q-8 -3 -25 -3h-473q-29 0 -29 29v8q0 127 44.5 203.5t211.5 193.5q113 79 113 162q0 90 -97 90q-48 0 -77 -26q-20 -19 -46 -70q-12 -25 -28 -25
q-7 0 -19 4l-84 29q-24 8 -24 29q0 59 74 133q81 82 219 82q123 0 192.5 -64t69.5 -176zM1221 1360q0 -10 -7 -25l-575 -1380q-15 -37 -49 -37h-105q-41 0 -41 23q0 9 9 28l577 1387q13 30 45 30h107q39 0 39 -26zM596 586q0 -28 -12 -34q-8 -3 -27 -3h-383q-17 0 -26 3
q-13 6 -13 34v61q0 25 14 32q8 3 25 3h113v473l-107 -53q-16 -8 -24 -8q-14 0 -27 20l-33 53q-10 13 -10 25q0 11 20 25l236 153h94q18 0 26 -3q13 -6 13 -34v-651h82q31 0 36 -13q3 -7 3 -22v-61z" />
    <glyph glyph-name="onequarter" unicode="&#xbc;" horiz-adv-x="1784" 
d="M1675 193q0 -26 -14 -32q-8 -3 -25 -3h-63v-144q0 -27 -12 -33q-8 -4 -27 -4h-109q-17 0 -25 4q-14 6 -14 33v144h-309q-30 0 -36 13q-3 6 -3 22v129l328 499q13 21 27 21q10 0 22 -6l78 -29q29 -11 29 -27q0 -9 -11 -24l-294 -455h174l16 182q3 33 39 33h88q39 0 39 -37
v-182h63q31 0 36 -13q3 -8 3 -24v-67zM1214 1360q0 -5 -8 -25l-575 -1380q-16 -37 -47 -37h-105q-43 0 -43 23q0 9 8 28l578 1387q13 30 47 30h105q40 0 40 -26zM582 586q0 -28 -13 -34q-7 -3 -26 -3h-383q-18 0 -26 3q-13 6 -13 34v61q0 25 14 32q8 3 25 3h112v473
l-106 -53q-16 -8 -25 -8q-14 0 -26 20l-33 53q-10 13 -10 25q0 11 20 25l236 153h94q17 0 26 -3q13 -6 13 -34v-651h82q30 0 36 -13q3 -7 3 -22v-61z" />
    <glyph glyph-name="threequarters" unicode="&#xbe;" horiz-adv-x="1784" 
d="M1688 193q0 -26 -14 -32q-8 -3 -25 -3h-64v-144q0 -27 -12 -33q-8 -4 -27 -4h-108q-18 0 -26 4q-13 6 -13 33v144h-309q-31 0 -36 13q-3 6 -3 22v129l327 499q14 21 27 21q10 0 22 -6l78 -29q29 -11 29 -27q0 -9 -10 -24l-295 -455h174l16 182q3 33 39 33h88q39 0 39 -37
v-182h64q30 0 36 -13q3 -8 3 -24v-67zM1241 1362q0 -12 -6 -27l-576 -1380q-15 -37 -49 -37h-104q-41 0 -41 23q0 14 6 28l578 1387q12 30 47 30h104q41 0 41 -24zM618 784q0 -113 -87.5 -185.5t-225.5 -72.5q-86 0 -173 25.5t-87 50.5q0 5 6 25l25 78q6 20 22 20
q9 0 47 -16q78 -33 146 -33q135 0 135 117q0 108 -154 108h-39q-38 0 -38 37v80q0 25 14 32q7 3 24 3h41q132 0 132 102q0 88 -97 88q-57 0 -110 -57q-15 -17 -25 -17t-20 9l-70 57q-12 12 -12 22q0 17 30 48q86 86 215 86q122 0 196.5 -62t74.5 -164q0 -108 -105 -176
q135 -62 135 -205z" />
    <glyph glyph-name="nonbreakingspace" unicode="&#xa0;" horiz-adv-x="1100" 
 />
    <glyph glyph-name="apple" unicode="&#xf000;" horiz-adv-x="1618" 
d="M1159 1655q0 -106 -4 -127q-17 -87 -70 -139q-61 -62 -139 -109q-14 -9 -115 -18q-6 62 11 104q19 50 71 141q58 72 111 99q79 39 135 49zM1501 436q-124 -269 -223 -356l-56 -50q-33 -23 -96 -32q-17 -3 -35 -3q-58 0 -112 25q-88 41 -141 41q-52 0 -142 -41
q-55 -25 -108 -25q-19 0 -37 3q-76 14 -129 61q-123 112 -223 328q-85 183 -85 390q0 46 7 83q41 222 176 328q104 81 269 81q52 0 89 -9q15 -4 88 -34q51 -22 95 -22t96 22q73 30 86 34q38 9 90 9q166 0 270 -81q29 -22 78 -78q-95 -69 -137 -139q-56 -94 -53 -205
q3 -115 67 -201q48 -63 89 -89z" />
    <glyph glyph-name="Euro" unicode="&#x20ac;" horiz-adv-x="1100" 
d="M1089 80q0 -28 -24 -42q-124 -74 -324 -74q-481 0 -533 566h-136q-37 0 -37 21q0 8 3 22l4 21q8 43 51 43h109q-1 20 -1 41q0 32 1 63h-130q-37 0 -37 21q0 8 3 22l4 21q8 43 51 43h117q61 556 519 556q189 0 316 -82q28 -18 28 -50v-270q0 -24 -8 -29t-26 -5h-150
q-20 0 -26 7t-6 27v168q-53 16 -124 16q-233 0 -265 -338h356q38 0 38 -23q0 -6 -3 -20l-4 -21q-9 -43 -52 -43h-340q0 -64 1 -104h319q38 0 38 -21q0 -5 -3 -22l-4 -21q-9 -43 -52 -43h-292q27 -344 276 -344q82 0 127 10v174q0 24 8 29t26 5h148q24 0 29 -8t5 -26v-290z
" />
    <glyph glyph-name="middot" unicode="&#xb7;" horiz-adv-x="422" 
 />
    <glyph glyph-name="glyph249" horiz-adv-x="1278" 
d="M1206 272q0 -12 -18 -30l-88 -88q-21 -21 -31 -21t-31 21l-90 90q-127 -74 -309 -74t-313 72l-88 -90q-18 -19 -31 -19q-10 0 -29 19l-90 90q-18 18 -18 30q0 11 18 29l86 86q-84 135 -84 326q0 182 82 309l-84 82q-18 18 -18 31q0 10 18 28l90 90q19 19 29 19
q12 0 31 -19l84 -84q130 82 319 82t317 -80l80 82q18 19 31 19t31 -19l88 -90q18 -19 18 -30q0 -10 -18 -29l-80 -82q78 -128 78 -313q0 -187 -86 -318l88 -90q18 -16 18 -29zM909 709q0 181 -63.5 258t-212.5 77q-142 0 -204 -79t-62 -258q0 -174 63.5 -252t206.5 -78
q144 0 208 78t64 254z" />
    </font>
</defs>
</svg>
